SplineFontDB: 3.0
FontName: SBOL_2019.04
FullName: SBOL_2019.04
FamilyName: SBOL_2019.04
Weight: Book
Copyright: By Benjamin Aleritsch. Please cite the soon to be published technical note if you use this font.
Version: 2019.04
ItalicAngle: 0
UnderlinePosition: -1224
UnderlineWidth: 408
Ascent: 4096
Descent: 4096
InvalidEm: 0
sfntRevision: 0x07e30a3d
LayerCount: 2
Layer: 0 1 "Back" 1
Layer: 1 1 "Fore" 0
XUID: [1021 880 -1658355765 6678258]
StyleMap: 0x0000
FSType: 0
OS2Version: 4
OS2_WeightWidthSlopeOnly: 0
OS2_UseTypoMetrics: 1
CreationTime: 1524582028
ModificationTime: 1556963955
PfmFamily: 17
TTFWeight: 400
TTFWidth: 5
LineGap: 737
VLineGap: 0
Panose: 2 0 5 3 0 0 0 0 0 0
OS2TypoAscent: 4096
OS2TypoAOffset: 0
OS2TypoDescent: -4096
OS2TypoDOffset: 0
OS2TypoLinegap: 737
OS2WinAscent: 8320
OS2WinAOffset: 0
OS2WinDescent: 8320
OS2WinDOffset: 0
HheadAscent: 8320
HheadAOffset: 0
HheadDescent: -8320
HheadDOffset: 0
OS2SubXSize: 5324
OS2SubYSize: 5734
OS2SubXOff: 0
OS2SubYOff: 1146
OS2SupXSize: 5324
OS2SupYSize: 5734
OS2SupXOff: 0
OS2SupYOff: 3932
OS2StrikeYSize: 408
OS2StrikeYPos: 2120
OS2Vendor: 'PfEd'
OS2CodePages: 00000001.00000000
OS2UnicodeRanges: 00000003.02000000.04000000.00000000
DEI: 91125
ShortTable: maxp 16
  1
  0
  152
  306
  11
  0
  0
  2
  0
  1
  1
  0
  64
  0
  0
  0
EndShort
LangName: 1033 "" "" "Regular" "FontForge : SBOL_2019.04 : 4-5-2019"
GaspTable: 1 65535 2 0
Encoding: UnicodeFull
Compacted: 1
UnicodeInterp: none
NameList: AGL For New Fonts
DisplaySize: -48
AntiAlias: 1
FitToEm: 0
WinInfo: 0 25 10
BeginChars: 1114115 152

StartChar: uF0000
Encoding: 983040 983040 5
Width: 4096
Flags: W
LayerCount: 2
Fore
SplineSet
0 128 m 1,0,-1
 4096 128 l 1,1,-1
 4096 -128 l 1,2,-1
 0 -128 l 1,3,-1
 0 128 l 1,0,-1
EndSplineSet
EndChar

StartChar: uF0001
Encoding: 983041 983041 6
Width: 4096
Flags: W
LayerCount: 2
Fore
SplineSet
1920 -4106 m 1,0,-1
 1920 4106 l 1,1,-1
 2176 4106 l 1,2,-1
 2176 -4106 l 1,3,-1
 1920 -4106 l 1,0,-1
EndSplineSet
EndChar

StartChar: uF0002
Encoding: 983042 983042 7
Width: 4096
Flags: W
LayerCount: 2
Fore
SplineSet
3072 128 m 2,0,-1
 4086 128 l 1,1,-1
 4096 128 l 1,2,-1
 4096 -128 l 1,3,-1
 4086 -128 l 1,4,-1
 3072 -128 l 2,5,6
 2890 -128 2890 -128 2724 -199 c 128,-1,7
 2558 -270 2558 -270 2438 -390 c 128,-1,8
 2318 -510 2318 -510 2247 -676 c 128,-1,9
 2176 -842 2176 -842 2176 -1024 c 2,10,-1
 2176 -4096 l 1,11,-1
 2176 -4106 l 1,12,-1
 1920 -4106 l 1,13,-1
 1920 -4096 l 1,14,-1
 1920 -1024 l 2,15,16
 1920 -790 1920 -790 2011.5 -576.5 c 128,-1,17
 2103 -363 2103 -363 2257 -209 c 128,-1,18
 2411 -55 2411 -55 2624.5 36.5 c 128,-1,19
 2838 128 2838 128 3072 128 c 2,0,-1
EndSplineSet
EndChar

StartChar: uF0003
Encoding: 983043 983043 8
Width: 4096
Flags: W
LayerCount: 2
Fore
SplineSet
1024 128 m 2,0,1
 1258 128 1258 128 1471.5 36.5 c 128,-1,2
 1685 -55 1685 -55 1839 -209 c 128,-1,3
 1993 -363 1993 -363 2084.5 -576.5 c 128,-1,4
 2176 -790 2176 -790 2176 -1024 c 2,5,-1
 2176 -4096 l 1,6,-1
 2176 -4106 l 1,7,-1
 1920 -4106 l 1,8,-1
 1920 -4096 l 1,9,-1
 1920 -1024 l 2,10,11
 1920 -842 1920 -842 1849 -676 c 128,-1,12
 1778 -510 1778 -510 1658 -390 c 128,-1,13
 1538 -270 1538 -270 1372 -199 c 128,-1,14
 1206 -128 1206 -128 1024 -128 c 2,15,-1
 0 -128 l 1,16,-1
 -10 -128 l 1,17,-1
 -10 128 l 1,18,-1
 0 128 l 1,19,-1
 1024 128 l 2,0,1
EndSplineSet
EndChar

StartChar: uF0004
Encoding: 983044 983044 9
Width: 4096
Flags: W
LayerCount: 2
Fore
SplineSet
3072 -128 m 2,0,1
 2838 -128 2838 -128 2624.5 -36.5 c 128,-1,2
 2411 55 2411 55 2257 209 c 128,-1,3
 2103 363 2103 363 2011.5 576.5 c 128,-1,4
 1920 790 1920 790 1920 1024 c 2,5,-1
 1920 4096 l 1,6,-1
 1920 4106 l 1,7,-1
 2176 4106 l 1,8,-1
 2176 4096 l 1,9,-1
 2176 1024 l 2,10,11
 2176 842 2176 842 2247 676 c 128,-1,12
 2318 510 2318 510 2438 390 c 128,-1,13
 2558 270 2558 270 2724 199 c 128,-1,14
 2890 128 2890 128 3072 128 c 2,15,-1
 4086 128 l 1,16,-1
 4096 128 l 1,17,-1
 4096 -128 l 1,18,-1
 4086 -128 l 1,19,-1
 3072 -128 l 2,0,1
EndSplineSet
EndChar

StartChar: uF0005
Encoding: 983045 983045 10
Width: 4096
Flags: W
LayerCount: 2
Fore
SplineSet
1024 -128 m 2,0,-1
 10 -128 l 1,1,-1
 0 -128 l 1,2,-1
 0 128 l 1,3,-1
 10 128 l 1,4,-1
 1024 128 l 2,5,6
 1206 128 1206 128 1372 199 c 128,-1,7
 1538 270 1538 270 1658 390 c 128,-1,8
 1778 510 1778 510 1849 676 c 128,-1,9
 1920 842 1920 842 1920 1024 c 2,10,-1
 1920 4096 l 1,11,-1
 1920 4106 l 1,12,-1
 2176 4106 l 1,13,-1
 2176 4096 l 1,14,-1
 2176 1024 l 2,15,16
 2176 790 2176 790 2084.5 576.5 c 128,-1,17
 1993 363 1993 363 1839 209 c 128,-1,18
 1685 55 1685 55 1471.5 -36.5 c 128,-1,19
 1258 -128 1258 -128 1024 -128 c 2,0,-1
EndSplineSet
EndChar

StartChar: uF0006
Encoding: 983046 983046 11
Width: 4096
Flags: W
LayerCount: 2
Fore
SplineSet
2885 2804 m 0,0,1
 3044 2804 3044 2804 3157.5 2690.5 c 128,-1,2
 3271 2577 3271 2577 3271 2418 c 0,3,4
 3271 2258 3271 2258 3157.5 2145 c 128,-1,5
 3044 2032 3044 2032 2885 2032 c 0,6,7
 2833 2032 2833 2032 2745 2068 c 1,8,-1
 2219 1764 l 1,9,10
 2242 1659 2242 1659 2242 1610 c 0,11,12
 2242 1381 2242 1381 2107 1200 c 128,-1,13
 1972 1019 1972 1019 1759 946 c 1,14,-1
 1759 128 l 1,15,-1
 4096 128 l 1,16,-1
 4096 -128 l 1,17,-1
 0 -128 l 1,18,-1
 0 128 l 1,19,-1
 1308 128 l 1,20,-1
 1308 947 l 1,21,22
 1095 1019 1095 1019 960 1200 c 128,-1,23
 825 1381 825 1381 825 1610 c 0,24,25
 825 1725 825 1725 861 1833.5 c 128,-1,26
 897 1942 897 1942 962.5 2029 c 128,-1,27
 1028 2116 1028 2116 1115 2181.5 c 128,-1,28
 1202 2247 1202 2247 1310 2283 c 128,-1,29
 1418 2319 1418 2319 1533 2319 c 0,30,31
 1776 2319 1776 2319 1982 2148 c 1,32,-1
 2505 2450 l 1,33,34
 2518 2599 2518 2599 2626.5 2701.5 c 128,-1,35
 2735 2804 2735 2804 2885 2804 c 0,0,1
2629 2373 m 1,36,-1
 1971 1993 l 1,37,-1
 1936 2027 l 2,38,39
 1856 2104 1856 2104 1752.5 2147 c 128,-1,40
 1649 2190 1649 2190 1533 2190 c 0,41,42
 1415 2190 1415 2190 1307.5 2144 c 128,-1,43
 1200 2098 1200 2098 1122.5 2020.5 c 128,-1,44
 1045 1943 1045 1943 999.5 1835.5 c 128,-1,45
 954 1728 954 1728 954 1610 c 0,46,47
 954 1410 954 1410 1076.5 1254.5 c 128,-1,48
 1199 1099 1199 1099 1388 1050 c 2,49,-1
 1437 1037 l 1,50,-1
 1437 128 l 1,51,-1
 1630 128 l 1,52,-1
 1630 1037 l 1,53,-1
 1678 1049 l 2,54,55
 1868 1098 1868 1098 1990.5 1253.5 c 128,-1,56
 2113 1409 2113 1409 2113 1610 c 0,57,58
 2113 1698 2113 1698 2087 1779 c 2,59,-1
 2073 1828 l 1,60,-1
 2732 2209 l 1,61,-1
 2764 2192 l 2,62,63
 2823 2160 2823 2160 2885 2160 c 0,64,65
 2992 2160 2992 2160 3067 2235.5 c 128,-1,66
 3142 2311 3142 2311 3142 2418 c 0,67,68
 3142 2536 3142 2536 3071 2601.5 c 128,-1,69
 3000 2667 3000 2667 2900 2667 c 0,70,71
 2792 2667 2792 2667 2710.5 2591.5 c 128,-1,72
 2629 2516 2629 2516 2629 2383 c 2,73,-1
 2629 2373 l 1,36,-1
EndSplineSet
EndChar

StartChar: uF0007
Encoding: 983047 983047 12
Width: 4096
Flags: W
LayerCount: 2
Fore
SplineSet
1024 469 m 1,0,-1
 3072 469 l 1,1,-1
 3074 469 l 2,2,3
 3127 469 3127 469 3164.5 431.5 c 128,-1,4
 3202 394 3202 394 3202 341 c 128,-1,5
 3202 288 3202 288 3164.5 250.5 c 128,-1,6
 3127 213 3127 213 3074 213 c 2,7,-1
 3072 213 l 1,8,-1
 1024 213 l 1,9,-1
 1022 213 l 2,10,11
 969 213 969 213 931.5 250.5 c 128,-1,12
 894 288 894 288 894 341 c 128,-1,13
 894 394 894 394 931.5 431.5 c 128,-1,14
 969 469 969 469 1022 469 c 2,15,-1
 1024 469 l 1,0,-1
1024 -214 m 1,16,-1
 3072 -214 l 1,17,-1
 3074 -214 l 2,18,19
 3127 -214 3127 -214 3164.5 -251.5 c 128,-1,20
 3202 -289 3202 -289 3202 -342 c 0,21,22
 3202 -394 3202 -394 3164 -432 c 128,-1,23
 3126 -470 3126 -470 3074 -470 c 2,24,-1
 3072 -470 l 1,25,-1
 1024 -470 l 1,26,-1
 1022 -470 l 2,27,28
 970 -470 970 -470 932 -432 c 128,-1,29
 894 -394 894 -394 894 -342 c 0,30,31
 894 -289 894 -289 931.5 -251.5 c 128,-1,32
 969 -214 969 -214 1022 -214 c 2,33,-1
 1024 -214 l 1,16,-1
EndSplineSet
EndChar

StartChar: uF0008
Encoding: 983048 983048 13
Width: 4096
Flags: W
LayerCount: 2
Fore
SplineSet
1536 1237 m 1,0,-1
 1792 1237 l 2,1,2
 1845 1237 1845 1237 1882.5 1199.5 c 128,-1,3
 1920 1162 1920 1162 1920 1109 c 2,4,-1
 1920 128 l 1,5,-1
 2176 128 l 1,6,-1
 2176 1109 l 2,7,8
 2176 1162 2176 1162 2213.5 1199.5 c 128,-1,9
 2251 1237 2251 1237 2304 1237 c 2,10,-1
 2560 1237 l 1,11,-1
 2562 1237 l 2,12,13
 2615 1237 2615 1237 2652.5 1199.5 c 128,-1,14
 2690 1162 2690 1162 2690 1109 c 128,-1,15
 2690 1056 2690 1056 2652 1018.5 c 128,-1,16
 2614 981 2614 981 2562 981 c 2,17,-1
 2560 981 l 1,18,-1
 2432 981 l 1,19,-1
 2432 128 l 1,20,-1
 4096 128 l 1,21,-1
 4096 -128 l 1,22,-1
 2432 -128 l 1,23,-1
 2432 -981 l 1,24,-1
 2560 -981 l 1,25,-1
 2562 -981 l 2,26,27
 2615 -981 2615 -981 2652.5 -1018.5 c 128,-1,28
 2690 -1056 2690 -1056 2690 -1109 c 128,-1,29
 2690 -1162 2690 -1162 2652.5 -1199.5 c 128,-1,30
 2615 -1237 2615 -1237 2562 -1237 c 2,31,-1
 2560 -1237 l 1,32,-1
 2304 -1237 l 2,33,34
 2251 -1237 2251 -1237 2213.5 -1199.5 c 128,-1,35
 2176 -1162 2176 -1162 2176 -1109 c 2,36,-1
 2176 -128 l 1,37,-1
 1920 -128 l 1,38,-1
 1920 -1109 l 2,39,40
 1920 -1162 1920 -1162 1882.5 -1199.5 c 128,-1,41
 1845 -1237 1845 -1237 1792 -1237 c 2,42,-1
 1536 -1237 l 1,43,-1
 1534 -1237 l 2,44,45
 1481 -1237 1481 -1237 1443.5 -1199.5 c 128,-1,46
 1406 -1162 1406 -1162 1406 -1109 c 128,-1,47
 1406 -1056 1406 -1056 1443.5 -1018.5 c 128,-1,48
 1481 -981 1481 -981 1534 -981 c 2,49,-1
 1536 -981 l 1,50,-1
 1664 -981 l 1,51,-1
 1664 -128 l 1,52,-1
 0 -128 l 1,53,-1
 0 128 l 1,54,-1
 1664 128 l 1,55,-1
 1664 981 l 1,56,-1
 1536 981 l 1,57,-1
 1534 981 l 2,58,59
 1482 981 1482 981 1444 1018.5 c 128,-1,60
 1406 1056 1406 1056 1406 1109 c 128,-1,61
 1406 1162 1406 1162 1443.5 1199.5 c 128,-1,62
 1481 1237 1481 1237 1534 1237 c 2,63,-1
 1536 1237 l 1,0,-1
EndSplineSet
EndChar

StartChar: uF0009
Encoding: 983049 983049 14
Width: 4096
Flags: W
LayerCount: 2
Fore
SplineSet
2592 1096 m 2,0,1
 2616 1096 2616 1096 2642.5 1086.5 c 128,-1,2
 2669 1077 2669 1077 2684 1061 c 2,3,-1
 3574 128 l 1,4,-1
 4096 128 l 1,5,-1
 4096 -128 l 1,6,-1
 3574 -128 l 1,7,-1
 2684 -1061 l 2,8,9
 2668 -1078 2668 -1078 2641 -1089.5 c 128,-1,10
 2614 -1101 2614 -1101 2591 -1101 c 2,11,-1
 577 -1101 l 2,12,13
 524 -1101 524 -1101 486.5 -1063.5 c 128,-1,14
 449 -1026 449 -1026 449 -973 c 2,15,-1
 449 -128 l 1,16,-1
 0 -128 l 1,17,-1
 0 128 l 1,18,-1
 448 128 l 1,19,-1
 448 973 l 2,20,21
 448 1025 448 1025 485.5 1060.5 c 128,-1,22
 523 1096 523 1096 577 1096 c 2,23,-1
 2592 1096 l 2,0,1
705 845 m 1,24,-1
 705 -845 l 1,25,-1
 2538 -845 l 1,26,-1
 3344 0 l 1,27,-1
 2538 845 l 1,28,-1
 705 845 l 1,24,-1
EndSplineSet
EndChar

StartChar: uF000A
Encoding: 983050 983050 15
Width: 4096
Flags: W
LayerCount: 2
Fore
SplineSet
2684 1061 m 2,0,-1
 3574 128 l 1,1,-1
 4096 128 l 1,2,-1
 4096 -128 l 1,3,-1
 3574 -128 l 1,4,-1
 2684 -1061 l 2,5,6
 2668 -1078 2668 -1078 2641 -1089.5 c 128,-1,7
 2614 -1101 2614 -1101 2591 -1101 c 0,8,9
 2540 -1101 2540 -1101 2503 -1064.5 c 128,-1,10
 2466 -1028 2466 -1028 2464 -977 c 2,11,-1
 2454 -667 l 1,12,-1
 577 -671 l 1,13,-1
 576 -671 l 2,14,15
 523 -671 523 -671 486 -633.5 c 128,-1,16
 449 -596 449 -596 449 -543 c 2,17,-1
 449 -128 l 1,18,-1
 0 -128 l 1,19,-1
 0 128 l 1,20,-1
 449 128 l 1,21,-1
 449 476 l 2,22,23
 449 529 449 529 486.5 566.5 c 128,-1,24
 524 604 524 604 576 604 c 2,25,-1
 577 604 l 1,26,-1
 2460 595 l 1,27,-1
 2463 974 l 2,28,29
 2464 1015 2464 1015 2487.5 1046.5 c 128,-1,30
 2511 1078 2511 1078 2544.5 1091 c 128,-1,31
 2578 1104 2578 1104 2617 1097 c 128,-1,32
 2656 1090 2656 1090 2684 1061 c 2,0,-1
2716 657 m 1,33,-1
 2714 465 l 2,34,35
 2713 413 2713 413 2676 376 c 128,-1,36
 2639 339 2639 339 2587 339 c 2,37,-1
 2586 339 l 1,38,-1
 704 347 l 1,39,-1
 704 -415 l 1,40,-1
 2577 -411 l 1,41,-1
 2578 -411 l 2,42,43
 2629 -411 2629 -411 2666 -447.5 c 128,-1,44
 2703 -484 2703 -484 2705 -535 c 2,45,-1
 2709 -664 l 1,46,-1
 3343 0 l 1,47,-1
 2716 657 l 1,33,-1
EndSplineSet
EndChar

StartChar: uF000B
Encoding: 983051 983051 16
Width: 4096
Flags: W
LayerCount: 2
Fore
SplineSet
4096 8320 m 1,0,-1
 4352 8320 l 1,1,-1
 4173 7962 l 1,2,-1
 3968 8064 l 1,3,-1
 4096 8320 l 1,0,-1
3866 7859 m 1,4,-1
 4070 7757 l 1,5,-1
 3763 7142 l 1,6,-1
 3558 7245 l 1,7,-1
 3866 7859 l 1,4,-1
3456 7040 m 1,8,-1
 3661 6938 l 1,9,-1
 3354 6323 l 1,10,-1
 3149 6426 l 1,11,-1
 3456 7040 l 1,8,-1
3046 6221 m 1,12,-1
 3251 6118 l 1,13,-1
 2944 5504 l 1,14,-1
 2739 5606 l 1,15,-1
 3046 6221 l 1,12,-1
2637 5402 m 1,16,-1
 2842 5299 l 1,17,-1
 2534 4685 l 1,18,-1
 2330 4787 l 1,19,-1
 2637 5402 l 1,16,-1
2227 4582 m 1,20,-1
 2432 4480 l 1,21,-1
 2125 3866 l 1,22,-1
 1920 3968 l 1,23,-1
 2227 4582 l 1,20,-1
1818 3763 m 1,24,-1
 2022 3661 l 1,25,-1
 1715 3046 l 1,26,-1
 1510 3149 l 1,27,-1
 1818 3763 l 1,24,-1
1408 2944 m 1,28,-1
 1613 2842 l 1,29,-1
 1306 2227 l 1,30,-1
 1101 2330 l 1,31,-1
 1408 2944 l 1,28,-1
998 2125 m 1,32,-1
 1203 2022 l 1,33,-1
 896 1408 l 1,34,-1
 691 1510 l 1,35,-1
 998 2125 l 1,32,-1
589 1306 m 1,36,-1
 794 1203 l 1,37,-1
 486 589 l 1,38,-1
 282 691 l 1,39,-1
 589 1306 l 1,36,-1
179 486 m 1,40,-1
 384 384 l 1,41,-1
 256 128 l 1,42,-1
 0 128 l 1,43,-1
 179 486 l 1,40,-1
EndSplineSet
EndChar

StartChar: uF000C
Encoding: 983052 983052 17
Width: 4096
Flags: W
LayerCount: 2
Fore
SplineSet
179 486 m 1,0,-1
 384 384 l 1,1,-1
 256 128 l 1,2,-1
 4096 128 l 1,3,-1
 4096 -128 l 1,4,-1
 0 -128 l 1,5,-1
 0 128 l 1,6,-1
 179 486 l 1,0,-1
4096 8320 m 1,7,-1
 4352 8320 l 1,8,-1
 4173 7962 l 1,9,-1
 3968 8064 l 1,10,-1
 4096 8320 l 1,7,-1
3866 7859 m 1,11,-1
 4070 7757 l 1,12,-1
 3763 7142 l 1,13,-1
 3558 7245 l 1,14,-1
 3866 7859 l 1,11,-1
3456 7040 m 1,15,-1
 3661 6938 l 1,16,-1
 3354 6323 l 1,17,-1
 3149 6426 l 1,18,-1
 3456 7040 l 1,15,-1
3046 6221 m 1,19,-1
 3251 6118 l 1,20,-1
 2944 5504 l 1,21,-1
 2739 5606 l 1,22,-1
 3046 6221 l 1,19,-1
2637 5402 m 1,23,-1
 2842 5299 l 1,24,-1
 2534 4685 l 1,25,-1
 2330 4787 l 1,26,-1
 2637 5402 l 1,23,-1
2227 4582 m 1,27,-1
 2432 4480 l 1,28,-1
 2125 3866 l 1,29,-1
 1920 3968 l 1,30,-1
 2227 4582 l 1,27,-1
1818 3763 m 1,31,-1
 2022 3661 l 1,32,-1
 1715 3046 l 1,33,-1
 1510 3149 l 1,34,-1
 1818 3763 l 1,31,-1
1408 2944 m 1,35,-1
 1613 2842 l 1,36,-1
 1306 2227 l 1,37,-1
 1101 2330 l 1,38,-1
 1408 2944 l 1,35,-1
998 2125 m 1,39,-1
 1203 2022 l 1,40,-1
 896 1408 l 1,41,-1
 691 1510 l 1,42,-1
 998 2125 l 1,39,-1
589 1306 m 1,43,-1
 794 1203 l 1,44,-1
 486 589 l 1,45,-1
 282 691 l 1,46,-1
 589 1306 l 1,43,-1
EndSplineSet
EndChar

StartChar: uF000D
Encoding: 983053 983053 18
Width: 4096
Flags: W
LayerCount: 2
Fore
SplineSet
3917 486 m 1,0,-1
 4096 128 l 1,1,-1
 4096 -128 l 1,2,-1
 0 -128 l 1,3,-1
 0 128 l 1,4,-1
 3840 128 l 1,5,-1
 3712 384 l 1,6,-1
 3917 486 l 1,0,-1
0 8320 m 1,7,-1
 128 8064 l 1,8,-1
 -77 7962 l 1,9,-1
 -256 8320 l 1,10,-1
 0 8320 l 1,7,-1
230 7859 m 1,11,-1
 538 7245 l 1,12,-1
 333 7142 l 1,13,-1
 26 7757 l 1,14,-1
 230 7859 l 1,11,-1
640 7040 m 1,15,-1
 947 6426 l 1,16,-1
 742 6323 l 1,17,-1
 435 6938 l 1,18,-1
 640 7040 l 1,15,-1
1050 6221 m 1,19,-1
 1357 5606 l 1,20,-1
 1152 5504 l 1,21,-1
 845 6118 l 1,22,-1
 1050 6221 l 1,19,-1
1459 5402 m 1,23,-1
 1766 4787 l 1,24,-1
 1562 4685 l 1,25,-1
 1254 5299 l 1,26,-1
 1459 5402 l 1,23,-1
1869 4582 m 1,27,-1
 2176 3968 l 1,28,-1
 1971 3866 l 1,29,-1
 1664 4480 l 1,30,-1
 1869 4582 l 1,27,-1
2278 3763 m 1,31,-1
 2586 3149 l 1,32,-1
 2381 3046 l 1,33,-1
 2074 3661 l 1,34,-1
 2278 3763 l 1,31,-1
2688 2944 m 1,35,-1
 2995 2330 l 1,36,-1
 2790 2227 l 1,37,-1
 2483 2842 l 1,38,-1
 2688 2944 l 1,35,-1
3098 2125 m 1,39,-1
 3405 1510 l 1,40,-1
 3200 1408 l 1,41,-1
 2893 2022 l 1,42,-1
 3098 2125 l 1,39,-1
3507 1306 m 1,43,-1
 3814 691 l 1,44,-1
 3610 589 l 1,45,-1
 3302 1203 l 1,46,-1
 3507 1306 l 1,43,-1
EndSplineSet
EndChar

StartChar: uF000E
Encoding: 983054 983054 19
Width: 4096
Flags: W
LayerCount: 2
Fore
SplineSet
0 8320 m 1,0,-1
 128 8064 l 1,1,-1
 -77 7962 l 1,2,-1
 -256 8320 l 1,3,-1
 0 8320 l 1,0,-1
230 7859 m 1,4,-1
 538 7245 l 1,5,-1
 333 7142 l 1,6,-1
 26 7757 l 1,7,-1
 230 7859 l 1,4,-1
640 7040 m 1,8,-1
 947 6426 l 1,9,-1
 742 6323 l 1,10,-1
 435 6938 l 1,11,-1
 640 7040 l 1,8,-1
1050 6221 m 1,12,-1
 1357 5606 l 1,13,-1
 1152 5504 l 1,14,-1
 845 6118 l 1,15,-1
 1050 6221 l 1,12,-1
1459 5402 m 1,16,-1
 1766 4787 l 1,17,-1
 1562 4685 l 1,18,-1
 1254 5299 l 1,19,-1
 1459 5402 l 1,16,-1
1869 4582 m 1,20,-1
 2176 3968 l 1,21,-1
 1971 3866 l 1,22,-1
 1664 4480 l 1,23,-1
 1869 4582 l 1,20,-1
2278 3763 m 1,24,-1
 2586 3149 l 1,25,-1
 2381 3046 l 1,26,-1
 2074 3661 l 1,27,-1
 2278 3763 l 1,24,-1
2688 2944 m 1,28,-1
 2995 2330 l 1,29,-1
 2790 2227 l 1,30,-1
 2483 2842 l 1,31,-1
 2688 2944 l 1,28,-1
3098 2125 m 1,32,-1
 3405 1510 l 1,33,-1
 3200 1408 l 1,34,-1
 2893 2022 l 1,35,-1
 3098 2125 l 1,32,-1
3507 1306 m 1,36,-1
 3814 691 l 1,37,-1
 3610 589 l 1,38,-1
 3302 1203 l 1,39,-1
 3507 1306 l 1,36,-1
3917 486 m 1,40,-1
 4096 128 l 1,41,-1
 3840 128 l 1,42,-1
 3712 384 l 1,43,-1
 3917 486 l 1,40,-1
EndSplineSet
EndChar

StartChar: uF000F
Encoding: 983055 983055 20
Width: 4096
Flags: W
LayerCount: 2
Fore
SplineSet
341 2091 m 2,0,-1
 3755 2091 l 2,1,2
 3808 2091 3808 2091 3845.5 2053.5 c 128,-1,3
 3883 2016 3883 2016 3883 1963 c 2,4,-1
 3883 256 l 2,5,6
 3883 203 3883 203 3845.5 165.5 c 128,-1,7
 3808 128 3808 128 3755 128 c 2,8,-1
 4096 128 l 1,9,-1
 4096 -128 l 1,10,-1
 0 -128 l 1,11,-1
 0 128 l 1,12,-1
 341 128 l 2,13,14
 288 128 288 128 250.5 165.5 c 128,-1,15
 213 203 213 203 213 256 c 2,16,-1
 213 1963 l 2,17,18
 213 2016 213 2016 250.5 2053.5 c 128,-1,19
 288 2091 288 2091 341 2091 c 2,0,-1
469 1835 m 1,20,-1
 469 384 l 1,21,-1
 3627 384 l 1,22,-1
 3627 1835 l 1,23,-1
 469 1835 l 1,20,-1
EndSplineSet
EndChar

StartChar: uF0010
Encoding: 983056 983056 21
Width: 4096
Flags: W
LayerCount: 2
Fore
SplineSet
130 469 m 1,0,-1
 2690 469 l 1,1,-1
 2692 469 l 2,2,3
 2745 469 2745 469 2782.5 431.5 c 128,-1,4
 2820 394 2820 394 2820 341 c 128,-1,5
 2820 288 2820 288 2782.5 250.5 c 128,-1,6
 2745 213 2745 213 2692 213 c 2,7,-1
 2690 213 l 1,8,-1
 130 213 l 1,9,-1
 128 213 l 2,10,11
 75 213 75 213 37.5 250.5 c 128,-1,12
 0 288 0 288 0 341 c 128,-1,13
 0 394 0 394 37.5 431.5 c 128,-1,14
 75 469 75 469 128 469 c 2,15,-1
 130 469 l 1,0,-1
130 -214 m 1,16,-1
 1410 -214 l 1,17,-1
 1412 -214 l 2,18,19
 1465 -214 1465 -214 1502.5 -251.5 c 128,-1,20
 1540 -289 1540 -289 1540 -342 c 0,21,22
 1540 -394 1540 -394 1502 -432 c 128,-1,23
 1464 -470 1464 -470 1412 -470 c 2,24,-1
 1410 -470 l 1,25,-1
 130 -470 l 1,26,-1
 128 -470 l 2,27,28
 75 -470 75 -470 37.5 -432.5 c 128,-1,29
 0 -395 0 -395 0 -342 c 128,-1,30
 0 -289 0 -289 37.5 -251.5 c 128,-1,31
 75 -214 75 -214 128 -214 c 2,32,-1
 130 -214 l 1,16,-1
EndSplineSet
EndChar

StartChar: uF0011
Encoding: 983057 983057 22
Width: 4096
Flags: W
LayerCount: 2
Fore
SplineSet
3966 469 m 1,0,-1
 3968 469 l 2,1,2
 4021 469 4021 469 4058.5 431.5 c 128,-1,3
 4096 394 4096 394 4096 341 c 128,-1,4
 4096 288 4096 288 4058.5 250.5 c 128,-1,5
 4021 213 4021 213 3968 213 c 2,6,-1
 3966 213 l 1,7,-1
 1406 213 l 1,8,-1
 1404 213 l 2,9,10
 1351 213 1351 213 1313.5 250.5 c 128,-1,11
 1276 288 1276 288 1276 341 c 128,-1,12
 1276 394 1276 394 1313.5 431.5 c 128,-1,13
 1351 469 1351 469 1404 469 c 2,14,-1
 1406 469 l 1,15,-1
 3966 469 l 1,0,-1
3966 -214 m 1,16,-1
 3968 -214 l 2,17,18
 4021 -214 4021 -214 4058.5 -251.5 c 128,-1,19
 4096 -289 4096 -289 4096 -342 c 128,-1,20
 4096 -395 4096 -395 4058.5 -432.5 c 128,-1,21
 4021 -470 4021 -470 3968 -470 c 2,22,-1
 3966 -470 l 1,23,-1
 2686 -470 l 1,24,-1
 2684 -470 l 2,25,26
 2632 -470 2632 -470 2594 -432 c 128,-1,27
 2556 -394 2556 -394 2556 -342 c 0,28,29
 2556 -289 2556 -289 2593.5 -251.5 c 128,-1,30
 2631 -214 2631 -214 2684 -214 c 2,31,-1
 2686 -214 l 1,32,-1
 3966 -214 l 1,16,-1
EndSplineSet
EndChar

StartChar: uF0012
Encoding: 983058 983058 23
Width: 4096
Flags: W
LayerCount: 2
Fore
SplineSet
3326 1239 m 2,0,-1
 3328 1239 l 2,1,2
 3381 1239 3381 1239 3418.5 1201.5 c 128,-1,3
 3456 1164 3456 1164 3456 1111 c 2,4,-1
 3456 1109 l 1,5,-1
 3456 0 l 2,6,7
 3456 -53 3456 -53 3418.5 -90.5 c 128,-1,8
 3381 -128 3381 -128 3328 -128 c 2,9,-1
 896 -128 l 1,10,-1
 896 -1109 l 1,11,-1
 896 -1111 l 2,12,13
 896 -1164 896 -1164 858.5 -1201.5 c 128,-1,14
 821 -1239 821 -1239 768 -1239 c 128,-1,15
 715 -1239 715 -1239 677.5 -1201.5 c 128,-1,16
 640 -1164 640 -1164 640 -1111 c 2,17,-1
 640 -1109 l 1,18,-1
 640 0 l 2,19,20
 640 53 640 53 677.5 90.5 c 128,-1,21
 715 128 715 128 768 128 c 2,22,-1
 3200 128 l 1,23,-1
 3200 1109 l 1,24,-1
 3200 1111 l 2,25,26
 3200 1163 3200 1163 3237 1200.5 c 128,-1,27
 3274 1238 3274 1238 3326 1239 c 2,0,-1
EndSplineSet
EndChar

StartChar: uF0013
Encoding: 983059 983059 24
Width: 4096
Flags: W
LayerCount: 2
Fore
SplineSet
3326 -1239 m 2,0,1
 3274 -1238 3274 -1238 3237 -1200.5 c 128,-1,2
 3200 -1163 3200 -1163 3200 -1111 c 2,3,-1
 3200 -1109 l 1,4,-1
 3200 -128 l 1,5,-1
 768 -128 l 2,6,7
 715 -128 715 -128 677.5 -90.5 c 128,-1,8
 640 -53 640 -53 640 0 c 2,9,-1
 640 1109 l 1,10,-1
 640 1111 l 2,11,12
 640 1164 640 1164 677.5 1201.5 c 128,-1,13
 715 1239 715 1239 768 1239 c 128,-1,14
 821 1239 821 1239 858.5 1201.5 c 128,-1,15
 896 1164 896 1164 896 1111 c 2,16,-1
 896 1109 l 1,17,-1
 896 128 l 1,18,-1
 3328 128 l 2,19,20
 3381 128 3381 128 3418.5 90.5 c 128,-1,21
 3456 53 3456 53 3456 0 c 2,22,-1
 3456 -1109 l 1,23,-1
 3456 -1111 l 2,24,25
 3456 -1164 3456 -1164 3418.5 -1201.5 c 128,-1,26
 3381 -1239 3381 -1239 3328 -1239 c 2,27,-1
 3326 -1239 l 2,0,1
EndSplineSet
EndChar

StartChar: uF0014
Encoding: 983060 983060 25
Width: 4096
Flags: W
LayerCount: 2
Fore
SplineSet
768 2944 m 2,0,-1
 3328 2944 l 2,1,2
 3381 2944 3381 2944 3418.5 2906.5 c 128,-1,3
 3456 2869 3456 2869 3456 2816 c 2,4,-1
 3456 256 l 2,5,6
 3456 203 3456 203 3418.5 165.5 c 128,-1,7
 3381 128 3381 128 3328 128 c 2,8,-1
 4096 128 l 1,9,-1
 4096 -128 l 1,10,-1
 0 -128 l 1,11,-1
 0 128 l 1,12,-1
 768 128 l 2,13,14
 715 128 715 128 677.5 165.5 c 128,-1,15
 640 203 640 203 640 256 c 2,16,-1
 640 2816 l 2,17,18
 640 2869 640 2869 677.5 2906.5 c 128,-1,19
 715 2944 715 2944 768 2944 c 2,0,-1
896 2688 m 1,20,-1
 896 384 l 1,21,-1
 3200 384 l 1,22,-1
 3200 2688 l 1,23,-1
 896 2688 l 1,20,-1
1365 2347 m 2,24,-1
 2731 2347 l 2,25,26
 2784 2347 2784 2347 2821.5 2309.5 c 128,-1,27
 2859 2272 2859 2272 2859 2219 c 2,28,-1
 2859 853 l 2,29,30
 2859 800 2859 800 2821.5 762.5 c 128,-1,31
 2784 725 2784 725 2731 725 c 2,32,-1
 1365 725 l 2,33,34
 1312 725 1312 725 1274.5 762.5 c 128,-1,35
 1237 800 1237 800 1237 853 c 2,36,-1
 1237 2219 l 2,37,38
 1237 2272 1237 2272 1274.5 2309.5 c 128,-1,39
 1312 2347 1312 2347 1365 2347 c 2,24,-1
1493 2091 m 1,40,-1
 1493 981 l 1,41,-1
 2603 981 l 1,42,-1
 2603 2091 l 1,43,-1
 1493 2091 l 1,40,-1
EndSplineSet
EndChar

StartChar: uF0015
Encoding: 983061 983061 26
Width: 4096
Flags: W
LayerCount: 2
Fore
SplineSet
1364 1950 m 1,0,-1
 1779 1950 l 1,1,-1
 1779 1766 l 1,2,-1
 1586 1766 l 1,3,-1
 1586 568 l 1,4,-1
 1779 568 l 1,5,-1
 1779 384 l 1,6,-1
 1364 384 l 1,7,-1
 1364 1950 l 1,0,-1
2317 1950 m 1,8,-1
 2732 1950 l 1,9,-1
 2732 384 l 1,10,-1
 2317 384 l 1,11,-1
 2317 568 l 1,12,-1
 2510 568 l 1,13,-1
 2510 1767 l 1,14,-1
 2317 1767 l 1,15,-1
 2317 1950 l 1,8,-1
0 128 m 1,16,-1
 4096 128 l 1,17,-1
 4096 -128 l 1,18,-1
 0 -128 l 1,19,-1
 0 128 l 1,16,-1
EndSplineSet
EndChar

StartChar: uF0016
Encoding: 983062 983062 27
Width: 4096
Flags: W
LayerCount: 2
Fore
SplineSet
2924 888 m 2,0,1
 2937 888 2937 888 2943 887 c 0,2,3
 2991 881 2991 881 3033.5 848 c 128,-1,4
 3076 815 3076 815 3126 753 c 0,5,6
 3195 665 3195 665 3326 437 c 1,7,8
 3349 423 3349 423 3353 394 c 0,9,10
 3358 382 3358 382 3358 369 c 0,11,12
 3358 355 3358 355 3353 345 c 1,13,-1
 3353 128 l 1,14,-1
 4096 128 l 1,15,-1
 4096 -128 l 1,16,-1
 0 -128 l 1,17,-1
 0 128 l 1,18,-1
 738 128 l 1,19,-1
 743 581 l 2,20,21
 743 594 743 594 749 608 c 0,22,23
 816 741 816 741 875 801 c 0,24,25
 949 877 949 877 1036 874 c 0,26,27
 1115 870 1115 870 1201 794 c 0,28,29
 1265 739 1265 739 1365 607 c 0,30,31
 1448 493 1448 493 1500 450 c 0,32,33
 1538 418 1538 418 1557 422 c 0,34,35
 1579 424 1579 424 1617 469 c 0,36,37
 1642 498 1642 498 1729 624 c 0,38,39
 1802 735 1802 735 1861 790 c 0,40,41
 1934 859 1934 859 2009 862 c 0,42,43
 2087 865 2087 865 2163 797 c 0,44,45
 2225 742 2225 742 2302 624 c 0,46,47
 2375 513 2375 513 2416 470 c 0,48,49
 2449 436 2449 436 2468 436 c 0,50,51
 2486 436 2486 436 2524 474 c 0,52,53
 2567 518 2567 518 2645 626 c 0,54,55
 2753 779 2753 779 2777 805 c 0,56,57
 2845 884 2845 884 2918 888 c 1,58,-1
 2924 888 l 2,0,1
2924 768 m 0,59,60
 2903 766 2903 766 2868 726 c 0,61,62
 2853 709 2853 709 2836 686 c 128,-1,63
 2819 663 2819 663 2787 618 c 128,-1,64
 2755 573 2755 573 2743 556 c 0,65,66
 2654 432 2654 432 2610 388 c 0,67,68
 2540 318 2540 318 2470 315 c 0,69,70
 2401 314 2401 314 2330 386 c 0,71,72
 2283 434 2283 434 2201 558 c 0,73,74
 2132 663 2132 663 2082 707 c 0,75,76
 2041 744 2041 744 2014 742 c 0,77,78
 1984 740 1984 740 1943 702 c 0,79,80
 1894 655 1894 655 1829 557 c 0,81,82
 1750 437 1750 437 1708 390 c 0,83,84
 1641 313 1641 313 1576 302 c 0,85,86
 1499 291 1499 291 1422 358 c 0,87,88
 1359 412 1359 412 1268 535 c 0,89,90
 1180 652 1180 652 1121 704 c 0,91,92
 1067 751 1067 751 1030 753 c 0,93,94
 998 755 998 755 962 717 c 0,95,96
 918 671 918 671 863 563 c 1,97,-1
 859 128 l 1,98,-1
 3233 128 l 1,99,-1
 3233 359 l 1,100,101
 3104 586 3104 586 3032 678 c 0,102,103
 2963 764 2963 764 2928 767 c 1,104,-1
 2926 768 l 2,105,106
 2925 768 2925 768 2924 768 c 0,59,60
EndSplineSet
EndChar

StartChar: uF0017
Encoding: 983063 983063 28
Width: 4096
Flags: W
LayerCount: 2
Fore
SplineSet
0 128 m 1,0,-1
 1152 128 l 1,1,-1
 1152 -128 l 1,2,-1
 0 -128 l 1,3,-1
 0 128 l 1,0,-1
2944 128 m 1,4,-1
 4096 128 l 1,5,-1
 4096 -128 l 1,6,-1
 2944 -128 l 1,7,-1
 2944 128 l 1,4,-1
1920 128 m 1,8,-1
 2176 128 l 1,9,-1
 2176 -128 l 1,10,-1
 1920 -128 l 1,11,-1
 1920 128 l 1,8,-1
2432 128 m 1,12,-1
 2688 128 l 1,13,-1
 2688 -128 l 1,14,-1
 2432 -128 l 1,15,-1
 2432 128 l 1,12,-1
1408 128 m 1,16,-1
 1664 128 l 1,17,-1
 1664 -128 l 1,18,-1
 1408 -128 l 1,19,-1
 1408 128 l 1,16,-1
EndSplineSet
EndChar

StartChar: uF0018
Encoding: 983064 983064 29
Width: 4096
Flags: W
LayerCount: 2
Fore
SplineSet
1193 982 m 2,0,-1
 1195 982 l 2,1,2
 1248 982 1248 982 1285.5 944.5 c 128,-1,3
 1323 907 1323 907 1323 854 c 2,4,-1
 1323 852 l 1,5,-1
 1323 -726 l 1,6,-1
 2773 -726 l 1,7,-1
 2773 852 l 1,8,-1
 2773 854 l 2,9,10
 2773 907 2773 907 2810.5 944.5 c 128,-1,11
 2848 982 2848 982 2901 982 c 128,-1,12
 2954 982 2954 982 2991.5 944.5 c 128,-1,13
 3029 907 3029 907 3029 854 c 2,14,-1
 3029 852 l 1,15,-1
 3029 128 l 1,16,-1
 4096 128 l 1,17,-1
 4096 -128 l 1,18,-1
 3029 -128 l 1,19,-1
 3029 -854 l 2,20,21
 3029 -907 3029 -907 2991.5 -944.5 c 128,-1,22
 2954 -982 2954 -982 2901 -982 c 2,23,-1
 1195 -982 l 2,24,25
 1142 -982 1142 -982 1104.5 -944.5 c 128,-1,26
 1067 -907 1067 -907 1067 -854 c 2,27,-1
 1067 -128 l 1,28,-1
 0 -128 l 1,29,-1
 0 128 l 1,30,-1
 1067 128 l 1,31,-1
 1067 852 l 1,32,-1
 1067 854 l 2,33,34
 1067 907 1067 907 1104 944 c 128,-1,35
 1141 981 1141 981 1193 982 c 2,0,-1
EndSplineSet
EndChar

StartChar: uF0019
Encoding: 983065 983065 30
Width: 4096
Flags: W
LayerCount: 2
Fore
SplineSet
2048 1152 m 128,-1,1
 2338 1152 2338 1152 2590 1016.5 c 128,-1,2
 2842 881 2842 881 3001.5 646.5 c 128,-1,3
 3161 412 3161 412 3193 128 c 1,4,-1
 4096 128 l 1,5,-1
 4096 -128 l 1,6,-1
 3193 -128 l 1,7,8
 3161 -412 3161 -412 3001.5 -646.5 c 128,-1,9
 2842 -881 2842 -881 2590 -1016.5 c 128,-1,10
 2338 -1152 2338 -1152 2048 -1152 c 128,-1,11
 1758 -1152 1758 -1152 1506 -1016.5 c 128,-1,12
 1254 -881 1254 -881 1094.5 -646.5 c 128,-1,13
 935 -412 935 -412 903 -128 c 1,14,-1
 0 -128 l 1,15,-1
 0 128 l 1,16,-1
 903 128 l 1,17,18
 935 412 935 412 1094.5 646.5 c 128,-1,19
 1254 881 1254 881 1506 1016.5 c 128,-1,0
 1758 1152 1758 1152 2048 1152 c 128,-1,1
2048 896 m 128,-1,21
 1865 896 1865 896 1699 825 c 128,-1,22
 1533 754 1533 754 1413.5 634.5 c 128,-1,23
 1294 515 1294 515 1223 349 c 128,-1,24
 1152 183 1152 183 1152 0 c 128,-1,25
 1152 -183 1152 -183 1223 -349 c 128,-1,26
 1294 -515 1294 -515 1413.5 -634.5 c 128,-1,27
 1533 -754 1533 -754 1699 -825 c 128,-1,28
 1865 -896 1865 -896 2048 -896 c 128,-1,29
 2231 -896 2231 -896 2397 -825 c 128,-1,30
 2563 -754 2563 -754 2682.5 -634.5 c 128,-1,31
 2802 -515 2802 -515 2873 -349 c 128,-1,32
 2944 -183 2944 -183 2944 0 c 128,-1,33
 2944 183 2944 183 2873 349 c 128,-1,34
 2802 515 2802 515 2682.5 634.5 c 128,-1,35
 2563 754 2563 754 2397 825 c 128,-1,20
 2231 896 2231 896 2048 896 c 128,-1,21
EndSplineSet
EndChar

StartChar: uF001A
Encoding: 983066 983066 31
Width: 4096
Flags: W
LayerCount: 2
Fore
SplineSet
3437 1352 m 1,0,-1
 3323 928 l 1,1,-1
 3245 1005 l 1,2,-1
 2956 716 l 1,3,4
 3161 457 3161 457 3198 128 c 1,5,-1
 4096 128 l 1,6,-1
 4096 -128 l 1,7,-1
 3198 -128 l 1,8,9
 3174 -341 3174 -341 3074 -531.5 c 128,-1,10
 2974 -722 2974 -722 2822.5 -859.5 c 128,-1,11
 2671 -997 2671 -997 2469 -1077 c 128,-1,12
 2267 -1157 2267 -1157 2048 -1157 c 128,-1,13
 1829 -1157 1829 -1157 1627 -1077 c 128,-1,14
 1425 -997 1425 -997 1273.5 -859.5 c 128,-1,15
 1122 -722 1122 -722 1022 -531.5 c 128,-1,16
 922 -341 922 -341 898 -128 c 1,17,-1
 0 -128 l 1,18,-1
 0 128 l 1,19,-1
 898 128 l 1,20,21
 922 341 922 341 1022 531.5 c 128,-1,22
 1122 722 1122 722 1273.5 859.5 c 128,-1,23
 1425 997 1425 997 1627 1077 c 128,-1,24
 1829 1157 1829 1157 2048 1157 c 0,25,26
 2260 1157 2260 1157 2454.5 1083 c 128,-1,27
 2649 1009 2649 1009 2804 875 c 1,28,-1
 3090 1161 l 1,29,-1
 3012 1239 l 1,30,-1
 3437 1352 l 1,0,-1
2048 900 m 0,31,32
 1865 900 1865 900 1698 829 c 128,-1,33
 1531 758 1531 758 1410.5 637.5 c 128,-1,34
 1290 517 1290 517 1219 350 c 128,-1,35
 1148 183 1148 183 1148 0 c 128,-1,36
 1148 -183 1148 -183 1219 -350 c 128,-1,37
 1290 -517 1290 -517 1410.5 -637.5 c 128,-1,38
 1531 -758 1531 -758 1698 -829 c 128,-1,39
 1865 -900 1865 -900 2048 -900 c 128,-1,40
 2231 -900 2231 -900 2398 -829 c 128,-1,41
 2565 -758 2565 -758 2685.5 -637.5 c 128,-1,42
 2806 -517 2806 -517 2877 -350 c 128,-1,43
 2948 -183 2948 -183 2948 0 c 0,44,45
 2948 295 2948 295 2774 533 c 1,46,-1
 2140 -100 l 2,47,48
 2127 -113 2127 -113 2104.5 -122.5 c 128,-1,49
 2082 -132 2082 -132 2063 -132 c 0,50,51
 2017 -132 2017 -132 1984.5 -100 c 128,-1,52
 1952 -68 1952 -68 1952 -22 c 0,53,54
 1952 -4 1952 -4 1961.5 19 c 128,-1,55
 1971 42 1971 42 1984 56 c 2,56,-1
 2622 694 l 1,57,58
 2503 792 2503 792 2356 846 c 128,-1,59
 2209 900 2209 900 2048 900 c 0,31,32
EndSplineSet
EndChar

StartChar: uF001B
Encoding: 983067 983067 32
Width: 4096
Flags: W
LayerCount: 2
Fore
SplineSet
1218 868 m 1,0,-1
 1376 868 l 1,1,-1
 1672 128 l 1,2,-1
 1677 128 l 1,3,-1
 1965 868 l 1,4,-1
 2123 868 l 1,5,-1
 2419 128 l 1,6,-1
 2424 128 l 1,7,-1
 2712 868 l 1,8,-1
 2870 868 l 1,9,-1
 3166 128 l 1,10,-1
 4096 128 l 1,11,-1
 4096 -128 l 1,12,-1
 0 -128 l 1,13,-1
 0 128 l 1,14,-1
 930 128 l 1,15,-1
 1218 868 l 1,0,-1
1295 695 m 1,16,-1
 1195 421 l 1,17,-1
 1397 421 l 1,18,-1
 1295 695 l 1,16,-1
2042 695 m 1,19,-1
 1942 421 l 1,20,-1
 2144 421 l 1,21,-1
 2042 695 l 1,19,-1
2789 695 m 1,22,-1
 2689 421 l 1,23,-1
 2891 421 l 1,24,-1
 2789 695 l 1,22,-1
1149 296 m 1,25,-1
 1088 128 l 1,26,-1
 1510 128 l 1,27,-1
 1445 296 l 1,28,-1
 1149 296 l 1,25,-1
1896 296 m 1,29,-1
 1835 128 l 1,30,-1
 2257 128 l 1,31,-1
 2192 296 l 1,32,-1
 1896 296 l 1,29,-1
2643 296 m 1,33,-1
 2582 128 l 1,34,-1
 3004 128 l 1,35,-1
 2939 296 l 1,36,-1
 2643 296 l 1,33,-1
EndSplineSet
EndChar

StartChar: uF001C
Encoding: 983068 983068 33
Width: 4096
Flags: W
LayerCount: 2
Fore
SplineSet
0 -128 m 1,0,-1
 0 128 l 1,1,-1
 4096 128 l 1,2,-1
 4096 -128 l 1,3,-1
 0 -128 l 1,0,-1
2307 1494 m 2,4,5
 2347 1494 2347 1494 2378 1470 c 2,6,-1
 3232 873 l 2,7,8
 3254 857 3254 857 3270 826.5 c 128,-1,9
 3286 796 3286 796 3286 768 c 0,10,11
 3286 715 3286 715 3248.5 677.5 c 128,-1,12
 3211 640 3211 640 3158 640 c 2,13,-1
 940 640 l 1,14,-1
 938 640 l 2,15,16
 885 640 885 640 847.5 677.5 c 128,-1,17
 810 715 810 715 810 768 c 128,-1,18
 810 821 810 821 847.5 858.5 c 128,-1,19
 885 896 885 896 938 896 c 2,20,-1
 940 896 l 1,21,-1
 2752 896 l 1,22,-1
 2232 1260 l 2,23,24
 2208 1276 2208 1276 2191.5 1307 c 128,-1,25
 2175 1338 2175 1338 2175 1366 c 0,26,27
 2175 1419 2175 1419 2212.5 1456.5 c 128,-1,28
 2250 1494 2250 1494 2303 1494 c 2,29,-1
 2307 1494 l 2,4,5
EndSplineSet
EndChar

StartChar: uF001D
Encoding: 983069 983069 34
Width: 4096
Flags: W
LayerCount: 2
Fore
SplineSet
2606 3203 m 2,0,1
 2652 3201 2652 3201 2687 3170 c 2,2,-1
 3413 2530 l 2,3,4
 3431 2514 3431 2514 3443.5 2486 c 128,-1,5
 3456 2458 3456 2458 3456 2434 c 128,-1,6
 3456 2410 3456 2410 3443 2381.5 c 128,-1,7
 3430 2353 3430 2353 3412 2337 c 2,8,-1
 2686 1711 l 2,9,10
 2671 1697 2671 1697 2646 1687.5 c 128,-1,11
 2621 1678 2621 1678 2600 1678 c 0,12,13
 2547 1678 2547 1678 2509.5 1715.5 c 128,-1,14
 2472 1753 2472 1753 2472 1806 c 0,15,16
 2472 1831 2472 1831 2485.5 1860 c 128,-1,17
 2499 1889 2499 1889 2519 1905 c 2,18,-1
 2984 2306 l 1,19,-1
 896 2306 l 1,20,-1
 896 130 l 1,21,-1
 896 128 l 1,22,-1
 4096 128 l 1,23,-1
 4096 -128 l 1,24,-1
 0 -128 l 1,25,-1
 0 128 l 1,26,-1
 640 128 l 1,27,-1
 640 130 l 1,28,-1
 640 2434 l 2,29,30
 640 2487 640 2487 677.5 2524.5 c 128,-1,31
 715 2562 715 2562 768 2562 c 2,32,-1
 2989 2562 l 1,33,-1
 2518 2978 l 2,34,35
 2499 2994 2499 2994 2486 3022.5 c 128,-1,36
 2473 3051 2473 3051 2473 3075 c 0,37,38
 2473 3128 2473 3128 2510.5 3165.5 c 128,-1,39
 2548 3203 2548 3203 2601 3203 c 2,40,-1
 2606 3203 l 2,0,1
EndSplineSet
EndChar

StartChar: uF001E
Encoding: 983070 983070 35
Width: 4096
Flags: W
LayerCount: 2
Fore
SplineSet
2048 1835 m 128,-1,1
 2299 1835 2299 1835 2525 1743.5 c 128,-1,2
 2751 1652 2751 1652 2919 1475 c 0,3,4
 3094 1291 3094 1291 3189.5 1025 c 128,-1,5
 3285 759 3285 759 3285 427 c 2,6,-1
 3285 128 l 1,7,-1
 4096 128 l 1,8,-1
 4096 -128 l 1,9,-1
 3157 -128 l 1,10,-1
 939 -128 l 1,11,-1
 0 -128 l 1,12,-1
 0 128 l 1,13,-1
 811 128 l 1,14,-1
 811 427 l 2,15,16
 811 759 811 759 906 1025 c 128,-1,17
 1001 1291 1001 1291 1176 1475 c 0,18,19
 1345 1652 1345 1652 1571 1743.5 c 128,-1,0
 1797 1835 1797 1835 2048 1835 c 128,-1,1
2048 1579 m 128,-1,21
 1845 1579 1845 1579 1669 1508 c 128,-1,22
 1493 1437 1493 1437 1362 1298 c 0,23,24
 1067 988 1067 988 1067 427 c 2,25,-1
 1067 128 l 1,26,-1
 3029 128 l 1,27,-1
 3029 427 l 2,28,29
 3029 988 3029 988 2734 1298 c 0,30,31
 2603 1437 2603 1437 2427 1508 c 128,-1,20
 2251 1579 2251 1579 2048 1579 c 128,-1,21
EndSplineSet
EndChar

StartChar: uF001F
Encoding: 983071 983071 36
Width: 4096
Flags: W
LayerCount: 2
Fore
SplineSet
341 2517 m 2,0,-1
 3755 2517 l 2,1,2
 3808 2517 3808 2517 3845.5 2479.5 c 128,-1,3
 3883 2442 3883 2442 3883 2389 c 2,4,-1
 3883 256 l 2,5,6
 3883 203 3883 203 3845.5 165.5 c 128,-1,7
 3808 128 3808 128 3755 128 c 2,8,-1
 4096 128 l 1,9,-1
 4096 -128 l 1,10,-1
 0 -128 l 1,11,-1
 0 128 l 1,12,-1
 341 128 l 2,13,14
 288 128 288 128 250.5 165.5 c 128,-1,15
 213 203 213 203 213 256 c 2,16,-1
 213 2389 l 2,17,18
 213 2442 213 2442 250.5 2479.5 c 128,-1,19
 288 2517 288 2517 341 2517 c 2,0,-1
469 2261 m 1,20,-1
 469 384 l 1,21,-1
 3627 384 l 1,22,-1
 3627 2261 l 1,23,-1
 469 2261 l 1,20,-1
1751 1793 m 0,24,25
 1751 1771 1751 1771 1739.5 1744 c 128,-1,26
 1728 1717 1728 1717 1712 1701 c 2,27,-1
 1376 1365 l 1,28,-1
 1712 1029 l 2,29,30
 1728 1013 1728 1013 1739 986.5 c 128,-1,31
 1750 960 1750 960 1750 938 c 0,32,33
 1750 886 1750 886 1712 848 c 128,-1,34
 1674 810 1674 810 1622 810 c 0,35,36
 1600 810 1600 810 1573.5 821 c 128,-1,37
 1547 832 1547 832 1531 848 c 2,38,-1
 1195 1184 l 1,39,-1
 859 848 l 2,40,41
 843 832 843 832 816.5 821.5 c 128,-1,42
 790 811 790 811 768 811 c 0,43,44
 715 811 715 811 677.5 848.5 c 128,-1,45
 640 886 640 886 640 939 c 0,46,47
 640 961 640 961 651 987 c 128,-1,48
 662 1013 662 1013 678 1029 c 2,49,-1
 1014 1365 l 1,50,-1
 678 1701 l 2,51,52
 662 1717 662 1717 650.5 1743.5 c 128,-1,53
 639 1770 639 1770 639 1793 c 0,54,55
 639 1846 639 1846 676.5 1883.5 c 128,-1,56
 714 1921 714 1921 767 1921 c 0,57,58
 790 1921 790 1921 816.5 1909.5 c 128,-1,59
 843 1898 843 1898 859 1882 c 2,60,-1
 1195 1546 l 1,61,-1
 1531 1882 l 2,62,63
 1559 1911 1559 1911 1598 1917.5 c 128,-1,64
 1637 1924 1637 1924 1670.5 1911 c 128,-1,65
 1704 1898 1704 1898 1727.5 1866 c 128,-1,66
 1751 1834 1751 1834 1751 1793 c 0,24,25
1963 896 m 1,67,-1
 3328 896 l 1,68,-1
 3330 896 l 2,69,70
 3383 896 3383 896 3420.5 858.5 c 128,-1,71
 3458 821 3458 821 3458 768 c 128,-1,72
 3458 715 3458 715 3420.5 677.5 c 128,-1,73
 3383 640 3383 640 3330 640 c 2,74,-1
 3328 640 l 1,75,-1
 1963 640 l 1,76,-1
 1961 640 l 2,77,78
 1908 640 1908 640 1870.5 677.5 c 128,-1,79
 1833 715 1833 715 1833 768 c 128,-1,80
 1833 821 1833 821 1870.5 858.5 c 128,-1,81
 1908 896 1908 896 1961 896 c 2,82,-1
 1963 896 l 1,67,-1
EndSplineSet
EndChar

StartChar: uF0020
Encoding: 983072 983072 37
Width: 4096
Flags: W
LayerCount: 2
Fore
SplineSet
1252 968 m 2,0,-1
 2932 128 l 1,1,-1
 4096 128 l 1,2,-1
 4096 -128 l 1,3,-1
 2932 -128 l 1,4,-1
 1252 -968 l 2,5,6
 1224 -981 1224 -981 1195 -981 c 0,7,8
 1141 -981 1141 -981 1104 -943.5 c 128,-1,9
 1067 -906 1067 -906 1067 -852 c 2,10,-1
 1067 -128 l 1,11,-1
 0 -128 l 1,12,-1
 0 128 l 1,13,-1
 1067 128 l 1,14,-1
 1067 853 l 2,15,16
 1067 922 1067 922 1126 960.5 c 128,-1,17
 1185 999 1185 999 1252 968 c 2,0,-1
1323 646 m 1,18,-1
 1323 -646 l 1,19,-1
 2615 0 l 1,20,-1
 1323 646 l 1,18,-1
EndSplineSet
EndChar

StartChar: uF0021
Encoding: 983073 983073 38
Width: 4096
Flags: W
LayerCount: 2
Fore
SplineSet
768 2391 m 1,0,-1
 3328 2391 l 1,1,-1
 3330 2391 l 2,2,3
 3383 2391 3383 2391 3420.5 2353.5 c 128,-1,4
 3458 2316 3458 2316 3458 2263 c 128,-1,5
 3458 2210 3458 2210 3420.5 2172.5 c 128,-1,6
 3383 2135 3383 2135 3330 2135 c 2,7,-1
 3328 2135 l 1,8,-1
 2176 2135 l 1,9,-1
 2176 130 l 1,10,-1
 2176 128 l 1,11,-1
 4096 128 l 1,12,-1
 4096 -128 l 1,13,-1
 0 -128 l 1,14,-1
 0 128 l 1,15,-1
 1920 128 l 1,16,-1
 1920 130 l 1,17,-1
 1920 2135 l 1,18,-1
 768 2135 l 1,19,-1
 766 2135 l 2,20,21
 713 2135 713 2135 675.5 2172.5 c 128,-1,22
 638 2210 638 2210 638 2263 c 128,-1,23
 638 2316 638 2316 675.5 2353.5 c 128,-1,24
 713 2391 713 2391 766 2391 c 2,25,-1
 768 2391 l 1,0,-1
EndSplineSet
EndChar

StartChar: uF0022
Encoding: 983074 983074 39
Width: 4096
Flags: W
LayerCount: 2
Fore
SplineSet
0 128 m 1,0,-1
 4096 128 l 1,1,-1
 4096 -128 l 1,2,-1
 0 -128 l 1,3,-1
 0 128 l 1,0,-1
2048 2549 m 1,4,5
 2249 2347 2249 2347 2652 1944 c 128,-1,6
 3055 1541 3055 1541 3257 1339 c 1,7,-1
 2048 130 l 1,8,-1
 839 1339 l 1,9,10
 1041 1541 1041 1541 1444 1944 c 128,-1,11
 1847 2347 1847 2347 2048 2549 c 1,4,5
2048 2341 m 1,12,13
 1380 1673 1380 1673 1047 1339 c 1,14,-1
 2048 338 l 1,15,-1
 3049 1339 l 1,16,17
 2716 1673 2716 1673 2048 2341 c 1,12,13
2029 2021 m 2,18,19
 2084 2021 2084 2021 2136 2012 c 0,20,21
 2246 1996 2246 1996 2336 1926.5 c 128,-1,22
 2426 1857 2426 1857 2457 1754 c 0,23,24
 2469 1715 2469 1715 2469 1674 c 0,25,26
 2469 1561 2469 1561 2393 1480 c 0,27,28
 2357 1437 2357 1437 2279 1370 c 128,-1,29
 2201 1303 2201 1303 2172 1273 c 0,30,31
 2165 1267 2165 1267 2159.5 1259 c 128,-1,32
 2154 1251 2154 1251 2150 1244 c 128,-1,33
 2146 1237 2146 1237 2142.5 1227 c 128,-1,34
 2139 1217 2139 1217 2137 1211 c 128,-1,35
 2135 1205 2135 1205 2133.5 1192.5 c 128,-1,36
 2132 1180 2132 1180 2131.5 1174.5 c 128,-1,37
 2131 1169 2131 1169 2130.5 1155.5 c 128,-1,38
 2130 1142 2130 1142 2130 1138 c 128,-1,39
 2130 1134 2130 1134 2130 1119 c 128,-1,40
 2130 1104 2130 1104 2130 1101 c 2,41,-1
 1917 1101 l 1,42,43
 1913 1240 1913 1240 1943 1310 c 0,44,45
 1965 1359 1965 1359 2002.5 1400 c 128,-1,46
 2040 1441 2040 1441 2100.5 1489.5 c 128,-1,47
 2161 1538 2161 1538 2183 1559 c 0,48,49
 2227 1593 2227 1593 2238 1650 c 128,-1,50
 2249 1707 2249 1707 2219 1754 c 0,51,52
 2164 1843 2164 1843 2040 1843 c 0,53,54
 1999 1843 1999 1843 1957 1830 c 0,55,56
 1897 1811 1897 1811 1858.5 1757.5 c 128,-1,57
 1820 1704 1820 1704 1807 1636 c 1,58,59
 1736 1645 1736 1645 1592 1663 c 1,60,61
 1598 1784 1598 1784 1679 1876 c 0,62,63
 1738 1948 1738 1948 1829 1984.5 c 128,-1,64
 1920 2021 1920 2021 2021 2021 c 2,65,-1
 2029 2021 l 2,18,19
1917 1021 m 1,66,-1
 2151 1021 l 1,67,-1
 2151 786 l 1,68,-1
 1917 786 l 1,69,-1
 1917 1021 l 1,66,-1
EndSplineSet
EndChar

StartChar: uF0023
Encoding: 983075 983075 40
Width: 4096
Flags: W
LayerCount: 2
Fore
SplineSet
321 2021 m 2,0,-1
 3767 2021 l 2,1,2
 3802 2021 3802 2021 3827.5 1996 c 128,-1,3
 3853 1971 3853 1971 3853 1936 c 2,4,-1
 3853 652 l 2,5,6
 3853 637 3853 637 3857 591.5 c 128,-1,7
 3861 546 3861 546 3861 517 c 0,8,9
 3861 402 3861 402 3804 320 c 0,10,11
 3739 226 3739 226 3595 178.5 c 128,-1,12
 3451 131 3451 131 3198 128 c 2,13,-1
 4096 128 l 1,14,-1
 4096 -128 l 1,15,-1
 0 -128 l 1,16,-1
 0 128 l 1,17,-1
 1068 128 l 2,18,19
 788 130 788 130 633 153.5 c 128,-1,20
 478 177 478 177 384 239 c 0,21,22
 284 304 284 304 254 426 c 0,23,24
 236 497 236 497 236 652 c 2,25,-1
 236 1936 l 2,26,27
 236 1971 236 1971 261 1996 c 128,-1,28
 286 2021 286 2021 321 2021 c 2,0,-1
406 1850 m 1,29,-1
 406 653 l 2,30,31
 406 521 406 521 419 468 c 0,32,33
 428 435 428 435 440 417 c 128,-1,34
 452 399 452 399 478 382 c 0,35,36
 602 299 602 299 1120 299 c 2,37,-1
 1151 299 l 2,38,39
 1179 299 1179 299 1273.5 299.5 c 128,-1,40
 1368 300 1368 300 1433 300 c 0,41,42
 1548 300 1548 300 1860 299.5 c 128,-1,43
 2172 299 2172 299 2344 299 c 0,44,45
 2899 299 2899 299 3196 302 c 0,46,47
 3587 308 3587 308 3664 417 c 0,48,49
 3676 434 3676 434 3681 461 c 128,-1,50
 3686 488 3686 488 3685.5 510.5 c 128,-1,51
 3685 533 3685 533 3683.5 578.5 c 128,-1,52
 3682 624 3682 624 3682 652 c 2,53,-1
 3682 1850 l 1,54,-1
 406 1850 l 1,29,-1
EndSplineSet
EndChar

StartChar: uF0024
Encoding: 983076 983076 41
Width: 4096
Flags: W
LayerCount: 2
Fore
SplineSet
2048 2987 m 128,-1,1
 2244 2987 2244 2987 2411 2889.5 c 128,-1,2
 2578 2792 2578 2792 2675.5 2625 c 128,-1,3
 2773 2458 2773 2458 2773 2262 c 0,4,5
 2773 2086 2773 2086 2693 1931.5 c 128,-1,6
 2613 1777 2613 1777 2474 1676.5 c 128,-1,7
 2335 1576 2335 1576 2165 1548 c 1,8,9
 2176 1522 2176 1522 2176 1496 c 2,10,-1
 2176 1495 l 1,11,-1
 2176 130 l 1,12,-1
 2176 128 l 1,13,-1
 4096 128 l 1,14,-1
 4096 -128 l 1,15,-1
 0 -128 l 1,16,-1
 0 128 l 1,17,-1
 1920 128 l 1,18,-1
 1920 130 l 1,19,-1
 1920 1495 l 1,20,-1
 1920 1496 l 2,21,22
 1920 1522 1920 1522 1931 1548 c 1,23,24
 1761 1576 1761 1576 1622 1676.5 c 128,-1,25
 1483 1777 1483 1777 1403 1931.5 c 128,-1,26
 1323 2086 1323 2086 1323 2262 c 0,27,28
 1323 2458 1323 2458 1420.5 2625 c 128,-1,29
 1518 2792 1518 2792 1685 2889.5 c 128,-1,0
 1852 2987 1852 2987 2048 2987 c 128,-1,1
2048 2731 m 128,-1,31
 1920 2731 1920 2731 1812 2668.5 c 128,-1,32
 1704 2606 1704 2606 1641.5 2498 c 128,-1,33
 1579 2390 1579 2390 1579 2262 c 128,-1,34
 1579 2134 1579 2134 1641.5 2026 c 128,-1,35
 1704 1918 1704 1918 1812 1855.5 c 128,-1,36
 1920 1793 1920 1793 2048 1793 c 128,-1,37
 2176 1793 2176 1793 2284 1855.5 c 128,-1,38
 2392 1918 2392 1918 2454.5 2026 c 128,-1,39
 2517 2134 2517 2134 2517 2262 c 128,-1,40
 2517 2390 2517 2390 2454.5 2498 c 128,-1,41
 2392 2606 2392 2606 2284 2668.5 c 128,-1,30
 2176 2731 2176 2731 2048 2731 c 128,-1,31
EndSplineSet
EndChar

StartChar: uF0025
Encoding: 983077 983077 42
Width: 4096
Flags: W
LayerCount: 2
Fore
SplineSet
2048 3044 m 128,-1,1
 2244 3044 2244 3044 2411 2946.5 c 128,-1,2
 2578 2849 2578 2849 2675.5 2682 c 128,-1,3
 2773 2515 2773 2515 2773 2318 c 0,4,5
 2773 2052 2773 2052 2599 1849.5 c 128,-1,6
 2425 1647 2425 1647 2166 1604 c 1,7,8
 2157 1572 2157 1572 2133 1548 c 0,9,10
 2064 1479 2064 1479 2069 1455 c 0,11,12
 2073 1439 2073 1439 2139 1370 c 0,13,14
 2168 1341 2168 1341 2179.5 1328 c 128,-1,15
 2191 1315 2191 1315 2215.5 1283 c 128,-1,16
 2240 1251 2240 1251 2254 1217 c 128,-1,17
 2268 1183 2268 1183 2274 1144 c 0,18,19
 2278 1124 2278 1124 2278 1098 c 0,20,21
 2278 965 2278 965 2155 817 c 0,22,23
 2140 799 2140 799 2137 796 c 0,24,25
 2069 728 2069 728 2074 703 c 0,26,27
 2079 685 2079 685 2144 618 c 0,28,29
 2209 550 2209 550 2234 511 c 0,30,31
 2268 454 2268 454 2279 392 c 0,32,33
 2283 362 2283 362 2283 347 c 0,34,35
 2283 243 2283 243 2207 128 c 1,36,-1
 4096 128 l 1,37,-1
 4096 -128 l 1,38,-1
 0 -128 l 1,39,-1
 0 128 l 1,40,-1
 1917 128 l 1,41,42
 1917 149 1917 149 1927.5 174.5 c 128,-1,43
 1938 200 1938 200 1952 216 c 0,44,45
 2035 308 2035 308 2026 350 c 0,46,47
 2022 375 2022 375 1960 440 c 0,48,49
 1958 442 1958 442 1937 462.5 c 128,-1,50
 1916 483 1916 483 1909 491 c 128,-1,51
 1902 499 1902 499 1885 520.5 c 128,-1,52
 1868 542 1868 542 1859 558 c 128,-1,53
 1850 574 1850 574 1840 598.5 c 128,-1,54
 1830 623 1830 623 1824 649 c 0,55,56
 1818 674 1818 674 1818 700 c 0,57,58
 1818 829 1818 829 1939 958 c 0,59,60
 1940 960 1940 960 1943 963 c 128,-1,61
 1946 966 1946 966 1947 968 c 0,62,63
 2028 1058 2028 1058 2022 1102 c 0,64,65
 2016 1128 2016 1128 1955 1192 c 0,66,67
 1951 1196 1951 1196 1932.5 1215 c 128,-1,68
 1914 1234 1914 1234 1905.5 1243 c 128,-1,69
 1897 1252 1897 1252 1880.5 1272.5 c 128,-1,70
 1864 1293 1864 1293 1854.5 1309.5 c 128,-1,71
 1845 1326 1845 1326 1835 1350.5 c 128,-1,72
 1825 1375 1825 1375 1819 1401 c 0,73,74
 1797 1504 1797 1504 1864 1618 c 1,75,76
 1629 1680 1629 1680 1476 1875 c 128,-1,77
 1323 2070 1323 2070 1323 2318 c 0,78,79
 1323 2515 1323 2515 1420.5 2682 c 128,-1,80
 1518 2849 1518 2849 1685 2946.5 c 128,-1,0
 1852 3044 1852 3044 2048 3044 c 128,-1,1
2048 2788 m 128,-1,82
 1920 2788 1920 2788 1812 2725.5 c 128,-1,83
 1704 2663 1704 2663 1641.5 2554.5 c 128,-1,84
 1579 2446 1579 2446 1579 2318 c 128,-1,85
 1579 2190 1579 2190 1641.5 2082 c 128,-1,86
 1704 1974 1704 1974 1812 1911.5 c 128,-1,87
 1920 1849 1920 1849 2048 1849 c 128,-1,88
 2176 1849 2176 1849 2284 1911.5 c 128,-1,89
 2392 1974 2392 1974 2454.5 2082 c 128,-1,90
 2517 2190 2517 2190 2517 2318 c 128,-1,91
 2517 2446 2517 2446 2454.5 2554.5 c 128,-1,92
 2392 2663 2392 2663 2284 2725.5 c 128,-1,81
 2176 2788 2176 2788 2048 2788 c 128,-1,82
EndSplineSet
EndChar

StartChar: uF0026
Encoding: 983078 983078 43
Width: 4096
Flags: W
LayerCount: 2
Fore
SplineSet
2048 3075 m 128,-1,1
 2244 3075 2244 3075 2411 2977.5 c 128,-1,2
 2578 2880 2578 2880 2675.5 2713 c 128,-1,3
 2773 2546 2773 2546 2773 2350 c 0,4,5
 2773 2190 2773 2190 2706.5 2048 c 128,-1,6
 2640 1906 2640 1906 2523 1804 c 1,7,8
 2596 1748 2596 1748 2637.5 1669 c 128,-1,9
 2679 1590 2679 1590 2680 1504 c 0,10,11
 2680 1362 2680 1362 2545 1232 c 1,12,13
 2666 1108 2666 1108 2666 975 c 2,14,-1
 2666 967 l 2,15,16
 2663 830 2663 830 2534 697 c 1,17,18
 2662 574 2662 574 2662 439 c 2,19,-1
 2662 436 l 2,20,21
 2661 350 2661 350 2621 269 c 128,-1,22
 2581 188 2581 188 2508 128 c 1,23,-1
 4096 128 l 1,24,-1
 4096 -128 l 1,25,-1
 0 -128 l 1,26,-1
 0 128 l 1,27,-1
 1821 128 l 1,28,29
 1820 132 1820 132 1820 143 c 0,30,31
 1820 196 1820 196 1857.5 233.5 c 128,-1,32
 1895 271 1895 271 1948 271 c 0,33,34
 1952 271 1952 271 1973 268 c 0,35,36
 2046 256 2046 256 2105 256 c 0,37,38
 2239 256 2239 256 2320 307 c 0,39,40
 2406 360 2406 360 2406 438 c 0,41,42
 2408 508 2408 508 2332 548 c 0,43,44
 2326 551 2326 551 2308.5 554.5 c 128,-1,45
 2291 558 2291 558 2287 559 c 0,46,47
 2184 534 2184 534 2089 534 c 0,48,49
 2008 534 2008 534 1933 549 c 0,50,51
 1890 557 1890 557 1860 593.5 c 128,-1,52
 1830 630 1830 630 1830 674 c 0,53,54
 1830 715 1830 715 1857.5 751.5 c 128,-1,55
 1885 788 1885 788 1924 798 c 0,56,57
 2040 829 2040 829 2151 829 c 0,58,59
 2216 829 2216 829 2274 820 c 0,60,61
 2280 822 2280 822 2297 827 c 128,-1,62
 2314 832 2314 832 2321 836 c 0,63,64
 2408 890 2408 890 2410 974 c 0,65,66
 2412 1048 2412 1048 2338 1089 c 0,67,68
 2332 1092 2332 1092 2314.5 1095.5 c 128,-1,69
 2297 1099 2297 1099 2292 1100 c 0,70,71
 2190 1077 2190 1077 2092 1077 c 0,72,73
 2023 1077 2023 1077 1945 1089 c 0,74,75
 1900 1096 1900 1096 1868.5 1133 c 128,-1,76
 1837 1170 1837 1170 1837 1215 c 0,77,78
 1837 1255 1837 1255 1864.5 1291.5 c 128,-1,79
 1892 1328 1892 1328 1931 1339 c 0,80,81
 2045 1371 2045 1371 2157 1371 c 0,82,83
 2215 1371 2215 1371 2282 1361 c 0,84,85
 2287 1363 2287 1363 2310 1369.5 c 128,-1,86
 2333 1376 2333 1376 2341 1381 c 0,87,88
 2424 1430 2424 1430 2424 1503 c 0,89,90
 2422 1573 2422 1573 2344 1617 c 0,91,92
 2300 1640 2300 1640 2234 1650 c 1,93,94
 2140 1625 2140 1625 2048 1625 c 0,95,96
 1852 1625 1852 1625 1685 1722.5 c 128,-1,97
 1518 1820 1518 1820 1420.5 1987 c 128,-1,98
 1323 2154 1323 2154 1323 2350 c 128,-1,99
 1323 2546 1323 2546 1420.5 2713 c 128,-1,100
 1518 2880 1518 2880 1685 2977.5 c 128,-1,0
 1852 3075 1852 3075 2048 3075 c 128,-1,1
2048 2819 m 128,-1,102
 1920 2819 1920 2819 1812 2756.5 c 128,-1,103
 1704 2694 1704 2694 1641.5 2586 c 128,-1,104
 1579 2478 1579 2478 1579 2350 c 0,105,106
 1579 2179 1579 2179 1687 2049.5 c 128,-1,107
 1795 1920 1795 1920 1960 1889 c 1,108,109
 2089 1916 2089 1916 2211 1910 c 1,110,111
 2347 1960 2347 1960 2432 2080 c 128,-1,112
 2517 2200 2517 2200 2517 2350 c 0,113,114
 2517 2478 2517 2478 2454.5 2586 c 128,-1,115
 2392 2694 2392 2694 2284 2756.5 c 128,-1,101
 2176 2819 2176 2819 2048 2819 c 128,-1,102
EndSplineSet
EndChar

StartChar: uF0027
Encoding: 983079 983079 44
Width: 4096
Flags: W
LayerCount: 2
Fore
SplineSet
2176 2175 m 2,0,-1
 2176 130 l 1,1,-1
 2176 128 l 1,2,-1
 4096 128 l 1,3,-1
 4096 -128 l 1,4,-1
 0 -128 l 1,5,-1
 0 128 l 1,6,-1
 1920 128 l 1,7,-1
 1920 130 l 1,8,-1
 1920 2175 l 2,9,10
 1920 2222 1920 2222 1946.5 2254.5 c 128,-1,11
 1973 2287 1973 2287 2010.5 2294.5 c 128,-1,12
 2048 2302 2048 2302 2085.5 2294.5 c 128,-1,13
 2123 2287 2123 2287 2149.5 2254.5 c 128,-1,14
 2176 2222 2176 2222 2176 2175 c 2,0,-1
EndSplineSet
EndChar

StartChar: uF0028
Encoding: 983080 983080 45
Width: 4096
Flags: W
LayerCount: 2
Fore
SplineSet
2049 2525 m 2,0,-1
 2053 2525 l 2,1,2
 2106 2525 2106 2525 2143.5 2487.5 c 128,-1,3
 2181 2450 2181 2450 2181 2397 c 0,4,5
 2181 2375 2181 2375 2169.5 2348.5 c 128,-1,6
 2158 2322 2158 2322 2142 2306 c 0,7,8
 2072 2236 2072 2236 2078 2213 c 0,9,10
 2079 2211 2079 2211 2086 2200.5 c 128,-1,11
 2093 2190 2093 2190 2110 2169.5 c 128,-1,12
 2127 2149 2127 2149 2148 2127 c 0,13,14
 2214 2060 2214 2060 2239 2020 c 0,15,16
 2273 1964 2273 1964 2283 1902 c 0,17,18
 2287 1882 2287 1882 2287 1855 c 0,19,20
 2287 1712 2287 1712 2146 1554 c 0,21,22
 2128 1532 2128 1532 2104 1522 c 1,23,24
 2060 1473 2060 1473 2065 1455 c 128,-1,25
 2070 1437 2070 1437 2135 1370 c 0,26,27
 2136 1369 2136 1369 2150.5 1353.5 c 128,-1,28
 2165 1338 2165 1338 2168.5 1334 c 128,-1,29
 2172 1330 2172 1330 2185.5 1315 c 128,-1,30
 2199 1300 2199 1300 2204.5 1292 c 128,-1,31
 2210 1284 2210 1284 2221 1268.5 c 128,-1,32
 2232 1253 2232 1253 2237.5 1240.5 c 128,-1,33
 2243 1228 2243 1228 2250.5 1212 c 128,-1,34
 2258 1196 2258 1196 2262.5 1179 c 128,-1,35
 2267 1162 2267 1162 2270 1144 c 0,36,37
 2274 1114 2274 1114 2274 1099 c 0,38,39
 2274 960 2274 960 2124 787 c 1,40,41
 2064 725 2064 725 2069 703 c 0,42,43
 2073 687 2073 687 2139 618 c 0,44,45
 2168 589 2168 589 2179.5 576 c 128,-1,46
 2191 563 2191 563 2215.5 531 c 128,-1,47
 2240 499 2240 499 2254 465 c 128,-1,48
 2268 431 2268 431 2274 392 c 0,49,50
 2278 372 2278 372 2278 346 c 0,51,52
 2278 241 2278 241 2203 128 c 1,53,-1
 4096 128 l 1,54,-1
 4096 -128 l 1,55,-1
 0 -128 l 1,56,-1
 0 128 l 1,57,-1
 1913 128 l 1,58,59
 1913 149 1913 149 1923 174.5 c 128,-1,60
 1933 200 1933 200 1947 216 c 0,61,62
 2028 306 2028 306 2022 350 c 0,63,64
 2016 376 2016 376 1955 439 c 0,65,66
 1951 443 1951 443 1932 462.5 c 128,-1,67
 1913 482 1913 482 1904.5 491 c 128,-1,68
 1896 500 1896 500 1879.5 520.5 c 128,-1,69
 1863 541 1863 541 1854 557.5 c 128,-1,70
 1845 574 1845 574 1835 598.5 c 128,-1,71
 1825 623 1825 623 1819 649 c 0,72,73
 1814 670 1814 670 1814 700 c 0,74,75
 1814 830 1814 830 1940 964 c 1,76,-1
 1940 965 l 1,77,-1
 1941 966 l 1,78,-1
 1943 968 l 1,79,80
 2026 1060 2026 1060 2017 1102 c 0,81,82
 2013 1127 2013 1127 1951 1191 c 0,83,84
 1947 1195 1947 1195 1928 1214.5 c 128,-1,85
 1909 1234 1909 1234 1900.5 1243 c 128,-1,86
 1892 1252 1892 1252 1875.5 1272.5 c 128,-1,87
 1859 1293 1859 1293 1850 1309.5 c 128,-1,88
 1841 1326 1841 1326 1831 1350.5 c 128,-1,89
 1821 1375 1821 1375 1815 1401 c 0,90,91
 1809 1426 1809 1426 1809 1454 c 0,92,93
 1809 1591 1809 1591 1947 1729 c 0,94,95
 1957 1739 1957 1739 1978 1753 c 1,96,97
 2037 1825 2037 1825 2031 1859 c 0,98,99
 2026 1885 2026 1885 1965 1949 c 0,100,101
 1961 1953 1961 1953 1941.5 1972 c 128,-1,102
 1922 1991 1922 1991 1914 2000 c 128,-1,103
 1906 2009 1906 2009 1889 2029.5 c 128,-1,104
 1872 2050 1872 2050 1863 2066.5 c 128,-1,105
 1854 2083 1854 2083 1844 2107.5 c 128,-1,106
 1834 2132 1834 2132 1828 2158 c 0,107,108
 1823 2179 1823 2179 1823 2209 c 0,109,110
 1823 2349 1823 2349 1961 2487 c 0,111,112
 1976 2502 1976 2502 2002 2513.5 c 128,-1,113
 2028 2525 2028 2525 2049 2525 c 2,0,-1
EndSplineSet
EndChar

StartChar: uF0029
Encoding: 983081 983081 46
Width: 4096
Flags: W
LayerCount: 2
Fore
SplineSet
1991 2453 m 0,0,1
 2005 2453 2005 2453 2033 2451 c 1,2,-1
 2033 2452 l 1,3,4
 2163 2445 2163 2445 2267 2389 c 0,5,6
 2363 2336 2363 2336 2417.5 2244 c 128,-1,7
 2472 2152 2472 2152 2472 2051 c 2,8,-1
 2472 2043 l 1,9,10
 2468 1910 2468 1910 2347 1781 c 1,11,12
 2408 1725 2408 1725 2442 1653 c 128,-1,13
 2476 1581 2476 1581 2476 1504 c 0,14,15
 2477 1395 2477 1395 2391 1287 c 0,16,17
 2370 1257 2370 1257 2343 1230 c 1,18,19
 2463 1107 2463 1107 2463 973 c 2,20,-1
 2463 967 l 1,21,22
 2459 829 2459 829 2331 698 c 1,23,24
 2459 572 2459 572 2459 439 c 2,25,-1
 2459 436 l 2,26,27
 2458 350 2458 350 2418 269 c 128,-1,28
 2378 188 2378 188 2305 128 c 1,29,-1
 4096 128 l 1,30,-1
 4096 -128 l 1,31,-1
 0 -128 l 1,32,-1
 0 128 l 1,33,-1
 1621 128 l 1,34,35
 1620 132 1620 132 1620 142 c 0,36,37
 1620 195 1620 195 1657.5 232.5 c 128,-1,38
 1695 270 1695 270 1748 270 c 0,39,40
 1758 270 1758 270 1770 268 c 0,41,42
 1844 256 1844 256 1902 256 c 0,43,44
 2035 256 2035 256 2116 307 c 0,45,46
 2203 361 2203 361 2203 438 c 0,47,48
 2203 508 2203 508 2129 548 c 0,49,50
 2123 551 2123 551 2105.5 554.5 c 128,-1,51
 2088 558 2088 558 2083 559 c 0,52,53
 1980 534 1980 534 1885 534 c 0,54,55
 1805 534 1805 534 1730 549 c 0,56,57
 1687 557 1687 557 1656.5 594 c 128,-1,58
 1626 631 1626 631 1626 675 c 0,59,60
 1626 716 1626 716 1653.5 752 c 128,-1,61
 1681 788 1681 788 1720 798 c 0,62,63
 1837 829 1837 829 1948 829 c 0,64,65
 2012 829 2012 829 2071 820 c 0,66,67
 2076 822 2076 822 2093.5 827 c 128,-1,68
 2111 832 2111 832 2117 836 c 0,69,70
 2205 890 2205 890 2207 974 c 0,71,72
 2209 1048 2209 1048 2135 1089 c 0,73,74
 2134 1089 2134 1089 2097 1098 c 1,75,76
 1987 1071 1987 1071 1854 1078 c 0,77,78
 1843 1079 1843 1079 1819 1081 c 0,79,80
 1812 1081 1812 1081 1808 1082 c 0,81,82
 1751 1087 1751 1087 1742 1089 c 0,83,84
 1730 1090 1730 1090 1713 1097 c 0,85,86
 1677 1109 1677 1109 1651.5 1144.5 c 128,-1,87
 1626 1180 1626 1180 1626 1218 c 0,88,89
 1626 1271 1626 1271 1663.5 1308.5 c 128,-1,90
 1701 1346 1701 1346 1754 1346 c 2,91,-1
 1761 1346 l 1,92,93
 1861 1370 1861 1370 1959 1370 c 0,94,95
 2021 1370 2021 1370 2078 1361 c 0,96,97
 2079 1362 2079 1362 2081 1362 c 0,98,99
 2119 1378 2119 1378 2126 1383 c 0,100,101
 2212 1437 2212 1437 2212 1514 c 0,102,103
 2212 1541 2212 1541 2200 1565 c 0,104,105
 2180 1595 2180 1595 2141 1617 c 0,106,107
 2132 1622 2132 1622 2101 1633 c 0,108,109
 2099 1634 2099 1634 2096 1634 c 128,-1,110
 2093 1634 2093 1634 2092 1635 c 0,111,112
 1989 1610 1989 1610 1894 1610 c 0,113,114
 1814 1610 1814 1610 1739 1625 c 0,115,116
 1696 1633 1696 1633 1666 1669.5 c 128,-1,117
 1636 1706 1636 1706 1636 1750 c 0,118,119
 1636 1774 1636 1774 1648.5 1802 c 128,-1,120
 1661 1830 1661 1830 1678 1846 c 0,121,122
 1706 1878 1706 1878 1748 1887 c 0,123,124
 1858 1912 1858 1912 1961 1912 c 0,125,126
 2005 1912 2005 1912 2037 1908 c 0,127,128
 2073 1904 2073 1904 2093 1900 c 1,129,130
 2123 1910 2123 1910 2126 1912 c 0,131,132
 2214 1966 2214 1966 2216 2050 c 0,133,134
 2218 2124 2218 2124 2144 2164 c 0,135,136
 2087 2196 2087 2196 1994 2196 c 0,137,138
 1909 2196 1909 2196 1805 2168 c 0,139,140
 1788 2163 1788 2163 1769 2163 c 0,141,142
 1716 2163 1716 2163 1678.5 2200.5 c 128,-1,143
 1641 2238 1641 2238 1641 2291 c 0,144,145
 1641 2332 1641 2332 1669 2368.5 c 128,-1,146
 1697 2405 1697 2405 1737 2415 c 0,147,148
 1856 2447 1856 2447 1965 2452 c 0,149,150
 1969 2452 1969 2452 1977.5 2452.5 c 128,-1,151
 1986 2453 1986 2453 1991 2453 c 0,0,1
EndSplineSet
EndChar

StartChar: uF002A
Encoding: 983082 983082 47
Width: 4096
Flags: W
LayerCount: 2
Fore
SplineSet
2728 3160 m 0,0,1
 2729 3161 2729 3161 2732 3161 c 0,2,3
 2785 3161 2785 3161 2822.5 3123.5 c 128,-1,4
 2860 3086 2860 3086 2860 3033 c 0,5,6
 2860 3010 2860 3010 2848.5 2983 c 128,-1,7
 2837 2956 2837 2956 2821 2941 c 2,8,-1
 2229 2348 l 1,9,-1
 2821 1756 l 2,10,11
 2838 1740 2838 1740 2849.5 1713 c 128,-1,12
 2861 1686 2861 1686 2861 1664 c 0,13,14
 2861 1611 2861 1611 2823 1573.5 c 128,-1,15
 2785 1536 2785 1536 2732 1536 c 0,16,17
 2710 1536 2710 1536 2683 1547.5 c 128,-1,18
 2656 1559 2656 1559 2640 1575 c 2,19,-1
 2176 2039 l 1,20,-1
 2176 130 l 1,21,-1
 2176 128 l 1,22,-1
 4096 128 l 1,23,-1
 4096 -128 l 1,24,-1
 0 -128 l 1,25,-1
 0 128 l 1,26,-1
 1920 128 l 1,27,-1
 1920 130 l 1,28,-1
 1920 2039 l 1,29,-1
 1456 1575 l 2,30,31
 1440 1559 1440 1559 1413 1547.5 c 128,-1,32
 1386 1536 1386 1536 1364 1536 c 0,33,34
 1311 1536 1311 1536 1273 1573.5 c 128,-1,35
 1235 1611 1235 1611 1235 1664 c 0,36,37
 1235 1686 1235 1686 1246.5 1713 c 128,-1,38
 1258 1740 1258 1740 1275 1756 c 2,39,-1
 1867 2348 l 1,40,-1
 1275 2941 l 2,41,42
 1259 2956 1259 2956 1247.5 2983 c 128,-1,43
 1236 3010 1236 3010 1236 3032 c 0,44,45
 1236 3085 1236 3085 1273.5 3122.5 c 128,-1,46
 1311 3160 1311 3160 1364 3160 c 0,47,48
 1386 3160 1386 3160 1413 3149 c 128,-1,49
 1440 3138 1440 3138 1456 3122 c 2,50,-1
 2048 2529 l 1,51,-1
 2640 3122 l 2,52,53
 2655 3137 2655 3137 2681 3148.5 c 128,-1,54
 2707 3160 2707 3160 2728 3160 c 0,0,1
EndSplineSet
EndChar

StartChar: uF002B
Encoding: 983083 983083 48
Width: 4096
Flags: W
LayerCount: 2
Fore
SplineSet
2860 3053 m 0,0,1
 2860 3031 2860 3031 2848.5 3004 c 128,-1,2
 2837 2977 2837 2977 2821 2962 c 2,3,-1
 2229 2369 l 1,4,-1
 2821 1777 l 2,5,6
 2838 1761 2838 1761 2849.5 1734 c 128,-1,7
 2861 1707 2861 1707 2861 1685 c 0,8,9
 2861 1632 2861 1632 2823 1594.5 c 128,-1,10
 2785 1557 2785 1557 2732 1557 c 0,11,12
 2710 1557 2710 1557 2683 1568.5 c 128,-1,13
 2656 1580 2656 1580 2640 1596 c 2,14,-1
 2298 1938 l 1,15,16
 2304 1922 2304 1922 2307 1902 c 0,17,18
 2311 1872 2311 1872 2311 1856 c 0,19,20
 2311 1710 2311 1710 2170 1554 c 0,21,22
 2154 1534 2154 1534 2127 1521 c 1,23,24
 2084 1473 2084 1473 2088 1455 c 0,25,26
 2092 1439 2092 1439 2158 1370 c 0,27,28
 2187 1341 2187 1341 2198.5 1328 c 128,-1,29
 2210 1315 2210 1315 2234.5 1283 c 128,-1,30
 2259 1251 2259 1251 2273 1217 c 128,-1,31
 2287 1183 2287 1183 2293 1144 c 0,32,33
 2297 1124 2297 1124 2297 1098 c 0,34,35
 2297 965 2297 965 2173 816 c 0,36,37
 2167 807 2167 807 2156 796 c 0,38,39
 2143 783 2143 783 2132 771 c 128,-1,40
 2121 759 2121 759 2114.5 751 c 128,-1,41
 2108 743 2108 743 2103 735.5 c 128,-1,42
 2098 728 2098 728 2096 723.5 c 128,-1,43
 2094 719 2094 719 2093 715 c 128,-1,44
 2092 711 2092 711 2092 709.5 c 128,-1,45
 2092 708 2092 708 2092 706 c 2,46,-1
 2092 703 l 2,47,48
 2093 701 2093 701 2100 690.5 c 128,-1,49
 2107 680 2107 680 2124.5 660 c 128,-1,50
 2142 640 2142 640 2163 618 c 0,51,52
 2228 550 2228 550 2253 511 c 0,53,54
 2287 454 2287 454 2298 392 c 0,55,56
 2302 362 2302 362 2302 347 c 0,57,58
 2302 243 2302 243 2226 128 c 1,59,-1
 4096 128 l 1,60,-1
 4096 -128 l 1,61,-1
 0 -128 l 1,62,-1
 0 128 l 1,63,-1
 1936 128 l 1,64,65
 1936 149 1936 149 1946.5 174.5 c 128,-1,66
 1957 200 1957 200 1971 216 c 0,67,68
 2054 308 2054 308 2045 350 c 0,69,70
 2041 375 2041 375 1979 440 c 0,71,72
 1976 443 1976 443 1956 463 c 128,-1,73
 1936 483 1936 483 1928.5 491 c 128,-1,74
 1921 499 1921 499 1903.5 520.5 c 128,-1,75
 1886 542 1886 542 1877.5 558 c 128,-1,76
 1869 574 1869 574 1858.5 598.5 c 128,-1,77
 1848 623 1848 623 1842 649 c 0,78,79
 1837 670 1837 670 1837 700 c 0,80,81
 1837 830 1837 830 1963 964 c 0,82,83
 1964 965 1964 965 1966 968 c 0,84,85
 2047 1058 2047 1058 2041 1102 c 0,86,87
 2035 1128 2035 1128 1974 1192 c 0,88,89
 1972 1194 1972 1194 1951 1214.5 c 128,-1,90
 1930 1235 1930 1235 1923 1243 c 128,-1,91
 1916 1251 1916 1251 1899 1272.5 c 128,-1,92
 1882 1294 1882 1294 1873 1310 c 128,-1,93
 1864 1326 1864 1326 1854 1350.5 c 128,-1,94
 1844 1375 1844 1375 1838 1401 c 0,95,96
 1833 1422 1833 1422 1833 1452 c 0,97,98
 1833 1591 1833 1591 1971 1729 c 0,99,100
 1981 1740 1981 1740 2002 1753 c 1,101,102
 2060 1825 2060 1825 2054 1859 c 0,103,104
 2050 1885 2050 1885 1988 1949 c 0,105,106
 1929 2008 1929 2008 1904 2044 c 1,107,-1
 1456 1596 l 2,108,109
 1440 1580 1440 1580 1413 1568.5 c 128,-1,110
 1386 1557 1386 1557 1364 1557 c 0,111,112
 1311 1557 1311 1557 1273 1594.5 c 128,-1,113
 1235 1632 1235 1632 1235 1685 c 0,114,115
 1235 1707 1235 1707 1246.5 1734 c 128,-1,116
 1258 1761 1258 1761 1275 1777 c 2,117,-1
 1867 2369 l 1,118,-1
 1275 2962 l 2,119,120
 1259 2977 1259 2977 1247.5 3004 c 128,-1,121
 1236 3031 1236 3031 1236 3053 c 0,122,123
 1236 3094 1236 3094 1259.5 3125.5 c 128,-1,124
 1283 3157 1283 3157 1316.5 3170.5 c 128,-1,125
 1350 3184 1350 3184 1388.5 3178 c 128,-1,126
 1427 3172 1427 3172 1456 3143 c 2,127,-1
 2048 2550 l 1,128,-1
 2640 3143 l 2,129,130
 2669 3172 2669 3172 2707.5 3178 c 128,-1,131
 2746 3184 2746 3184 2779.5 3170.5 c 128,-1,132
 2813 3157 2813 3157 2836.5 3125.5 c 128,-1,133
 2860 3094 2860 3094 2860 3053 c 0,0,1
EndSplineSet
EndChar

StartChar: uF002C
Encoding: 983084 983084 49
Width: 4096
Flags: W
LayerCount: 2
Fore
SplineSet
1364 3190 m 0,0,1
 1386 3190 1386 3190 1413 3178.5 c 128,-1,2
 1440 3167 1440 3167 1456 3151 c 2,3,-1
 2048 2559 l 1,4,-1
 2640 3151 l 2,5,6
 2655 3166 2655 3166 2681 3177.5 c 128,-1,7
 2707 3189 2707 3189 2728 3189 c 2,8,-1
 2732 3189 l 2,9,10
 2785 3189 2785 3189 2822.5 3151.5 c 128,-1,11
 2860 3114 2860 3114 2860 3061 c 0,12,13
 2860 3039 2860 3039 2848.5 3012.5 c 128,-1,14
 2837 2986 2837 2986 2821 2970 c 2,15,-1
 2229 2378 l 1,16,-1
 2246 2360 l 1,17,18
 2396 2284 2396 2284 2466 2140 c 1,19,-1
 2821 1785 l 2,20,21
 2837 1770 2837 1770 2849 1743 c 128,-1,22
 2861 1716 2861 1716 2861 1693 c 0,23,24
 2861 1640 2861 1640 2823 1602.5 c 128,-1,25
 2785 1565 2785 1565 2732 1565 c 0,26,27
 2710 1565 2710 1565 2683 1576.5 c 128,-1,28
 2656 1588 2656 1588 2640 1604 c 2,29,-1
 2461 1784 l 1,30,31
 2453 1772 2453 1772 2449 1767 c 1,32,33
 2562 1652 2562 1652 2564 1504 c 0,34,35
 2564 1412 2564 1412 2500 1318 c 0,36,37
 2499 1316 2499 1316 2492 1305 c 128,-1,38
 2485 1294 2485 1294 2480 1289 c 0,39,40
 2459 1257 2459 1257 2430 1230 c 1,41,42
 2550 1107 2550 1107 2550 975 c 2,43,-1
 2550 967 l 2,44,45
 2547 830 2547 830 2419 697 c 1,46,47
 2547 572 2547 572 2547 439 c 2,48,-1
 2547 436 l 2,49,50
 2546 350 2546 350 2506 269 c 128,-1,51
 2466 188 2466 188 2393 128 c 1,52,-1
 4096 128 l 1,53,-1
 4096 -128 l 1,54,-1
 0 -128 l 1,55,-1
 0 128 l 1,56,-1
 1705 128 l 2,57,58
 1705 130 1705 130 1704.5 135.5 c 128,-1,59
 1704 141 1704 141 1704 143 c 0,60,61
 1704 196 1704 196 1742 233.5 c 128,-1,62
 1780 271 1780 271 1832 271 c 0,63,64
 1836 271 1836 271 1857 268 c 0,65,66
 1930 256 1930 256 1990 256 c 0,67,68
 2123 256 2123 256 2204 307 c 0,69,70
 2291 361 2291 361 2291 438 c 0,71,72
 2291 509 2291 509 2216 548 c 0,73,74
 2210 551 2210 551 2192.5 554.5 c 128,-1,75
 2175 558 2175 558 2171 559 c 0,76,77
 2068 534 2068 534 1973 534 c 0,78,79
 1893 534 1893 534 1818 549 c 0,80,81
 1775 557 1775 557 1744 593.5 c 128,-1,82
 1713 630 1713 630 1713 674 c 0,83,84
 1713 714 1713 714 1741 750.5 c 128,-1,85
 1769 787 1769 787 1808 798 c 0,86,87
 1925 829 1925 829 2035 829 c 0,88,89
 2099 829 2099 829 2159 820 c 0,90,91
 2164 822 2164 822 2181.5 827 c 128,-1,92
 2199 832 2199 832 2205 836 c 0,93,94
 2292 890 2292 890 2294 973 c 0,95,96
 2297 1047 2297 1047 2222 1088 c 0,97,98
 2215 1092 2215 1092 2185 1097 c 1,99,100
 2070 1069 2070 1069 1935 1078 c 0,101,102
 1931 1078 1931 1078 1924 1079 c 128,-1,103
 1917 1080 1917 1080 1914 1080 c 0,104,105
 1910 1080 1910 1080 1905 1080.5 c 128,-1,106
 1900 1081 1900 1081 1893.5 1082 c 128,-1,107
 1887 1083 1887 1083 1884 1083 c 0,108,109
 1882 1083 1882 1083 1861 1085 c 128,-1,110
 1840 1087 1840 1087 1829 1089 c 0,111,112
 1819 1091 1819 1091 1806 1095 c 0,113,114
 1768 1106 1768 1106 1741 1142 c 128,-1,115
 1714 1178 1714 1178 1714 1218 c 0,116,117
 1714 1271 1714 1271 1751.5 1308.5 c 128,-1,118
 1789 1346 1789 1346 1842 1346 c 2,119,-1
 1848 1346 l 1,120,121
 1948 1370 1948 1370 2046 1370 c 0,122,123
 2108 1370 2108 1370 2165 1361 c 0,124,125
 2166 1362 2166 1362 2168.5 1362 c 128,-1,126
 2171 1362 2171 1362 2172 1363 c 0,127,128
 2202 1375 2202 1375 2213 1382 c 0,129,130
 2300 1436 2300 1436 2300 1513 c 0,131,132
 2300 1541 2300 1541 2288 1565 c 1,133,134
 2265 1597 2265 1597 2228 1616 c 0,135,136
 2225 1618 2225 1618 2218 1621 c 128,-1,137
 2211 1624 2211 1624 2209 1625 c 0,138,139
 2119 1604 2119 1604 2024 1604 c 0,140,141
 1931 1604 1931 1604 1827 1624 c 0,142,143
 1784 1632 1784 1632 1753.5 1669 c 128,-1,144
 1723 1706 1723 1706 1723 1750 c 0,145,146
 1723 1795 1723 1795 1750 1829 c 0,147,148
 1762 1849 1762 1849 1787.5 1866 c 128,-1,149
 1813 1883 1813 1883 1836 1887 c 0,150,151
 1946 1912 1946 1912 2049 1912 c 0,152,153
 2092 1912 2092 1912 2124 1908 c 0,154,155
 2172 1904 2172 1904 2220 1891 c 1,156,157
 2241 1903 2241 1903 2248.5 1914.5 c 128,-1,158
 2256 1926 2256 1926 2257 1946 c 0,159,160
 2259 1969 2259 1969 2243 2002 c 1,161,-1
 2103 2142 l 1,162,163
 2065 2160 2065 2160 2036 2165 c 0,164,165
 2032 2165 2032 2165 2020 2168 c 1,166,-1
 1456 1604 l 2,167,168
 1440 1588 1440 1588 1413 1576.5 c 128,-1,169
 1386 1565 1386 1565 1364 1565 c 0,170,171
 1311 1565 1311 1565 1273 1602.5 c 128,-1,172
 1235 1640 1235 1640 1235 1693 c 0,173,174
 1235 1716 1235 1716 1247 1743 c 128,-1,175
 1259 1770 1259 1770 1275 1785 c 2,176,-1
 1867 2378 l 1,177,-1
 1275 2970 l 2,178,179
 1259 2986 1259 2986 1247.5 3012.5 c 128,-1,180
 1236 3039 1236 3039 1236 3062 c 0,181,182
 1236 3115 1236 3115 1273.5 3152.5 c 128,-1,183
 1311 3190 1311 3190 1364 3190 c 0,0,1
EndSplineSet
EndChar

StartChar: uF002D
Encoding: 983085 983085 50
Width: 4096
Flags: W
LayerCount: 2
Fore
SplineSet
1469 2994 m 2,0,-1
 2627 2994 l 2,1,2
 2680 2994 2680 2994 2717.5 2956 c 128,-1,3
 2755 2918 2755 2918 2755 2866 c 2,4,-1
 2755 1849 l 2,5,6
 2754 1823 2754 1823 2739 1792.5 c 128,-1,7
 2724 1762 2724 1762 2702 1746 c 2,8,-1
 2169 1354 l 1,9,-1
 2169 130 l 1,10,-1
 2169 128 l 1,11,-1
 4096 128 l 1,12,-1
 4096 -128 l 1,13,-1
 0 -128 l 1,14,-1
 0 128 l 1,15,-1
 1913 128 l 1,16,-1
 1913 130 l 1,17,-1
 1913 1362 l 1,18,-1
 1391 1768 l 2,19,20
 1371 1784 1371 1784 1356 1813.5 c 128,-1,21
 1341 1843 1341 1843 1341 1869 c 2,22,-1
 1341 2866 l 2,23,24
 1341 2919 1341 2919 1378.5 2956.5 c 128,-1,25
 1416 2994 1416 2994 1469 2994 c 2,0,-1
1597 2738 m 1,26,-1
 1597 1932 l 1,27,-1
 2041 1587 l 1,28,-1
 2042 1587 l 1,29,-1
 2053 1587 l 1,30,-1
 2499 1914 l 1,31,-1
 2499 2738 l 1,32,-1
 1597 2738 l 1,26,-1
EndSplineSet
EndChar

StartChar: uF002E
Encoding: 983086 983086 51
Width: 4096
Flags: W
LayerCount: 2
Fore
SplineSet
1470 3026 m 1,0,-1
 1470 3025 l 1,1,-1
 2626 3025 l 2,2,3
 2679 3025 2679 3025 2716.5 2987.5 c 128,-1,4
 2754 2950 2754 2950 2754 2897 c 2,5,-1
 2754 1881 l 2,6,7
 2754 1854 2754 1854 2739 1824 c 128,-1,8
 2724 1794 2724 1794 2702 1778 c 2,9,-1
 2121 1350 l 2,10,11
 2106 1339 2106 1339 2092 1334 c 1,12,13
 2116 1306 2116 1306 2149 1275 c 0,14,15
 2214 1216 2214 1216 2240 1181 c 0,16,17
 2279 1125 2279 1125 2291 1061 c 0,18,19
 2307 982 2307 982 2268 894 c 0,20,21
 2259 873 2259 873 2247 852 c 0,22,23
 2214 797 2214 797 2160 741 c 0,24,25
 2160 740 2160 740 2159 740 c 0,26,27
 2158 738 2158 738 2153 733 c 1,28,-1
 2152 733 l 2,29,30
 2151 731 2151 731 2148 728 c 2,31,-1
 2144 724 l 1,32,-1
 2143 724 l 1,33,-1
 2085 656 l 1,34,-1
 2092 648 l 2,35,36
 2099 639 2099 639 2116.5 620.5 c 128,-1,37
 2134 602 2134 602 2154 583 c 0,38,39
 2218 525 2218 525 2241 493 c 0,40,41
 2283 436 2283 436 2296 370 c 0,42,43
 2318 254 2318 254 2231 128 c 1,44,-1
 4096 128 l 1,45,-1
 4096 -128 l 1,46,-1
 0 -128 l 1,47,-1
 0 128 l 1,48,-1
 1940 128 l 1,49,50
 1941 149 1941 149 1951.5 174 c 128,-1,51
 1962 199 1962 199 1977 213 c 0,52,53
 2057 292 2057 292 2051 323 c 0,54,55
 2050 327 2050 327 2044 336 c 128,-1,56
 2038 345 2038 345 2022 363 c 128,-1,57
 2006 381 2006 381 1985 400 c 0,58,59
 1980 404 1980 404 1961 421 c 128,-1,60
 1942 438 1942 438 1933 446.5 c 128,-1,61
 1924 455 1924 455 1907 473.5 c 128,-1,62
 1890 492 1890 492 1880 508 c 128,-1,63
 1870 524 1870 524 1859 548 c 128,-1,64
 1848 572 1848 572 1842 597 c 0,65,66
 1821 682 1821 682 1863 767 c 0,67,68
 1891 825 1891 825 1963 894 c 1,69,-1
 1963 895 l 2,70,71
 1965 898 1965 898 1972 905 c 0,72,73
 2052 984 2052 984 2046 1015 c 0,74,75
 2045 1018 2045 1018 2039 1027.5 c 128,-1,76
 2033 1037 2033 1037 2017.5 1054.5 c 128,-1,77
 2002 1072 2002 1072 1981 1091 c 0,78,79
 1977 1095 1977 1095 1957 1112.5 c 128,-1,80
 1937 1130 1937 1130 1928.5 1138 c 128,-1,81
 1920 1146 1920 1146 1902.5 1165.5 c 128,-1,82
 1885 1185 1885 1185 1875.5 1200.5 c 128,-1,83
 1866 1216 1866 1216 1855 1240 c 128,-1,84
 1844 1264 1844 1264 1838 1289 c 0,85,86
 1820 1360 1820 1360 1851 1441 c 1,87,-1
 1391 1799 l 2,88,89
 1371 1815 1371 1815 1356.5 1844.5 c 128,-1,90
 1342 1874 1342 1874 1342 1900 c 2,91,-1
 1342 2898 l 2,92,93
 1342 2951 1342 2951 1379.5 2988.5 c 128,-1,94
 1417 3026 1417 3026 1470 3026 c 1,0,-1
1598 2770 m 1,95,-1
 1598 1963 l 1,96,-1
 2023 1632 l 1,97,98
 2039 1637 2039 1637 2078 1637 c 1,99,-1
 2498 1946 l 1,100,-1
 2498 2770 l 1,101,-1
 1598 2770 l 1,95,-1
EndSplineSet
EndChar

StartChar: uF002F
Encoding: 983087 983087 52
Width: 4096
Flags: W
LayerCount: 2
Fore
SplineSet
2626 3069 m 2,0,1
 2679 3069 2679 3069 2716.5 3031.5 c 128,-1,2
 2754 2994 2754 2994 2754 2941 c 2,3,-1
 2754 1925 l 2,4,5
 2754 1898 2754 1898 2739 1868 c 128,-1,6
 2724 1838 2724 1838 2702 1822 c 2,7,-1
 2440 1628 l 1,8,9
 2490 1614 2490 1614 2523 1599 c 0,10,11
 2622 1553 2622 1553 2682 1470 c 128,-1,12
 2742 1387 2742 1387 2742 1291 c 0,13,14
 2743 1179 2743 1179 2634 1068 c 1,15,16
 2732 958 2732 958 2729 850 c 0,17,18
 2725 738 2725 738 2620 626 c 1,19,20
 2726 514 2726 514 2725 402 c 0,21,22
 2723 242 2723 242 2587 128 c 1,23,-1
 4096 128 l 1,24,-1
 4096 -128 l 1,25,-1
 0 -128 l 1,26,-1
 0 128 l 1,27,-1
 1883 128 l 2,28,29
 1883 130 1883 130 1882.5 135.5 c 128,-1,30
 1882 141 1882 141 1882 144 c 0,31,32
 1882 197 1882 197 1919.5 234.5 c 128,-1,33
 1957 272 1957 272 2010 272 c 0,34,35
 2026 272 2026 272 2036 269 c 0,36,37
 2113 256 2113 256 2178 256 c 0,38,39
 2307 256 2307 256 2388 301 c 0,40,41
 2469 345 2469 345 2469 404 c 0,42,43
 2471 455 2471 455 2401 487 c 0,44,45
 2398 488 2398 488 2389.5 489 c 128,-1,46
 2381 490 2381 490 2378 491 c 0,47,48
 2269 463 2269 463 2163 463 c 0,49,50
 2083 463 2083 463 1996 479 c 0,51,52
 1953 488 1953 488 1923 525 c 128,-1,53
 1893 562 1893 562 1893 605 c 0,54,55
 1893 646 1893 646 1920.5 682 c 128,-1,56
 1948 718 1948 718 1987 728 c 0,57,58
 2110 762 2110 762 2224 762 c 0,59,60
 2293 762 2293 762 2368 749 c 0,61,62
 2372 751 2372 751 2381 753.5 c 128,-1,63
 2390 756 2390 756 2391 756 c 0,64,65
 2471 799 2471 799 2473 857 c 0,66,67
 2474 880 2474 880 2461.5 898 c 128,-1,68
 2449 916 2449 916 2410 934 c 1,69,-1
 2390 938 l 1,70,71
 2277 911 2277 911 2170 911 c 0,72,73
 2089 911 2089 911 2008 925 c 0,74,75
 1963 932 1963 932 1931.5 969 c 128,-1,76
 1900 1006 1900 1006 1900 1051 c 0,77,78
 1900 1092 1900 1092 1927.5 1128 c 128,-1,79
 1955 1164 1955 1164 1994 1174 c 0,80,81
 2117 1209 2117 1209 2234 1209 c 0,82,83
 2303 1209 2303 1209 2378 1196 c 0,84,85
 2382 1198 2382 1198 2395 1200.5 c 128,-1,86
 2408 1203 2408 1203 2412 1206 c 0,87,88
 2486 1244 2486 1244 2486 1290 c 0,89,90
 2486 1334 2486 1334 2415 1367 c 0,91,92
 2354 1396 2354 1396 2248 1396 c 0,93,94
 2178 1396 2178 1396 2101 1382 c 1,95,96
 2077 1369 2077 1369 2044 1369 c 0,97,98
 1999 1369 1999 1369 1966 1395 c 2,99,-1
 1391 1843 l 2,100,101
 1371 1859 1371 1859 1356.5 1888.5 c 128,-1,102
 1342 1918 1342 1918 1342 1944 c 2,103,-1
 1342 2941 l 2,104,105
 1342 2994 1342 2994 1379.5 3031.5 c 128,-1,106
 1417 3069 1417 3069 1470 3069 c 2,107,-1
 2626 3069 l 2,0,1
1598 2813 m 1,108,-1
 1598 2006 l 1,109,-1
 2047 1657 l 1,110,-1
 2498 1989 l 1,111,-1
 2498 2813 l 1,112,-1
 1598 2813 l 1,108,-1
EndSplineSet
EndChar

StartChar: uF0030
Encoding: 983088 983088 53
Width: 4096
Flags: W
LayerCount: 2
Fore
SplineSet
1213 -2804 m 2,0,-1
 1211 -2804 l 2,1,2
 1052 -2804 1052 -2804 938.5 -2690.5 c 128,-1,3
 825 -2577 825 -2577 825 -2418 c 0,4,5
 825 -2258 825 -2258 938.5 -2145 c 128,-1,6
 1052 -2032 1052 -2032 1211 -2032 c 0,7,8
 1263 -2032 1263 -2032 1351 -2068 c 1,9,-1
 1877 -1764 l 1,10,11
 1854 -1659 1854 -1659 1854 -1610 c 0,12,13
 1854 -1381 1854 -1381 1989 -1200 c 128,-1,14
 2124 -1019 2124 -1019 2337 -946 c 1,15,-1
 2337 -128 l 1,16,-1
 0 -128 l 1,17,-1
 0 128 l 1,18,-1
 4096 128 l 1,19,-1
 4096 -128 l 1,20,-1
 2788 -128 l 1,21,-1
 2788 -947 l 1,22,23
 3001 -1019 3001 -1019 3136 -1200 c 128,-1,24
 3271 -1381 3271 -1381 3271 -1610 c 0,25,26
 3271 -1725 3271 -1725 3235 -1833.5 c 128,-1,27
 3199 -1942 3199 -1942 3133.5 -2029 c 128,-1,28
 3068 -2116 3068 -2116 2981 -2181.5 c 128,-1,29
 2894 -2247 2894 -2247 2786 -2283 c 128,-1,30
 2678 -2319 2678 -2319 2563 -2319 c 0,31,32
 2320 -2319 2320 -2319 2114 -2148 c 1,33,-1
 1591 -2450 l 1,34,35
 1578 -2599 1578 -2599 1470.5 -2701.5 c 128,-1,36
 1363 -2804 1363 -2804 1213 -2804 c 2,0,-1
1468 -2412 m 2,37,-1
 1467 -2373 l 1,38,-1
 2125 -1993 l 1,39,-1
 2160 -2027 l 2,40,41
 2240 -2104 2240 -2104 2343.5 -2147 c 128,-1,42
 2447 -2190 2447 -2190 2563 -2190 c 0,43,44
 2681 -2190 2681 -2190 2788.5 -2144 c 128,-1,45
 2896 -2098 2896 -2098 2973.5 -2020.5 c 128,-1,46
 3051 -1943 3051 -1943 3096.5 -1835.5 c 128,-1,47
 3142 -1728 3142 -1728 3142 -1610 c 0,48,49
 3142 -1410 3142 -1410 3019.5 -1254.5 c 128,-1,50
 2897 -1099 2897 -1099 2708 -1050 c 2,51,-1
 2659 -1037 l 1,52,-1
 2659 -128 l 1,53,-1
 2466 -128 l 1,54,-1
 2466 -1037 l 1,55,-1
 2418 -1049 l 2,56,57
 2228 -1098 2228 -1098 2105.5 -1253.5 c 128,-1,58
 1983 -1409 1983 -1409 1983 -1610 c 0,59,60
 1983 -1698 1983 -1698 2009 -1779 c 2,61,-1
 2023 -1828 l 1,62,-1
 1364 -2209 l 1,63,-1
 1332 -2192 l 2,64,65
 1273 -2160 1273 -2160 1211 -2160 c 0,66,67
 1104 -2160 1104 -2160 1029 -2235.5 c 128,-1,68
 954 -2311 954 -2311 954 -2418 c 0,69,70
 954 -2536 954 -2536 1030.5 -2602 c 128,-1,71
 1107 -2668 1107 -2668 1212 -2668 c 0,72,73
 1319 -2668 1319 -2668 1393.5 -2600.5 c 128,-1,74
 1468 -2533 1468 -2533 1468 -2412 c 2,37,-1
EndSplineSet
EndChar

StartChar: uF0031
Encoding: 983089 983089 54
Width: 4096
Flags: W
LayerCount: 2
Fore
SplineSet
3519 1101 m 2,0,1
 3572 1101 3572 1101 3609.5 1063.5 c 128,-1,2
 3647 1026 3647 1026 3647 973 c 2,3,-1
 3647 128 l 1,4,-1
 4096 128 l 1,5,-1
 4096 -128 l 1,6,-1
 3647 -128 l 1,7,-1
 3647 -973 l 2,8,9
 3647 -1026 3647 -1026 3609.5 -1063.5 c 128,-1,10
 3572 -1101 3572 -1101 3519 -1101 c 2,11,-1
 1505 -1101 l 2,12,13
 1482 -1101 1482 -1101 1455 -1089.5 c 128,-1,14
 1428 -1078 1428 -1078 1412 -1061 c 2,15,-1
 522 -128 l 1,16,-1
 0 -128 l 1,17,-1
 0 128 l 1,18,-1
 522 128 l 1,19,-1
 1412 1061 l 2,20,21
 1428 1078 1428 1078 1455 1089.5 c 128,-1,22
 1482 1101 1482 1101 1505 1101 c 2,23,-1
 3519 1101 l 2,0,1
3392 845 m 1,24,-1
 1559 845 l 1,25,-1
 753 0 l 1,26,-1
 1559 -845 l 1,27,-1
 3392 -845 l 1,28,-1
 3392 845 l 1,24,-1
EndSplineSet
EndChar

StartChar: uF0032
Encoding: 983090 983090 55
Width: 4096
Flags: W
LayerCount: 2
Fore
SplineSet
1505 1101 m 0,0,1
 1557 1101 1557 1101 1594.5 1064 c 128,-1,2
 1632 1027 1632 1027 1633 974 c 2,3,-1
 1636 595 l 1,4,-1
 3520 604 l 2,5,6
 3572 604 3572 604 3609.5 566.5 c 128,-1,7
 3647 529 3647 529 3647 476 c 2,8,-1
 3647 128 l 1,9,-1
 4096 128 l 1,10,-1
 4096 -128 l 1,11,-1
 3647 -128 l 1,12,-1
 3647 -543 l 2,13,14
 3647 -596 3647 -596 3610 -633.5 c 128,-1,15
 3573 -671 3573 -671 3520 -671 c 2,16,-1
 3519 -671 l 1,17,-1
 1642 -667 l 1,18,-1
 1632 -977 l 2,19,20
 1630 -1028 1630 -1028 1593 -1064.5 c 128,-1,21
 1556 -1101 1556 -1101 1505 -1101 c 0,22,23
 1482 -1101 1482 -1101 1455 -1089.5 c 128,-1,24
 1428 -1078 1428 -1078 1412 -1061 c 2,25,-1
 522 -128 l 1,26,-1
 0 -128 l 1,27,-1
 0 128 l 1,28,-1
 522 128 l 1,29,-1
 1412 1061 l 2,30,31
 1428 1077 1428 1077 1455 1089 c 128,-1,32
 1482 1101 1482 1101 1505 1101 c 0,0,1
753 0 m 1,33,-1
 1387 -664 l 1,34,-1
 1391 -535 l 2,35,36
 1393 -484 1393 -484 1430 -447.5 c 128,-1,37
 1467 -411 1467 -411 1518 -411 c 2,38,-1
 1519 -411 l 1,39,-1
 3392 -415 l 1,40,-1
 3392 347 l 1,41,-1
 1510 339 l 1,42,-1
 1509 339 l 2,43,44
 1457 339 1457 339 1419.5 376 c 128,-1,45
 1382 413 1382 413 1382 465 c 2,46,-1
 1380 657 l 1,47,-1
 753 0 l 1,33,-1
EndSplineSet
EndChar

StartChar: uF0033
Encoding: 983091 983091 56
Width: 4096
Flags: W
LayerCount: 2
Fore
SplineSet
256 -128 m 1,0,-1
 384 -384 l 1,1,-1
 179 -486 l 1,2,-1
 0 -128 l 1,3,-1
 256 -128 l 1,0,-1
486 -589 m 1,4,-1
 794 -1203 l 1,5,-1
 589 -1306 l 1,6,-1
 282 -691 l 1,7,-1
 486 -589 l 1,4,-1
896 -1408 m 1,8,-1
 1203 -2022 l 1,9,-1
 998 -2125 l 1,10,-1
 691 -1510 l 1,11,-1
 896 -1408 l 1,8,-1
1306 -2227 m 1,12,-1
 1613 -2842 l 1,13,-1
 1408 -2944 l 1,14,-1
 1101 -2330 l 1,15,-1
 1306 -2227 l 1,12,-1
1715 -3046 m 1,16,-1
 2022 -3661 l 1,17,-1
 1818 -3763 l 1,18,-1
 1510 -3149 l 1,19,-1
 1715 -3046 l 1,16,-1
2125 -3866 m 1,20,-1
 2432 -4480 l 1,21,-1
 2227 -4582 l 1,22,-1
 1920 -3968 l 1,23,-1
 2125 -3866 l 1,20,-1
2534 -4685 m 1,24,-1
 2842 -5299 l 1,25,-1
 2637 -5402 l 1,26,-1
 2330 -4787 l 1,27,-1
 2534 -4685 l 1,24,-1
2944 -5504 m 1,28,-1
 3251 -6118 l 1,29,-1
 3046 -6221 l 1,30,-1
 2739 -5606 l 1,31,-1
 2944 -5504 l 1,28,-1
3354 -6323 m 1,32,-1
 3661 -6938 l 1,33,-1
 3456 -7040 l 1,34,-1
 3149 -6426 l 1,35,-1
 3354 -6323 l 1,32,-1
3763 -7142 m 1,36,-1
 4070 -7757 l 1,37,-1
 3866 -7859 l 1,38,-1
 3558 -7245 l 1,39,-1
 3763 -7142 l 1,36,-1
4173 -7962 m 1,40,-1
 4352 -8320 l 1,41,-1
 4096 -8320 l 1,42,-1
 3968 -8064 l 1,43,-1
 4173 -7962 l 1,40,-1
EndSplineSet
EndChar

StartChar: uF0034
Encoding: 983092 983092 57
Width: 4096
Flags: W
LayerCount: 2
Fore
SplineSet
169 -486 m 1,0,-1
 0 -128 l 1,1,-1
 0 128 l 1,2,-1
 4096 128 l 1,3,-1
 4096 -128 l 1,4,-1
 246 -128 l 1,5,-1
 374 -384 l 1,6,-1
 169 -486 l 1,0,-1
4096 -8320 m 1,7,-1
 3958 -8064 l 1,8,-1
 4163 -7962 l 1,9,-1
 4352 -8320 l 1,10,-1
 4096 -8320 l 1,7,-1
3856 -7859 m 1,11,-1
 3548 -7245 l 1,12,-1
 3753 -7142 l 1,13,-1
 4060 -7757 l 1,14,-1
 3856 -7859 l 1,11,-1
3446 -7040 m 1,15,-1
 3139 -6426 l 1,16,-1
 3344 -6323 l 1,17,-1
 3651 -6938 l 1,18,-1
 3446 -7040 l 1,15,-1
3036 -6221 m 1,19,-1
 2729 -5606 l 1,20,-1
 2934 -5504 l 1,21,-1
 3241 -6118 l 1,22,-1
 3036 -6221 l 1,19,-1
2627 -5402 m 1,23,-1
 2320 -4787 l 1,24,-1
 2524 -4685 l 1,25,-1
 2832 -5299 l 1,26,-1
 2627 -5402 l 1,23,-1
2217 -4582 m 1,27,-1
 1910 -3968 l 1,28,-1
 2115 -3866 l 1,29,-1
 2422 -4480 l 1,30,-1
 2217 -4582 l 1,27,-1
1808 -3763 m 1,31,-1
 1500 -3149 l 1,32,-1
 1705 -3046 l 1,33,-1
 2012 -3661 l 1,34,-1
 1808 -3763 l 1,31,-1
1398 -2944 m 1,35,-1
 1091 -2330 l 1,36,-1
 1296 -2227 l 1,37,-1
 1603 -2842 l 1,38,-1
 1398 -2944 l 1,35,-1
988 -2125 m 1,39,-1
 681 -1510 l 1,40,-1
 886 -1408 l 1,41,-1
 1193 -2022 l 1,42,-1
 988 -2125 l 1,39,-1
579 -1306 m 1,43,-1
 272 -691 l 1,44,-1
 476 -589 l 1,45,-1
 784 -1203 l 1,46,-1
 579 -1306 l 1,43,-1
EndSplineSet
EndChar

StartChar: uF0035
Encoding: 983093 983093 58
Width: 4096
Flags: W
LayerCount: 2
Fore
SplineSet
3927 -486 m 1,0,-1
 3722 -384 l 1,1,-1
 3850 -128 l 1,2,-1
 0 -128 l 1,3,-1
 0 128 l 1,4,-1
 4096 128 l 1,5,-1
 4096 -128 l 1,6,-1
 3927 -486 l 1,0,-1
0 -8320 m 1,7,-1
 -256 -8320 l 1,8,-1
 -67 -7962 l 1,9,-1
 138 -8064 l 1,10,-1
 0 -8320 l 1,7,-1
240 -7859 m 1,11,-1
 36 -7757 l 1,12,-1
 343 -7142 l 1,13,-1
 548 -7245 l 1,14,-1
 240 -7859 l 1,11,-1
650 -7040 m 1,15,-1
 445 -6938 l 1,16,-1
 752 -6323 l 1,17,-1
 957 -6426 l 1,18,-1
 650 -7040 l 1,15,-1
1060 -6221 m 1,19,-1
 855 -6118 l 1,20,-1
 1162 -5504 l 1,21,-1
 1367 -5606 l 1,22,-1
 1060 -6221 l 1,19,-1
1469 -5402 m 1,23,-1
 1264 -5299 l 1,24,-1
 1572 -4685 l 1,25,-1
 1776 -4787 l 1,26,-1
 1469 -5402 l 1,23,-1
1879 -4582 m 1,27,-1
 1674 -4480 l 1,28,-1
 1981 -3866 l 1,29,-1
 2186 -3968 l 1,30,-1
 1879 -4582 l 1,27,-1
2288 -3763 m 1,31,-1
 2084 -3661 l 1,32,-1
 2391 -3046 l 1,33,-1
 2596 -3149 l 1,34,-1
 2288 -3763 l 1,31,-1
2698 -2944 m 1,35,-1
 2493 -2842 l 1,36,-1
 2800 -2227 l 1,37,-1
 3005 -2330 l 1,38,-1
 2698 -2944 l 1,35,-1
3108 -2125 m 1,39,-1
 2903 -2022 l 1,40,-1
 3210 -1408 l 1,41,-1
 3415 -1510 l 1,42,-1
 3108 -2125 l 1,39,-1
3517 -1306 m 1,43,-1
 3312 -1203 l 1,44,-1
 3620 -589 l 1,45,-1
 3824 -691 l 1,46,-1
 3517 -1306 l 1,43,-1
EndSplineSet
EndChar

StartChar: uF0036
Encoding: 983094 983094 59
Width: 4096
Flags: W
LayerCount: 2
Fore
SplineSet
3840 -128 m 1,0,-1
 4096 -128 l 1,1,-1
 3917 -486 l 1,2,-1
 3712 -384 l 1,3,-1
 3840 -128 l 1,0,-1
3610 -589 m 1,4,-1
 3814 -691 l 1,5,-1
 3507 -1306 l 1,6,-1
 3302 -1203 l 1,7,-1
 3610 -589 l 1,4,-1
3200 -1408 m 1,8,-1
 3405 -1510 l 1,9,-1
 3098 -2125 l 1,10,-1
 2893 -2022 l 1,11,-1
 3200 -1408 l 1,8,-1
2790 -2227 m 1,12,-1
 2995 -2330 l 1,13,-1
 2688 -2944 l 1,14,-1
 2483 -2842 l 1,15,-1
 2790 -2227 l 1,12,-1
2381 -3046 m 1,16,-1
 2586 -3149 l 1,17,-1
 2278 -3763 l 1,18,-1
 2074 -3661 l 1,19,-1
 2381 -3046 l 1,16,-1
1971 -3866 m 1,20,-1
 2176 -3968 l 1,21,-1
 1869 -4582 l 1,22,-1
 1664 -4480 l 1,23,-1
 1971 -3866 l 1,20,-1
1562 -4685 m 1,24,-1
 1766 -4787 l 1,25,-1
 1459 -5402 l 1,26,-1
 1254 -5299 l 1,27,-1
 1562 -4685 l 1,24,-1
1152 -5504 m 1,28,-1
 1357 -5606 l 1,29,-1
 1050 -6221 l 1,30,-1
 845 -6118 l 1,31,-1
 1152 -5504 l 1,28,-1
742 -6323 m 1,32,-1
 947 -6426 l 1,33,-1
 640 -7040 l 1,34,-1
 435 -6938 l 1,35,-1
 742 -6323 l 1,32,-1
333 -7142 m 1,36,-1
 538 -7245 l 1,37,-1
 230 -7859 l 1,38,-1
 26 -7757 l 1,39,-1
 333 -7142 l 1,36,-1
-77 -7962 m 1,40,-1
 128 -8064 l 1,41,-1
 0 -8320 l 1,42,-1
 -256 -8320 l 1,43,-1
 -77 -7962 l 1,40,-1
EndSplineSet
EndChar

StartChar: uF0037
Encoding: 983095 983095 60
Width: 4096
Flags: W
LayerCount: 2
Fore
SplineSet
341 -2091 m 2,0,1
 288 -2091 288 -2091 250.5 -2053.5 c 128,-1,2
 213 -2016 213 -2016 213 -1963 c 2,3,-1
 213 -256 l 2,4,5
 213 -203 213 -203 250.5 -165.5 c 128,-1,6
 288 -128 288 -128 341 -128 c 2,7,-1
 0 -128 l 1,8,-1
 0 128 l 1,9,-1
 4096 128 l 1,10,-1
 4096 -128 l 1,11,-1
 3755 -128 l 2,12,13
 3808 -128 3808 -128 3845.5 -165.5 c 128,-1,14
 3883 -203 3883 -203 3883 -256 c 2,15,-1
 3883 -1963 l 2,16,17
 3883 -2016 3883 -2016 3845.5 -2053.5 c 128,-1,18
 3808 -2091 3808 -2091 3755 -2091 c 2,19,-1
 341 -2091 l 2,0,1
469 -1835 m 1,20,-1
 3627 -1835 l 1,21,-1
 3627 -384 l 1,22,-1
 469 -384 l 1,23,-1
 469 -1835 l 1,20,-1
EndSplineSet
EndChar

StartChar: uF0038
Encoding: 983096 983096 61
Width: 4096
Flags: W
LayerCount: 2
Fore
SplineSet
130 -470 m 1,0,-1
 128 -470 l 2,1,2
 75 -470 75 -470 37.5 -432.5 c 128,-1,3
 0 -395 0 -395 0 -342 c 128,-1,4
 0 -289 0 -289 37.5 -251.5 c 128,-1,5
 75 -214 75 -214 128 -214 c 2,6,-1
 130 -214 l 1,7,-1
 2690 -214 l 1,8,-1
 2692 -214 l 2,9,10
 2745 -214 2745 -214 2782.5 -251.5 c 128,-1,11
 2820 -289 2820 -289 2820 -342 c 0,12,13
 2820 -394 2820 -394 2782 -432 c 128,-1,14
 2744 -470 2744 -470 2692 -470 c 2,15,-1
 2690 -470 l 1,16,-1
 130 -470 l 1,0,-1
130 213 m 1,17,-1
 128 213 l 2,18,19
 75 213 75 213 37.5 250.5 c 128,-1,20
 0 288 0 288 0 341 c 128,-1,21
 0 394 0 394 37.5 431.5 c 128,-1,22
 75 469 75 469 128 469 c 2,23,-1
 130 469 l 1,24,-1
 1410 469 l 1,25,-1
 1412 469 l 2,26,27
 1465 469 1465 469 1502.5 431.5 c 128,-1,28
 1540 394 1540 394 1540 341 c 128,-1,29
 1540 288 1540 288 1502.5 250.5 c 128,-1,30
 1465 213 1465 213 1412 213 c 2,31,-1
 1410 213 l 1,32,-1
 130 213 l 1,17,-1
EndSplineSet
EndChar

StartChar: uF0039
Encoding: 983097 983097 62
Width: 4096
Flags: W
LayerCount: 2
Fore
SplineSet
3966 -470 m 1,0,-1
 1406 -470 l 1,1,-1
 1404 -470 l 2,2,3
 1352 -470 1352 -470 1314 -432 c 128,-1,4
 1276 -394 1276 -394 1276 -342 c 0,5,6
 1276 -289 1276 -289 1313.5 -251.5 c 128,-1,7
 1351 -214 1351 -214 1404 -214 c 2,8,-1
 1406 -214 l 1,9,-1
 3966 -214 l 1,10,-1
 3968 -214 l 2,11,12
 4021 -214 4021 -214 4058.5 -251.5 c 128,-1,13
 4096 -289 4096 -289 4096 -342 c 128,-1,14
 4096 -395 4096 -395 4058.5 -432.5 c 128,-1,15
 4021 -470 4021 -470 3968 -470 c 2,16,-1
 3966 -470 l 1,0,-1
3966 213 m 1,17,-1
 2686 213 l 1,18,-1
 2684 213 l 2,19,20
 2631 213 2631 213 2593.5 250.5 c 128,-1,21
 2556 288 2556 288 2556 341 c 128,-1,22
 2556 394 2556 394 2593.5 431.5 c 128,-1,23
 2631 469 2631 469 2684 469 c 2,24,-1
 2686 469 l 1,25,-1
 3966 469 l 1,26,-1
 3968 469 l 2,27,28
 4021 469 4021 469 4058.5 431.5 c 128,-1,29
 4096 394 4096 394 4096 341 c 128,-1,30
 4096 288 4096 288 4058.5 250.5 c 128,-1,31
 4021 213 4021 213 3968 213 c 2,32,-1
 3966 213 l 1,17,-1
EndSplineSet
EndChar

StartChar: uF003A
Encoding: 983098 983098 63
Width: 4096
Flags: W
LayerCount: 2
Fore
SplineSet
768 -2944 m 2,0,1
 715 -2944 715 -2944 677.5 -2906.5 c 128,-1,2
 640 -2869 640 -2869 640 -2816 c 2,3,-1
 640 -256 l 2,4,5
 640 -203 640 -203 677.5 -165.5 c 128,-1,6
 715 -128 715 -128 768 -128 c 2,7,-1
 0 -128 l 1,8,-1
 0 128 l 1,9,-1
 4096 128 l 1,10,-1
 4096 -128 l 1,11,-1
 3328 -128 l 2,12,13
 3381 -128 3381 -128 3418.5 -165.5 c 128,-1,14
 3456 -203 3456 -203 3456 -256 c 2,15,-1
 3456 -2816 l 2,16,17
 3456 -2869 3456 -2869 3418.5 -2906.5 c 128,-1,18
 3381 -2944 3381 -2944 3328 -2944 c 2,19,-1
 768 -2944 l 2,0,1
896 -2688 m 1,20,-1
 3200 -2688 l 1,21,-1
 3200 -384 l 1,22,-1
 896 -384 l 1,23,-1
 896 -2688 l 1,20,-1
1365 -2347 m 2,24,25
 1312 -2347 1312 -2347 1274.5 -2309.5 c 128,-1,26
 1237 -2272 1237 -2272 1237 -2219 c 2,27,-1
 1237 -853 l 2,28,29
 1237 -800 1237 -800 1274.5 -762.5 c 128,-1,30
 1312 -725 1312 -725 1365 -725 c 2,31,-1
 2731 -725 l 2,32,33
 2784 -725 2784 -725 2821.5 -762.5 c 128,-1,34
 2859 -800 2859 -800 2859 -853 c 2,35,-1
 2859 -2219 l 2,36,37
 2859 -2272 2859 -2272 2821.5 -2309.5 c 128,-1,38
 2784 -2347 2784 -2347 2731 -2347 c 2,39,-1
 1365 -2347 l 2,24,25
1493 -2091 m 1,40,-1
 2603 -2091 l 1,41,-1
 2603 -981 l 1,42,-1
 1493 -981 l 1,43,-1
 1493 -2091 l 1,40,-1
EndSplineSet
EndChar

StartChar: uF003B
Encoding: 983099 983099 64
Width: 4096
Flags: W
LayerCount: 2
Fore
SplineSet
1364 -1950 m 1,0,-1
 1364 -384 l 1,1,-1
 1779 -384 l 1,2,-1
 1779 -568 l 1,3,-1
 1586 -568 l 1,4,-1
 1586 -1766 l 1,5,-1
 1779 -1766 l 1,6,-1
 1779 -1950 l 1,7,-1
 1364 -1950 l 1,0,-1
2317 -1950 m 1,8,-1
 2317 -1767 l 1,9,-1
 2510 -1767 l 1,10,-1
 2510 -568 l 1,11,-1
 2317 -568 l 1,12,-1
 2317 -384 l 1,13,-1
 2732 -384 l 1,14,-1
 2732 -1950 l 1,15,-1
 2317 -1950 l 1,8,-1
0 -128 m 1,16,-1
 0 128 l 1,17,-1
 4096 128 l 1,18,-1
 4096 -128 l 1,19,-1
 0 -128 l 1,16,-1
EndSplineSet
EndChar

StartChar: uF003C
Encoding: 983100 983100 65
Width: 4096
Flags: W
LayerCount: 2
Fore
SplineSet
1172 -888 m 2,0,1
 1159 -888 1159 -888 1153 -887 c 0,2,3
 1105 -881 1105 -881 1062.5 -848 c 128,-1,4
 1020 -815 1020 -815 970 -753 c 0,5,6
 901 -665 901 -665 770 -437 c 1,7,8
 747 -423 747 -423 743 -394 c 0,9,10
 738 -382 738 -382 738 -369 c 0,11,12
 738 -355 738 -355 743 -345 c 1,13,-1
 743 -128 l 1,14,-1
 0 -128 l 1,15,-1
 0 128 l 1,16,-1
 4096 128 l 1,17,-1
 4096 -128 l 1,18,-1
 3358 -128 l 1,19,-1
 3353 -581 l 2,20,21
 3353 -594 3353 -594 3347 -608 c 0,22,23
 3280 -741 3280 -741 3221 -801 c 0,24,25
 3147 -877 3147 -877 3060 -874 c 0,26,27
 2981 -870 2981 -870 2895 -794 c 0,28,29
 2831 -739 2831 -739 2731 -607 c 0,30,31
 2648 -493 2648 -493 2596 -450 c 0,32,33
 2558 -418 2558 -418 2539 -422 c 0,34,35
 2517 -424 2517 -424 2479 -469 c 0,36,37
 2454 -498 2454 -498 2367 -624 c 0,38,39
 2294 -735 2294 -735 2235 -790 c 0,40,41
 2162 -859 2162 -859 2087 -862 c 0,42,43
 2009 -865 2009 -865 1933 -797 c 0,44,45
 1871 -742 1871 -742 1794 -624 c 0,46,47
 1721 -513 1721 -513 1680 -470 c 0,48,49
 1647 -436 1647 -436 1628 -436 c 0,50,51
 1610 -436 1610 -436 1572 -474 c 0,52,53
 1528 -518 1528 -518 1451 -626 c 0,54,55
 1343 -779 1343 -779 1319 -805 c 0,56,57
 1251 -884 1251 -884 1178 -888 c 1,58,-1
 1172 -888 l 2,0,1
1172 -768 m 0,59,60
 1193 -766 1193 -766 1228 -726 c 0,61,62
 1243 -709 1243 -709 1260 -686 c 128,-1,63
 1277 -663 1277 -663 1309 -618 c 128,-1,64
 1341 -573 1341 -573 1353 -556 c 0,65,66
 1442 -432 1442 -432 1486 -388 c 0,67,68
 1556 -318 1556 -318 1626 -315 c 0,69,70
 1695 -314 1695 -314 1766 -386 c 0,71,72
 1813 -434 1813 -434 1895 -558 c 0,73,74
 1964 -663 1964 -663 2014 -707 c 0,75,76
 2055 -744 2055 -744 2082 -742 c 0,77,78
 2112 -740 2112 -740 2153 -702 c 0,79,80
 2202 -655 2202 -655 2267 -557 c 0,81,82
 2346 -437 2346 -437 2388 -390 c 0,83,84
 2455 -313 2455 -313 2520 -302 c 0,85,86
 2597 -291 2597 -291 2674 -358 c 0,87,88
 2737 -412 2737 -412 2828 -535 c 0,89,90
 2916 -652 2916 -652 2975 -704 c 0,91,92
 3029 -751 3029 -751 3066 -753 c 0,93,94
 3098 -755 3098 -755 3134 -717 c 0,95,96
 3178 -671 3178 -671 3233 -563 c 1,97,-1
 3237 -128 l 1,98,-1
 863 -128 l 1,99,-1
 863 -359 l 1,100,101
 992 -586 992 -586 1064 -678 c 0,102,103
 1133 -764 1133 -764 1168 -767 c 1,104,-1
 1170 -768 l 2,105,106
 1171 -768 1171 -768 1172 -768 c 0,59,60
EndSplineSet
EndChar

StartChar: uF003D
Encoding: 983101 983101 66
Width: 4096
Flags: W
LayerCount: 2
Fore
SplineSet
1193 -982 m 2,0,1
 1141 -981 1141 -981 1104 -944 c 128,-1,2
 1067 -907 1067 -907 1067 -854 c 2,3,-1
 1067 -852 l 1,4,-1
 1067 -128 l 1,5,-1
 0 -128 l 1,6,-1
 0 128 l 1,7,-1
 1067 128 l 1,8,-1
 1067 854 l 2,9,10
 1067 907 1067 907 1104.5 944.5 c 128,-1,11
 1142 982 1142 982 1195 982 c 2,12,-1
 2901 982 l 2,13,14
 2954 982 2954 982 2991.5 944.5 c 128,-1,15
 3029 907 3029 907 3029 854 c 2,16,-1
 3029 128 l 1,17,-1
 4096 128 l 1,18,-1
 4096 -128 l 1,19,-1
 3029 -128 l 1,20,-1
 3029 -852 l 1,21,-1
 3029 -854 l 2,22,23
 3029 -907 3029 -907 2991.5 -944.5 c 128,-1,24
 2954 -982 2954 -982 2901 -982 c 128,-1,25
 2848 -982 2848 -982 2810.5 -944.5 c 128,-1,26
 2773 -907 2773 -907 2773 -854 c 2,27,-1
 2773 -852 l 1,28,-1
 2773 726 l 1,29,-1
 1323 726 l 1,30,-1
 1323 -852 l 1,31,-1
 1323 -854 l 2,32,33
 1323 -907 1323 -907 1285.5 -944.5 c 128,-1,34
 1248 -982 1248 -982 1195 -982 c 2,35,-1
 1193 -982 l 2,0,1
EndSplineSet
EndChar

StartChar: uF003E
Encoding: 983102 983102 67
Width: 4096
Flags: W
LayerCount: 2
Fore
SplineSet
659 -1352 m 1,0,-1
 773 -928 l 1,1,-1
 851 -1005 l 1,2,-1
 1140 -716 l 1,3,4
 935 -457 935 -457 898 -128 c 1,5,-1
 0 -128 l 1,6,-1
 0 128 l 1,7,-1
 898 128 l 1,8,9
 922 341 922 341 1022 531.5 c 128,-1,10
 1122 722 1122 722 1273.5 859.5 c 128,-1,11
 1425 997 1425 997 1627 1077 c 128,-1,12
 1829 1157 1829 1157 2048 1157 c 128,-1,13
 2267 1157 2267 1157 2469 1077 c 128,-1,14
 2671 997 2671 997 2822.5 859.5 c 128,-1,15
 2974 722 2974 722 3074 531.5 c 128,-1,16
 3174 341 3174 341 3198 128 c 1,17,-1
 4096 128 l 1,18,-1
 4096 -128 l 1,19,-1
 3198 -128 l 1,20,21
 3174 -341 3174 -341 3074 -531.5 c 128,-1,22
 2974 -722 2974 -722 2822.5 -859.5 c 128,-1,23
 2671 -997 2671 -997 2469 -1077 c 128,-1,24
 2267 -1157 2267 -1157 2048 -1157 c 0,25,26
 1836 -1157 1836 -1157 1641.5 -1083 c 128,-1,27
 1447 -1009 1447 -1009 1292 -875 c 1,28,-1
 1006 -1161 l 1,29,-1
 1084 -1239 l 1,30,-1
 659 -1352 l 1,0,-1
2048 -900 m 0,31,32
 2231 -900 2231 -900 2398 -829 c 128,-1,33
 2565 -758 2565 -758 2685.5 -637.5 c 128,-1,34
 2806 -517 2806 -517 2877 -350 c 128,-1,35
 2948 -183 2948 -183 2948 0 c 128,-1,36
 2948 183 2948 183 2877 350 c 128,-1,37
 2806 517 2806 517 2685.5 637.5 c 128,-1,38
 2565 758 2565 758 2398 829 c 128,-1,39
 2231 900 2231 900 2048 900 c 128,-1,40
 1865 900 1865 900 1698 829 c 128,-1,41
 1531 758 1531 758 1410.5 637.5 c 128,-1,42
 1290 517 1290 517 1219 350 c 128,-1,43
 1148 183 1148 183 1148 0 c 0,44,45
 1148 -295 1148 -295 1322 -533 c 1,46,-1
 1956 100 l 2,47,48
 1969 113 1969 113 1991.5 122.5 c 128,-1,49
 2014 132 2014 132 2033 132 c 0,50,51
 2079 132 2079 132 2111.5 100 c 128,-1,52
 2144 68 2144 68 2144 22 c 0,53,54
 2144 4 2144 4 2134.5 -19 c 128,-1,55
 2125 -42 2125 -42 2112 -56 c 2,56,-1
 1474 -694 l 1,57,58
 1593 -792 1593 -792 1740 -846 c 128,-1,59
 1887 -900 1887 -900 2048 -900 c 0,31,32
EndSplineSet
EndChar

StartChar: uF003F
Encoding: 983103 983103 68
Width: 4096
Flags: W
LayerCount: 2
Fore
SplineSet
2878 -868 m 1,0,-1
 2720 -868 l 1,1,-1
 2424 -128 l 1,2,-1
 2419 -128 l 1,3,-1
 2131 -868 l 1,4,-1
 1973 -868 l 1,5,-1
 1677 -128 l 1,6,-1
 1672 -128 l 1,7,-1
 1384 -868 l 1,8,-1
 1226 -868 l 1,9,-1
 930 -128 l 1,10,-1
 0 -128 l 1,11,-1
 0 128 l 1,12,-1
 4096 128 l 1,13,-1
 4096 -128 l 1,14,-1
 3166 -128 l 1,15,-1
 2878 -868 l 1,0,-1
2801 -695 m 1,16,-1
 2901 -421 l 1,17,-1
 2699 -421 l 1,18,-1
 2801 -695 l 1,16,-1
2054 -695 m 1,19,-1
 2154 -421 l 1,20,-1
 1952 -421 l 1,21,-1
 2054 -695 l 1,19,-1
1307 -695 m 1,22,-1
 1407 -421 l 1,23,-1
 1205 -421 l 1,24,-1
 1307 -695 l 1,22,-1
2947 -296 m 1,25,-1
 3008 -128 l 1,26,-1
 2586 -128 l 1,27,-1
 2651 -296 l 1,28,-1
 2947 -296 l 1,25,-1
2200 -296 m 1,29,-1
 2261 -128 l 1,30,-1
 1839 -128 l 1,31,-1
 1904 -296 l 1,32,-1
 2200 -296 l 1,29,-1
1453 -296 m 1,33,-1
 1514 -128 l 1,34,-1
 1092 -128 l 1,35,-1
 1157 -296 l 1,36,-1
 1453 -296 l 1,33,-1
EndSplineSet
EndChar

StartChar: uF0040
Encoding: 983104 983104 69
Width: 4096
Flags: W
LayerCount: 2
Fore
SplineSet
4096 128 m 1,0,-1
 4096 -128 l 1,1,-1
 0 -128 l 1,2,-1
 0 128 l 1,3,-1
 4096 128 l 1,0,-1
1789 -1494 m 2,4,5
 1749 -1494 1749 -1494 1718 -1470 c 2,6,-1
 864 -873 l 2,7,8
 842 -857 842 -857 826 -826.5 c 128,-1,9
 810 -796 810 -796 810 -768 c 0,10,11
 810 -715 810 -715 847.5 -677.5 c 128,-1,12
 885 -640 885 -640 938 -640 c 2,13,-1
 3156 -640 l 1,14,-1
 3158 -640 l 2,15,16
 3211 -640 3211 -640 3248.5 -677.5 c 128,-1,17
 3286 -715 3286 -715 3286 -768 c 128,-1,18
 3286 -821 3286 -821 3248.5 -858.5 c 128,-1,19
 3211 -896 3211 -896 3158 -896 c 2,20,-1
 3156 -896 l 1,21,-1
 1344 -896 l 1,22,-1
 1864 -1260 l 2,23,24
 1888 -1276 1888 -1276 1904.5 -1307 c 128,-1,25
 1921 -1338 1921 -1338 1921 -1366 c 0,26,27
 1921 -1419 1921 -1419 1883.5 -1456.5 c 128,-1,28
 1846 -1494 1846 -1494 1793 -1494 c 2,29,-1
 1789 -1494 l 2,4,5
EndSplineSet
EndChar

StartChar: uF0041
Encoding: 983105 983105 70
Width: 4096
Flags: W
LayerCount: 2
Fore
SplineSet
1490 -3203 m 2,0,1
 1444 -3201 1444 -3201 1409 -3170 c 2,2,-1
 683 -2530 l 2,3,4
 665 -2514 665 -2514 652.5 -2486 c 128,-1,5
 640 -2458 640 -2458 640 -2434 c 128,-1,6
 640 -2410 640 -2410 653 -2381.5 c 128,-1,7
 666 -2353 666 -2353 684 -2337 c 2,8,-1
 1410 -1711 l 2,9,10
 1425 -1697 1425 -1697 1450 -1687.5 c 128,-1,11
 1475 -1678 1475 -1678 1496 -1678 c 0,12,13
 1549 -1678 1549 -1678 1586.5 -1715.5 c 128,-1,14
 1624 -1753 1624 -1753 1624 -1806 c 0,15,16
 1624 -1831 1624 -1831 1610.5 -1860 c 128,-1,17
 1597 -1889 1597 -1889 1577 -1905 c 2,18,-1
 1112 -2306 l 1,19,-1
 3200 -2306 l 1,20,-1
 3200 -130 l 1,21,-1
 3200 -128 l 1,22,-1
 0 -128 l 1,23,-1
 0 128 l 1,24,-1
 4096 128 l 1,25,-1
 4096 -128 l 1,26,-1
 3456 -128 l 1,27,-1
 3456 -130 l 1,28,-1
 3456 -2434 l 2,29,30
 3456 -2487 3456 -2487 3418.5 -2524.5 c 128,-1,31
 3381 -2562 3381 -2562 3328 -2562 c 2,32,-1
 1107 -2562 l 1,33,-1
 1578 -2978 l 2,34,35
 1597 -2994 1597 -2994 1610 -3022.5 c 128,-1,36
 1623 -3051 1623 -3051 1623 -3075 c 0,37,38
 1623 -3128 1623 -3128 1585.5 -3165.5 c 128,-1,39
 1548 -3203 1548 -3203 1495 -3203 c 2,40,-1
 1490 -3203 l 2,0,1
EndSplineSet
EndChar

StartChar: uF0042
Encoding: 983106 983106 71
Width: 4096
Flags: W
LayerCount: 2
Fore
SplineSet
2048 -1835 m 128,-1,1
 1797 -1835 1797 -1835 1571 -1743.5 c 128,-1,2
 1345 -1652 1345 -1652 1177 -1475 c 0,3,4
 1002 -1291 1002 -1291 906.5 -1025 c 128,-1,5
 811 -759 811 -759 811 -427 c 2,6,-1
 811 -128 l 1,7,-1
 0 -128 l 1,8,-1
 0 128 l 1,9,-1
 939 128 l 1,10,-1
 3157 128 l 1,11,-1
 4096 128 l 1,12,-1
 4096 -128 l 1,13,-1
 3285 -128 l 1,14,-1
 3285 -427 l 2,15,16
 3285 -759 3285 -759 3190 -1025 c 128,-1,17
 3095 -1291 3095 -1291 2920 -1475 c 0,18,19
 2751 -1652 2751 -1652 2525 -1743.5 c 128,-1,0
 2299 -1835 2299 -1835 2048 -1835 c 128,-1,1
2048 -1579 m 128,-1,21
 2251 -1579 2251 -1579 2427 -1508 c 128,-1,22
 2603 -1437 2603 -1437 2734 -1298 c 0,23,24
 3029 -988 3029 -988 3029 -427 c 2,25,-1
 3029 -128 l 1,26,-1
 1067 -128 l 1,27,-1
 1067 -427 l 2,28,29
 1067 -988 1067 -988 1362 -1298 c 0,30,31
 1493 -1437 1493 -1437 1669 -1508 c 128,-1,20
 1845 -1579 1845 -1579 2048 -1579 c 128,-1,21
EndSplineSet
EndChar

StartChar: uF0043
Encoding: 983107 983107 72
Width: 4096
Flags: W
LayerCount: 2
Fore
SplineSet
3755 -2517 m 2,0,-1
 341 -2517 l 2,1,2
 288 -2517 288 -2517 250.5 -2479.5 c 128,-1,3
 213 -2442 213 -2442 213 -2389 c 2,4,-1
 213 -256 l 2,5,6
 213 -203 213 -203 250.5 -165.5 c 128,-1,7
 288 -128 288 -128 341 -128 c 2,8,-1
 0 -128 l 1,9,-1
 0 128 l 1,10,-1
 4096 128 l 1,11,-1
 4096 -128 l 1,12,-1
 3755 -128 l 2,13,14
 3808 -128 3808 -128 3845.5 -165.5 c 128,-1,15
 3883 -203 3883 -203 3883 -256 c 2,16,-1
 3883 -2389 l 2,17,18
 3883 -2442 3883 -2442 3845.5 -2479.5 c 128,-1,19
 3808 -2517 3808 -2517 3755 -2517 c 2,0,-1
3627 -2261 m 1,20,-1
 3627 -384 l 1,21,-1
 469 -384 l 1,22,-1
 469 -2261 l 1,23,-1
 3627 -2261 l 1,20,-1
2473 -1921 m 2,24,25
 2420 -1921 2420 -1921 2382.5 -1883.5 c 128,-1,26
 2345 -1846 2345 -1846 2345 -1793 c 0,27,28
 2345 -1771 2345 -1771 2356.5 -1744 c 128,-1,29
 2368 -1717 2368 -1717 2384 -1701 c 2,30,-1
 2720 -1365 l 1,31,-1
 2384 -1029 l 2,32,33
 2368 -1013 2368 -1013 2357 -986.5 c 128,-1,34
 2346 -960 2346 -960 2346 -938 c 0,35,36
 2346 -886 2346 -886 2384 -848 c 128,-1,37
 2422 -810 2422 -810 2474 -810 c 0,38,39
 2496 -810 2496 -810 2522.5 -821 c 128,-1,40
 2549 -832 2549 -832 2565 -848 c 2,41,-1
 2901 -1184 l 1,42,-1
 3237 -848 l 2,43,44
 3253 -832 3253 -832 3279.5 -821.5 c 128,-1,45
 3306 -811 3306 -811 3328 -811 c 0,46,47
 3381 -811 3381 -811 3418.5 -848.5 c 128,-1,48
 3456 -886 3456 -886 3456 -939 c 0,49,50
 3456 -961 3456 -961 3445 -987 c 128,-1,51
 3434 -1013 3434 -1013 3418 -1029 c 2,52,-1
 3082 -1365 l 1,53,-1
 3418 -1701 l 2,54,55
 3434 -1717 3434 -1717 3445.5 -1743.5 c 128,-1,56
 3457 -1770 3457 -1770 3457 -1793 c 0,57,58
 3457 -1834 3457 -1834 3433.5 -1865.5 c 128,-1,59
 3410 -1897 3410 -1897 3376.5 -1911 c 128,-1,60
 3343 -1925 3343 -1925 3304 -1918.5 c 128,-1,61
 3265 -1912 3265 -1912 3237 -1882 c 2,62,-1
 2901 -1546 l 1,63,-1
 2565 -1882 l 2,64,65
 2550 -1898 2550 -1898 2524.5 -1909 c 128,-1,66
 2499 -1920 2499 -1920 2477 -1921 c 2,67,-1
 2473 -1921 l 2,24,25
2133 -896 m 1,68,-1
 768 -896 l 1,69,-1
 766 -896 l 2,70,71
 713 -896 713 -896 675.5 -858.5 c 128,-1,72
 638 -821 638 -821 638 -768 c 128,-1,73
 638 -715 638 -715 675.5 -677.5 c 128,-1,74
 713 -640 713 -640 766 -640 c 2,75,-1
 768 -640 l 1,76,-1
 2133 -640 l 1,77,-1
 2135 -640 l 2,78,79
 2188 -640 2188 -640 2225.5 -677.5 c 128,-1,80
 2263 -715 2263 -715 2263 -768 c 128,-1,81
 2263 -821 2263 -821 2225.5 -858.5 c 128,-1,82
 2188 -896 2188 -896 2135 -896 c 2,83,-1
 2133 -896 l 1,68,-1
EndSplineSet
EndChar

StartChar: uF0044
Encoding: 983108 983108 73
Width: 4096
Flags: W
LayerCount: 2
Fore
SplineSet
2902 -981 m 0,0,1
 2872 -981 2872 -981 2844 -968 c 2,2,-1
 1164 -128 l 1,3,-1
 0 -128 l 1,4,-1
 0 128 l 1,5,-1
 1164 128 l 1,6,-1
 2844 968 l 2,7,8
 2872 981 2872 981 2901 981 c 0,9,10
 2954 981 2954 981 2991.5 943.5 c 128,-1,11
 3029 906 3029 906 3029 853 c 2,12,-1
 3029 128 l 1,13,-1
 4096 128 l 1,14,-1
 4096 -128 l 1,15,-1
 3029 -128 l 1,16,-1
 3029 -853 l 2,17,18
 3029 -906 3029 -906 2992 -943.5 c 128,-1,19
 2955 -981 2955 -981 2902 -981 c 0,0,1
2773 -646 m 1,20,-1
 2773 646 l 1,21,-1
 1481 0 l 1,22,-1
 2773 -646 l 1,20,-1
EndSplineSet
EndChar

StartChar: uF0045
Encoding: 983109 983109 74
Width: 4096
Flags: W
LayerCount: 2
Fore
SplineSet
3328 -2391 m 1,0,-1
 768 -2391 l 1,1,-1
 766 -2391 l 2,2,3
 713 -2391 713 -2391 675.5 -2353.5 c 128,-1,4
 638 -2316 638 -2316 638 -2263 c 128,-1,5
 638 -2210 638 -2210 675.5 -2172.5 c 128,-1,6
 713 -2135 713 -2135 766 -2135 c 2,7,-1
 768 -2135 l 1,8,-1
 1920 -2135 l 1,9,-1
 1920 -130 l 1,10,-1
 1920 -128 l 1,11,-1
 0 -128 l 1,12,-1
 0 128 l 1,13,-1
 4096 128 l 1,14,-1
 4096 -128 l 1,15,-1
 2176 -128 l 1,16,-1
 2176 -130 l 1,17,-1
 2176 -2135 l 1,18,-1
 3328 -2135 l 1,19,-1
 3330 -2135 l 2,20,21
 3383 -2135 3383 -2135 3420.5 -2172.5 c 128,-1,22
 3458 -2210 3458 -2210 3458 -2263 c 128,-1,23
 3458 -2316 3458 -2316 3420.5 -2353.5 c 128,-1,24
 3383 -2391 3383 -2391 3330 -2391 c 2,25,-1
 3328 -2391 l 1,0,-1
EndSplineSet
EndChar

StartChar: uF0046
Encoding: 983110 983110 75
Width: 4096
Flags: W
LayerCount: 2
Fore
SplineSet
4096 -128 m 1,0,-1
 0 -128 l 1,1,-1
 0 128 l 1,2,-1
 4096 128 l 1,3,-1
 4096 -128 l 1,0,-1
2048 -2549 m 1,4,5
 1847 -2347 1847 -2347 1444 -1944 c 128,-1,6
 1041 -1541 1041 -1541 839 -1339 c 1,7,-1
 2048 -130 l 1,8,-1
 3257 -1339 l 1,9,10
 3055 -1541 3055 -1541 2652 -1944 c 128,-1,11
 2249 -2347 2249 -2347 2048 -2549 c 1,4,5
2048 -2341 m 1,12,13
 2716 -1673 2716 -1673 3049 -1339 c 1,14,-1
 2048 -338 l 1,15,-1
 1047 -1339 l 1,16,17
 1380 -1673 1380 -1673 2048 -2341 c 1,12,13
2067 -2021 m 2,18,19
 2012 -2021 2012 -2021 1960 -2012 c 0,20,21
 1850 -1996 1850 -1996 1760 -1926.5 c 128,-1,22
 1670 -1857 1670 -1857 1639 -1754 c 0,23,24
 1627 -1715 1627 -1715 1627 -1674 c 0,25,26
 1627 -1561 1627 -1561 1703 -1480 c 0,27,28
 1739 -1437 1739 -1437 1817 -1370 c 128,-1,29
 1895 -1303 1895 -1303 1924 -1273 c 0,30,31
 1931 -1267 1931 -1267 1936.5 -1259 c 128,-1,32
 1942 -1251 1942 -1251 1946 -1244 c 128,-1,33
 1950 -1237 1950 -1237 1953.5 -1227 c 128,-1,34
 1957 -1217 1957 -1217 1959 -1211 c 128,-1,35
 1961 -1205 1961 -1205 1962.5 -1192.5 c 128,-1,36
 1964 -1180 1964 -1180 1964.5 -1174.5 c 128,-1,37
 1965 -1169 1965 -1169 1965.5 -1155.5 c 128,-1,38
 1966 -1142 1966 -1142 1966 -1138 c 128,-1,39
 1966 -1134 1966 -1134 1966 -1119 c 128,-1,40
 1966 -1104 1966 -1104 1966 -1101 c 2,41,-1
 2179 -1101 l 1,42,43
 2183 -1240 2183 -1240 2153 -1310 c 0,44,45
 2131 -1359 2131 -1359 2093.5 -1400 c 128,-1,46
 2056 -1441 2056 -1441 1995.5 -1489.5 c 128,-1,47
 1935 -1538 1935 -1538 1913 -1559 c 0,48,49
 1869 -1593 1869 -1593 1858 -1650 c 128,-1,50
 1847 -1707 1847 -1707 1877 -1754 c 0,51,52
 1932 -1843 1932 -1843 2056 -1843 c 0,53,54
 2097 -1843 2097 -1843 2139 -1830 c 0,55,56
 2199 -1811 2199 -1811 2237.5 -1757.5 c 128,-1,57
 2276 -1704 2276 -1704 2289 -1636 c 1,58,59
 2360 -1645 2360 -1645 2504 -1663 c 1,60,61
 2498 -1784 2498 -1784 2417 -1876 c 0,62,63
 2358 -1948 2358 -1948 2267 -1984.5 c 128,-1,64
 2176 -2021 2176 -2021 2075 -2021 c 2,65,-1
 2067 -2021 l 2,18,19
2179 -1021 m 1,66,-1
 1945 -1021 l 1,67,-1
 1945 -786 l 1,68,-1
 2179 -786 l 1,69,-1
 2179 -1021 l 1,66,-1
EndSplineSet
EndChar

StartChar: uF0047
Encoding: 983111 983111 76
Width: 4096
Flags: W
LayerCount: 2
Fore
SplineSet
3775 -2021 m 2,0,-1
 329 -2021 l 2,1,2
 294 -2021 294 -2021 268.5 -1996 c 128,-1,3
 243 -1971 243 -1971 243 -1936 c 2,4,-1
 243 -652 l 2,5,6
 243 -637 243 -637 239 -591.5 c 128,-1,7
 235 -546 235 -546 235 -517 c 0,8,9
 235 -402 235 -402 292 -320 c 0,10,11
 357 -226 357 -226 501 -178.5 c 128,-1,12
 645 -131 645 -131 898 -128 c 2,13,-1
 0 -128 l 1,14,-1
 0 128 l 1,15,-1
 4096 128 l 1,16,-1
 4096 -128 l 1,17,-1
 3028 -128 l 2,18,19
 3308 -130 3308 -130 3463 -153.5 c 128,-1,20
 3618 -177 3618 -177 3712 -239 c 0,21,22
 3812 -304 3812 -304 3842 -426 c 0,23,24
 3860 -497 3860 -497 3860 -652 c 2,25,-1
 3860 -1936 l 2,26,27
 3860 -1971 3860 -1971 3835 -1996 c 128,-1,28
 3810 -2021 3810 -2021 3775 -2021 c 2,0,-1
3690 -1850 m 1,29,-1
 3690 -653 l 2,30,31
 3690 -521 3690 -521 3677 -468 c 0,32,33
 3668 -435 3668 -435 3656 -417 c 128,-1,34
 3644 -399 3644 -399 3618 -382 c 0,35,36
 3494 -299 3494 -299 2976 -299 c 2,37,-1
 2945 -299 l 2,38,39
 2917 -299 2917 -299 2822.5 -299.5 c 128,-1,40
 2728 -300 2728 -300 2663 -300 c 0,41,42
 2548 -300 2548 -300 2236 -299.5 c 128,-1,43
 1924 -299 1924 -299 1752 -299 c 0,44,45
 1197 -299 1197 -299 900 -302 c 0,46,47
 509 -308 509 -308 432 -417 c 0,48,49
 420 -434 420 -434 415 -461 c 128,-1,50
 410 -488 410 -488 410.5 -510.5 c 128,-1,51
 411 -533 411 -533 412.5 -578.5 c 128,-1,52
 414 -624 414 -624 414 -652 c 2,53,-1
 414 -1850 l 1,54,-1
 3690 -1850 l 1,29,-1
EndSplineSet
EndChar

StartChar: uF0048
Encoding: 983112 983112 77
Width: 4096
Flags: W
LayerCount: 2
Fore
SplineSet
2048 -2987 m 128,-1,1
 1852 -2987 1852 -2987 1685 -2889.5 c 128,-1,2
 1518 -2792 1518 -2792 1420.5 -2625 c 128,-1,3
 1323 -2458 1323 -2458 1323 -2262 c 0,4,5
 1323 -2086 1323 -2086 1403 -1931.5 c 128,-1,6
 1483 -1777 1483 -1777 1622 -1676.5 c 128,-1,7
 1761 -1576 1761 -1576 1931 -1548 c 1,8,9
 1920 -1522 1920 -1522 1920 -1496 c 2,10,-1
 1920 -1495 l 1,11,-1
 1920 -130 l 1,12,-1
 1920 -128 l 1,13,-1
 0 -128 l 1,14,-1
 0 128 l 1,15,-1
 4096 128 l 1,16,-1
 4096 -128 l 1,17,-1
 2176 -128 l 1,18,-1
 2176 -130 l 1,19,-1
 2176 -1495 l 1,20,-1
 2176 -1496 l 2,21,22
 2176 -1522 2176 -1522 2165 -1548 c 1,23,24
 2335 -1576 2335 -1576 2474 -1676.5 c 128,-1,25
 2613 -1777 2613 -1777 2693 -1931.5 c 128,-1,26
 2773 -2086 2773 -2086 2773 -2262 c 0,27,28
 2773 -2458 2773 -2458 2675.5 -2625 c 128,-1,29
 2578 -2792 2578 -2792 2411 -2889.5 c 128,-1,0
 2244 -2987 2244 -2987 2048 -2987 c 128,-1,1
2048 -2731 m 128,-1,31
 2176 -2731 2176 -2731 2284 -2668.5 c 128,-1,32
 2392 -2606 2392 -2606 2454.5 -2498 c 128,-1,33
 2517 -2390 2517 -2390 2517 -2262 c 128,-1,34
 2517 -2134 2517 -2134 2454.5 -2026 c 128,-1,35
 2392 -1918 2392 -1918 2284 -1855.5 c 128,-1,36
 2176 -1793 2176 -1793 2048 -1793 c 128,-1,37
 1920 -1793 1920 -1793 1812 -1855.5 c 128,-1,38
 1704 -1918 1704 -1918 1641.5 -2026 c 128,-1,39
 1579 -2134 1579 -2134 1579 -2262 c 128,-1,40
 1579 -2390 1579 -2390 1641.5 -2498 c 128,-1,41
 1704 -2606 1704 -2606 1812 -2668.5 c 128,-1,30
 1920 -2731 1920 -2731 2048 -2731 c 128,-1,31
EndSplineSet
EndChar

StartChar: uF0049
Encoding: 983113 983113 78
Width: 4096
Flags: W
LayerCount: 2
Fore
SplineSet
2048 -3044 m 128,-1,1
 1852 -3044 1852 -3044 1685 -2946.5 c 128,-1,2
 1518 -2849 1518 -2849 1420.5 -2682 c 128,-1,3
 1323 -2515 1323 -2515 1323 -2318 c 0,4,5
 1323 -2052 1323 -2052 1497 -1849.5 c 128,-1,6
 1671 -1647 1671 -1647 1930 -1604 c 1,7,8
 1939 -1572 1939 -1572 1963 -1548 c 0,9,10
 2032 -1479 2032 -1479 2027 -1455 c 0,11,12
 2023 -1439 2023 -1439 1957 -1370 c 0,13,14
 1928 -1341 1928 -1341 1916.5 -1328 c 128,-1,15
 1905 -1315 1905 -1315 1880.5 -1283 c 128,-1,16
 1856 -1251 1856 -1251 1842 -1217 c 128,-1,17
 1828 -1183 1828 -1183 1822 -1144 c 0,18,19
 1818 -1124 1818 -1124 1818 -1098 c 0,20,21
 1818 -965 1818 -965 1941 -817 c 0,22,23
 1956 -799 1956 -799 1959 -796 c 0,24,25
 2027 -728 2027 -728 2022 -703 c 0,26,27
 2017 -685 2017 -685 1952 -618 c 0,28,29
 1887 -550 1887 -550 1862 -511 c 0,30,31
 1828 -455 1828 -455 1817 -392 c 0,32,33
 1813 -362 1813 -362 1813 -347 c 0,34,35
 1813 -243 1813 -243 1889 -128 c 1,36,-1
 0 -128 l 1,37,-1
 0 128 l 1,38,-1
 4096 128 l 1,39,-1
 4096 -128 l 1,40,-1
 2179 -128 l 1,41,42
 2179 -149 2179 -149 2168.5 -174.5 c 128,-1,43
 2158 -200 2158 -200 2144 -216 c 0,44,45
 2061 -308 2061 -308 2070 -350 c 0,46,47
 2074 -375 2074 -375 2136 -440 c 0,48,49
 2138 -442 2138 -442 2159 -462.5 c 128,-1,50
 2180 -483 2180 -483 2187 -491 c 128,-1,51
 2194 -499 2194 -499 2211 -520.5 c 128,-1,52
 2228 -542 2228 -542 2237 -558 c 128,-1,53
 2246 -574 2246 -574 2256 -598.5 c 128,-1,54
 2266 -623 2266 -623 2272 -649 c 0,55,56
 2278 -674 2278 -674 2278 -700 c 0,57,58
 2278 -829 2278 -829 2157 -958 c 0,59,60
 2156 -960 2156 -960 2153 -963.5 c 128,-1,61
 2150 -967 2150 -967 2149 -968 c 0,62,63
 2068 -1058 2068 -1058 2074 -1102 c 0,64,65
 2080 -1128 2080 -1128 2141 -1192 c 0,66,67
 2145 -1196 2145 -1196 2163.5 -1215 c 128,-1,68
 2182 -1234 2182 -1234 2190.5 -1243 c 128,-1,69
 2199 -1252 2199 -1252 2215.5 -1272.5 c 128,-1,70
 2232 -1293 2232 -1293 2241.5 -1309.5 c 128,-1,71
 2251 -1326 2251 -1326 2261 -1350.5 c 128,-1,72
 2271 -1375 2271 -1375 2277 -1401 c 0,73,74
 2299 -1504 2299 -1504 2232 -1618 c 1,75,76
 2467 -1680 2467 -1680 2620 -1875 c 128,-1,77
 2773 -2070 2773 -2070 2773 -2318 c 0,78,79
 2773 -2515 2773 -2515 2675.5 -2682 c 128,-1,80
 2578 -2849 2578 -2849 2411 -2946.5 c 128,-1,0
 2244 -3044 2244 -3044 2048 -3044 c 128,-1,1
2048 -2788 m 128,-1,82
 2176 -2788 2176 -2788 2284 -2725.5 c 128,-1,83
 2392 -2663 2392 -2663 2454.5 -2554.5 c 128,-1,84
 2517 -2446 2517 -2446 2517 -2318 c 128,-1,85
 2517 -2190 2517 -2190 2454.5 -2082 c 128,-1,86
 2392 -1974 2392 -1974 2284 -1911.5 c 128,-1,87
 2176 -1849 2176 -1849 2048 -1849 c 128,-1,88
 1920 -1849 1920 -1849 1812 -1911.5 c 128,-1,89
 1704 -1974 1704 -1974 1641.5 -2082 c 128,-1,90
 1579 -2190 1579 -2190 1579 -2318 c 128,-1,91
 1579 -2446 1579 -2446 1641.5 -2554.5 c 128,-1,92
 1704 -2663 1704 -2663 1812 -2725.5 c 128,-1,81
 1920 -2788 1920 -2788 2048 -2788 c 128,-1,82
EndSplineSet
EndChar

StartChar: uF004A
Encoding: 983114 983114 79
Width: 4096
Flags: W
LayerCount: 2
Fore
SplineSet
2048 -3075 m 128,-1,1
 1852 -3075 1852 -3075 1685 -2977.5 c 128,-1,2
 1518 -2880 1518 -2880 1420.5 -2713 c 128,-1,3
 1323 -2546 1323 -2546 1323 -2350 c 0,4,5
 1323 -2190 1323 -2190 1389.5 -2048 c 128,-1,6
 1456 -1906 1456 -1906 1573 -1804 c 1,7,8
 1500 -1748 1500 -1748 1458.5 -1669 c 128,-1,9
 1417 -1590 1417 -1590 1416 -1504 c 0,10,11
 1416 -1362 1416 -1362 1551 -1232 c 1,12,13
 1430 -1108 1430 -1108 1430 -975 c 2,14,-1
 1430 -967 l 2,15,16
 1433 -830 1433 -830 1562 -697 c 1,17,18
 1434 -574 1434 -574 1434 -439 c 2,19,-1
 1434 -436 l 2,20,21
 1435 -350 1435 -350 1475 -269 c 128,-1,22
 1515 -188 1515 -188 1588 -128 c 1,23,-1
 0 -128 l 1,24,-1
 0 128 l 1,25,-1
 4096 128 l 1,26,-1
 4096 -128 l 1,27,-1
 2275 -128 l 1,28,29
 2276 -132 2276 -132 2276 -143 c 0,30,31
 2276 -196 2276 -196 2238.5 -233.5 c 128,-1,32
 2201 -271 2201 -271 2148 -271 c 0,33,34
 2144 -271 2144 -271 2123 -268 c 0,35,36
 2050 -256 2050 -256 1991 -256 c 0,37,38
 1857 -256 1857 -256 1776 -307 c 0,39,40
 1690 -360 1690 -360 1690 -438 c 0,41,42
 1688 -508 1688 -508 1764 -548 c 0,43,44
 1770 -551 1770 -551 1787.5 -554.5 c 128,-1,45
 1805 -558 1805 -558 1809 -559 c 0,46,47
 1912 -534 1912 -534 2007 -534 c 0,48,49
 2088 -534 2088 -534 2163 -549 c 0,50,51
 2206 -557 2206 -557 2236 -593.5 c 128,-1,52
 2266 -630 2266 -630 2266 -674 c 0,53,54
 2266 -715 2266 -715 2238.5 -751.5 c 128,-1,55
 2211 -788 2211 -788 2172 -798 c 0,56,57
 2056 -829 2056 -829 1945 -829 c 0,58,59
 1880 -829 1880 -829 1822 -820 c 0,60,61
 1816 -822 1816 -822 1799 -827 c 128,-1,62
 1782 -832 1782 -832 1775 -836 c 0,63,64
 1688 -890 1688 -890 1686 -974 c 0,65,66
 1684 -1048 1684 -1048 1758 -1089 c 0,67,68
 1764 -1092 1764 -1092 1781.5 -1095.5 c 128,-1,69
 1799 -1099 1799 -1099 1804 -1100 c 0,70,71
 1906 -1077 1906 -1077 2004 -1077 c 0,72,73
 2073 -1077 2073 -1077 2151 -1089 c 0,74,75
 2196 -1096 2196 -1096 2227.5 -1133 c 128,-1,76
 2259 -1170 2259 -1170 2259 -1215 c 0,77,78
 2259 -1255 2259 -1255 2231.5 -1291.5 c 128,-1,79
 2204 -1328 2204 -1328 2165 -1339 c 0,80,81
 2051 -1371 2051 -1371 1939 -1371 c 0,82,83
 1881 -1371 1881 -1371 1814 -1361 c 0,84,85
 1809 -1363 1809 -1363 1786 -1369.5 c 128,-1,86
 1763 -1376 1763 -1376 1755 -1381 c 0,87,88
 1672 -1430 1672 -1430 1672 -1503 c 0,89,90
 1674 -1573 1674 -1573 1752 -1617 c 0,91,92
 1796 -1640 1796 -1640 1862 -1650 c 1,93,94
 1956 -1625 1956 -1625 2048 -1625 c 0,95,96
 2244 -1625 2244 -1625 2411 -1722.5 c 128,-1,97
 2578 -1820 2578 -1820 2675.5 -1987 c 128,-1,98
 2773 -2154 2773 -2154 2773 -2350 c 128,-1,99
 2773 -2546 2773 -2546 2675.5 -2713 c 128,-1,100
 2578 -2880 2578 -2880 2411 -2977.5 c 128,-1,0
 2244 -3075 2244 -3075 2048 -3075 c 128,-1,1
2048 -2819 m 128,-1,102
 2176 -2819 2176 -2819 2284 -2756.5 c 128,-1,103
 2392 -2694 2392 -2694 2454.5 -2586 c 128,-1,104
 2517 -2478 2517 -2478 2517 -2350 c 0,105,106
 2517 -2179 2517 -2179 2409 -2049.5 c 128,-1,107
 2301 -1920 2301 -1920 2136 -1889 c 1,108,109
 2007 -1916 2007 -1916 1885 -1910 c 1,110,111
 1749 -1960 1749 -1960 1664 -2080 c 128,-1,112
 1579 -2200 1579 -2200 1579 -2350 c 0,113,114
 1579 -2478 1579 -2478 1641.5 -2586 c 128,-1,115
 1704 -2694 1704 -2694 1812 -2756.5 c 128,-1,101
 1920 -2819 1920 -2819 2048 -2819 c 128,-1,102
EndSplineSet
EndChar

StartChar: uF004B
Encoding: 983115 983115 80
Width: 4096
Flags: W
LayerCount: 2
Fore
SplineSet
2048 -2303 m 128,-1,1
 1995 -2303 1995 -2303 1957.5 -2265.5 c 128,-1,2
 1920 -2228 1920 -2228 1920 -2175 c 2,3,-1
 1920 -2173 l 1,4,-1
 1920 -130 l 1,5,-1
 1920 -128 l 1,6,-1
 0 -128 l 1,7,-1
 0 128 l 1,8,-1
 4096 128 l 1,9,-1
 4096 -128 l 1,10,-1
 2176 -128 l 1,11,-1
 2176 -130 l 1,12,-1
 2176 -2173 l 1,13,-1
 2176 -2175 l 2,14,15
 2176 -2227 2176 -2227 2138.5 -2265 c 128,-1,0
 2101 -2303 2101 -2303 2048 -2303 c 128,-1,1
EndSplineSet
EndChar

StartChar: uF004C
Encoding: 983116 983116 81
Width: 4096
Flags: W
LayerCount: 2
Fore
SplineSet
2047 -2525 m 2,0,-1
 2043 -2525 l 2,1,2
 1990 -2525 1990 -2525 1952.5 -2487.5 c 128,-1,3
 1915 -2450 1915 -2450 1915 -2397 c 0,4,5
 1915 -2375 1915 -2375 1926.5 -2348.5 c 128,-1,6
 1938 -2322 1938 -2322 1954 -2306 c 0,7,8
 2024 -2236 2024 -2236 2018 -2213 c 0,9,10
 2017 -2211 2017 -2211 2010 -2200.5 c 128,-1,11
 2003 -2190 2003 -2190 1986 -2169.5 c 128,-1,12
 1969 -2149 1969 -2149 1948 -2127 c 0,13,14
 1882 -2060 1882 -2060 1857 -2020 c 0,15,16
 1823 -1964 1823 -1964 1813 -1902 c 0,17,18
 1809 -1882 1809 -1882 1809 -1855 c 0,19,20
 1809 -1712 1809 -1712 1950 -1554 c 0,21,22
 1968 -1532 1968 -1532 1992 -1522 c 1,23,24
 2036 -1473 2036 -1473 2031 -1455 c 128,-1,25
 2026 -1437 2026 -1437 1961 -1370 c 0,26,27
 1960 -1369 1960 -1369 1945.5 -1353.5 c 128,-1,28
 1931 -1338 1931 -1338 1927.5 -1334 c 128,-1,29
 1924 -1330 1924 -1330 1910.5 -1315 c 128,-1,30
 1897 -1300 1897 -1300 1891.5 -1292 c 128,-1,31
 1886 -1284 1886 -1284 1875 -1268.5 c 128,-1,32
 1864 -1253 1864 -1253 1858.5 -1240.5 c 128,-1,33
 1853 -1228 1853 -1228 1845.5 -1212 c 128,-1,34
 1838 -1196 1838 -1196 1833.5 -1179 c 128,-1,35
 1829 -1162 1829 -1162 1826 -1144 c 0,36,37
 1822 -1114 1822 -1114 1822 -1099 c 0,38,39
 1822 -963 1822 -963 1947 -816 c 0,40,41
 1953 -807 1953 -807 1963 -797 c 2,42,-1
 1964 -796 l 2,43,44
 1966 -793 1966 -793 1972 -787 c 0,45,46
 2032 -725 2032 -725 2027 -703 c 0,47,48
 2023 -687 2023 -687 1957 -618 c 0,49,50
 1928 -589 1928 -589 1916.5 -576 c 128,-1,51
 1905 -563 1905 -563 1880.5 -531 c 128,-1,52
 1856 -499 1856 -499 1842 -465 c 128,-1,53
 1828 -431 1828 -431 1822 -392 c 0,54,55
 1818 -372 1818 -372 1818 -346 c 0,56,57
 1818 -241 1818 -241 1893 -128 c 1,58,-1
 0 -128 l 1,59,-1
 0 128 l 1,60,-1
 4096 128 l 1,61,-1
 4096 -128 l 1,62,-1
 2183 -128 l 1,63,64
 2183 -149 2183 -149 2173 -174.5 c 128,-1,65
 2163 -200 2163 -200 2149 -216 c 0,66,67
 2068 -306 2068 -306 2074 -350 c 0,68,69
 2080 -376 2080 -376 2141 -439 c 0,70,71
 2145 -443 2145 -443 2164 -462.5 c 128,-1,72
 2183 -482 2183 -482 2191.5 -491 c 128,-1,73
 2200 -500 2200 -500 2216.5 -520.5 c 128,-1,74
 2233 -541 2233 -541 2242 -557.5 c 128,-1,75
 2251 -574 2251 -574 2261 -598.5 c 128,-1,76
 2271 -623 2271 -623 2277 -649 c 0,77,78
 2282 -670 2282 -670 2282 -700 c 0,79,80
 2282 -830 2282 -830 2156 -964 c 1,81,-1
 2156 -965 l 1,82,-1
 2155 -966 l 1,83,-1
 2153 -968 l 1,84,85
 2070 -1060 2070 -1060 2079 -1102 c 0,86,87
 2083 -1127 2083 -1127 2145 -1191 c 0,88,89
 2149 -1195 2149 -1195 2168 -1214.5 c 128,-1,90
 2187 -1234 2187 -1234 2195.5 -1243 c 128,-1,91
 2204 -1252 2204 -1252 2220.5 -1272.5 c 128,-1,92
 2237 -1293 2237 -1293 2246 -1309.5 c 128,-1,93
 2255 -1326 2255 -1326 2265 -1350.5 c 128,-1,94
 2275 -1375 2275 -1375 2281 -1401 c 0,95,96
 2287 -1426 2287 -1426 2287 -1454 c 0,97,98
 2287 -1591 2287 -1591 2149 -1729 c 0,99,100
 2139 -1739 2139 -1739 2118 -1753 c 1,101,102
 2059 -1825 2059 -1825 2065 -1859 c 0,103,104
 2070 -1885 2070 -1885 2131 -1949 c 0,105,106
 2135 -1953 2135 -1953 2154.5 -1972 c 128,-1,107
 2174 -1991 2174 -1991 2182 -2000 c 128,-1,108
 2190 -2009 2190 -2009 2207 -2029.5 c 128,-1,109
 2224 -2050 2224 -2050 2233 -2066.5 c 128,-1,110
 2242 -2083 2242 -2083 2252 -2107.5 c 128,-1,111
 2262 -2132 2262 -2132 2268 -2158 c 0,112,113
 2273 -2179 2273 -2179 2273 -2209 c 0,114,115
 2273 -2349 2273 -2349 2135 -2487 c 0,116,117
 2120 -2502 2120 -2502 2094 -2513.5 c 128,-1,118
 2068 -2525 2068 -2525 2047 -2525 c 2,0,-1
EndSplineSet
EndChar

StartChar: uF004D
Encoding: 983117 983117 82
Width: 4096
Flags: W
LayerCount: 2
Fore
SplineSet
2105 -2453 m 0,0,1
 2091 -2453 2091 -2453 2063 -2451 c 1,2,-1
 2063 -2452 l 1,3,4
 1933 -2445 1933 -2445 1829 -2389 c 0,5,6
 1733 -2336 1733 -2336 1678.5 -2244 c 128,-1,7
 1624 -2152 1624 -2152 1624 -2051 c 2,8,-1
 1624 -2043 l 1,9,10
 1628 -1910 1628 -1910 1749 -1781 c 1,11,12
 1688 -1725 1688 -1725 1654 -1653 c 128,-1,13
 1620 -1581 1620 -1581 1620 -1504 c 0,14,15
 1619 -1395 1619 -1395 1705 -1287 c 0,16,17
 1726 -1257 1726 -1257 1753 -1230 c 1,18,19
 1633 -1107 1633 -1107 1633 -973 c 2,20,-1
 1633 -967 l 1,21,22
 1637 -829 1637 -829 1765 -698 c 1,23,24
 1637 -572 1637 -572 1637 -439 c 2,25,-1
 1637 -436 l 2,26,27
 1638 -350 1638 -350 1678 -269 c 128,-1,28
 1718 -188 1718 -188 1791 -128 c 1,29,-1
 0 -128 l 1,30,-1
 0 128 l 1,31,-1
 4096 128 l 1,32,-1
 4096 -128 l 1,33,-1
 2475 -128 l 1,34,35
 2476 -132 2476 -132 2476 -142 c 0,36,37
 2476 -195 2476 -195 2438.5 -232.5 c 128,-1,38
 2401 -270 2401 -270 2348 -270 c 0,39,40
 2338 -270 2338 -270 2326 -268 c 0,41,42
 2252 -256 2252 -256 2194 -256 c 0,43,44
 2061 -256 2061 -256 1980 -307 c 0,45,46
 1893 -361 1893 -361 1893 -438 c 0,47,48
 1893 -508 1893 -508 1967 -548 c 0,49,50
 1973 -551 1973 -551 1990.5 -554.5 c 128,-1,51
 2008 -558 2008 -558 2013 -559 c 0,52,53
 2116 -534 2116 -534 2211 -534 c 0,54,55
 2291 -534 2291 -534 2366 -549 c 0,56,57
 2409 -557 2409 -557 2439.5 -594 c 128,-1,58
 2470 -631 2470 -631 2470 -675 c 0,59,60
 2470 -716 2470 -716 2442.5 -752 c 128,-1,61
 2415 -788 2415 -788 2376 -798 c 0,62,63
 2259 -829 2259 -829 2148 -829 c 0,64,65
 2084 -829 2084 -829 2025 -820 c 0,66,67
 2020 -822 2020 -822 2002.5 -827 c 128,-1,68
 1985 -832 1985 -832 1979 -836 c 0,69,70
 1891 -890 1891 -890 1889 -974 c 0,71,72
 1887 -1048 1887 -1048 1961 -1089 c 0,73,74
 1962 -1089 1962 -1089 1999 -1098 c 1,75,76
 2109 -1071 2109 -1071 2242 -1078 c 0,77,78
 2253 -1079 2253 -1079 2277 -1081 c 0,79,80
 2284 -1081 2284 -1081 2288 -1082 c 0,81,82
 2345 -1087 2345 -1087 2354 -1089 c 0,83,84
 2366 -1090 2366 -1090 2383 -1097 c 0,85,86
 2419 -1109 2419 -1109 2444.5 -1144.5 c 128,-1,87
 2470 -1180 2470 -1180 2470 -1218 c 0,88,89
 2470 -1271 2470 -1271 2432.5 -1308.5 c 128,-1,90
 2395 -1346 2395 -1346 2342 -1346 c 2,91,-1
 2335 -1346 l 1,92,93
 2235 -1370 2235 -1370 2137 -1370 c 0,94,95
 2075 -1370 2075 -1370 2018 -1361 c 0,96,97
 2017 -1362 2017 -1362 2015 -1362 c 0,98,99
 1977 -1378 1977 -1378 1970 -1383 c 0,100,101
 1884 -1437 1884 -1437 1884 -1514 c 0,102,103
 1884 -1541 1884 -1541 1896 -1565 c 0,104,105
 1916 -1595 1916 -1595 1955 -1617 c 0,106,107
 1964 -1622 1964 -1622 1995 -1633 c 0,108,109
 1996 -1634 1996 -1634 1999 -1634 c 128,-1,110
 2002 -1634 2002 -1634 2004 -1635 c 0,111,112
 2107 -1610 2107 -1610 2202 -1610 c 0,113,114
 2282 -1610 2282 -1610 2357 -1625 c 0,115,116
 2400 -1633 2400 -1633 2430 -1669.5 c 128,-1,117
 2460 -1706 2460 -1706 2460 -1750 c 0,118,119
 2460 -1774 2460 -1774 2447.5 -1802 c 128,-1,120
 2435 -1830 2435 -1830 2418 -1846 c 0,121,122
 2390 -1878 2390 -1878 2348 -1887 c 0,123,124
 2238 -1912 2238 -1912 2135 -1912 c 0,125,126
 2091 -1912 2091 -1912 2059 -1908 c 0,127,128
 2023 -1904 2023 -1904 2003 -1900 c 1,129,130
 1973 -1910 1973 -1910 1970 -1912 c 0,131,132
 1882 -1966 1882 -1966 1880 -2050 c 0,133,134
 1878 -2124 1878 -2124 1952 -2164 c 0,135,136
 2009 -2196 2009 -2196 2102 -2196 c 0,137,138
 2187 -2196 2187 -2196 2291 -2168 c 0,139,140
 2308 -2163 2308 -2163 2327 -2163 c 0,141,142
 2380 -2163 2380 -2163 2417.5 -2200.5 c 128,-1,143
 2455 -2238 2455 -2238 2455 -2291 c 0,144,145
 2455 -2332 2455 -2332 2427 -2368.5 c 128,-1,146
 2399 -2405 2399 -2405 2359 -2415 c 0,147,148
 2240 -2447 2240 -2447 2131 -2452 c 0,149,150
 2127 -2452 2127 -2452 2118.5 -2452.5 c 128,-1,151
 2110 -2453 2110 -2453 2105 -2453 c 0,0,1
EndSplineSet
EndChar

StartChar: uF004E
Encoding: 983118 983118 83
Width: 4096
Flags: W
LayerCount: 2
Fore
SplineSet
1364 -3161 m 0,0,1
 1311 -3161 1311 -3161 1273.5 -3123.5 c 128,-1,2
 1236 -3086 1236 -3086 1236 -3033 c 0,3,4
 1236 -3010 1236 -3010 1247.5 -2983 c 128,-1,5
 1259 -2956 1259 -2956 1275 -2941 c 2,6,-1
 1867 -2348 l 1,7,-1
 1275 -1756 l 2,8,9
 1258 -1740 1258 -1740 1246.5 -1713 c 128,-1,10
 1235 -1686 1235 -1686 1235 -1664 c 0,11,12
 1235 -1611 1235 -1611 1273 -1573.5 c 128,-1,13
 1311 -1536 1311 -1536 1364 -1536 c 0,14,15
 1386 -1536 1386 -1536 1413 -1547.5 c 128,-1,16
 1440 -1559 1440 -1559 1456 -1575 c 2,17,-1
 1920 -2039 l 1,18,-1
 1920 -130 l 1,19,-1
 1920 -128 l 1,20,-1
 0 -128 l 1,21,-1
 0 128 l 1,22,-1
 4096 128 l 1,23,-1
 4096 -128 l 1,24,-1
 2176 -128 l 1,25,-1
 2176 -130 l 1,26,-1
 2176 -2039 l 1,27,-1
 2640 -1575 l 2,28,29
 2656 -1559 2656 -1559 2683 -1547.5 c 128,-1,30
 2710 -1536 2710 -1536 2732 -1536 c 0,31,32
 2785 -1536 2785 -1536 2823 -1573.5 c 128,-1,33
 2861 -1611 2861 -1611 2861 -1664 c 0,34,35
 2861 -1686 2861 -1686 2849.5 -1713 c 128,-1,36
 2838 -1740 2838 -1740 2821 -1756 c 2,37,-1
 2229 -2348 l 1,38,-1
 2821 -2941 l 2,39,40
 2837 -2956 2837 -2956 2848.5 -2983 c 128,-1,41
 2860 -3010 2860 -3010 2860 -3032 c 0,42,43
 2860 -3085 2860 -3085 2822.5 -3122.5 c 128,-1,44
 2785 -3160 2785 -3160 2732 -3160 c 0,45,46
 2710 -3160 2710 -3160 2683 -3149 c 128,-1,47
 2656 -3138 2656 -3138 2640 -3122 c 2,48,-1
 2048 -2529 l 1,49,-1
 1456 -3122 l 2,50,51
 1440 -3138 1440 -3138 1413 -3149.5 c 128,-1,52
 1386 -3161 1386 -3161 1364 -3161 c 0,0,1
EndSplineSet
EndChar

StartChar: uF004F
Encoding: 983119 983119 84
Width: 4096
Flags: W
LayerCount: 2
Fore
SplineSet
1236 -3053 m 0,0,1
 1236 -3031 1236 -3031 1247.5 -3004 c 128,-1,2
 1259 -2977 1259 -2977 1275 -2962 c 2,3,-1
 1867 -2369 l 1,4,-1
 1275 -1777 l 2,5,6
 1258 -1761 1258 -1761 1246.5 -1734 c 128,-1,7
 1235 -1707 1235 -1707 1235 -1685 c 0,8,9
 1235 -1632 1235 -1632 1273 -1594.5 c 128,-1,10
 1311 -1557 1311 -1557 1364 -1557 c 0,11,12
 1386 -1557 1386 -1557 1413 -1568.5 c 128,-1,13
 1440 -1580 1440 -1580 1456 -1596 c 2,14,-1
 1798 -1938 l 1,15,16
 1792 -1922 1792 -1922 1789 -1902 c 0,17,18
 1785 -1872 1785 -1872 1785 -1856 c 0,19,20
 1785 -1710 1785 -1710 1926 -1554 c 0,21,22
 1942 -1534 1942 -1534 1969 -1521 c 1,23,24
 2012 -1473 2012 -1473 2008 -1455 c 0,25,26
 2004 -1439 2004 -1439 1938 -1370 c 0,27,28
 1909 -1341 1909 -1341 1897.5 -1328 c 128,-1,29
 1886 -1315 1886 -1315 1861.5 -1283 c 128,-1,30
 1837 -1251 1837 -1251 1823 -1217 c 128,-1,31
 1809 -1183 1809 -1183 1803 -1144 c 0,32,33
 1799 -1124 1799 -1124 1799 -1098 c 0,34,35
 1799 -965 1799 -965 1923 -816 c 0,36,37
 1929 -807 1929 -807 1940 -796 c 0,38,39
 1953 -783 1953 -783 1964 -771 c 128,-1,40
 1975 -759 1975 -759 1981.5 -751 c 128,-1,41
 1988 -743 1988 -743 1993 -735.5 c 128,-1,42
 1998 -728 1998 -728 2000 -723.5 c 128,-1,43
 2002 -719 2002 -719 2003 -715 c 128,-1,44
 2004 -711 2004 -711 2004 -709.5 c 128,-1,45
 2004 -708 2004 -708 2004 -706 c 2,46,-1
 2004 -703 l 2,47,48
 2003 -701 2003 -701 1996 -690.5 c 128,-1,49
 1989 -680 1989 -680 1971.5 -660 c 128,-1,50
 1954 -640 1954 -640 1933 -618 c 0,51,52
 1868 -550 1868 -550 1843 -511 c 0,53,54
 1809 -455 1809 -455 1798 -392 c 0,55,56
 1794 -362 1794 -362 1794 -347 c 0,57,58
 1794 -243 1794 -243 1870 -128 c 1,59,-1
 0 -128 l 1,60,-1
 0 128 l 1,61,-1
 4096 128 l 1,62,-1
 4096 -128 l 1,63,-1
 2160 -128 l 1,64,65
 2160 -149 2160 -149 2149.5 -174.5 c 128,-1,66
 2139 -200 2139 -200 2125 -216 c 0,67,68
 2042 -308 2042 -308 2051 -350 c 0,69,70
 2055 -375 2055 -375 2117 -440 c 0,71,72
 2120 -443 2120 -443 2140 -463 c 128,-1,73
 2160 -483 2160 -483 2167.5 -491 c 128,-1,74
 2175 -499 2175 -499 2192.5 -520.5 c 128,-1,75
 2210 -542 2210 -542 2218.5 -558 c 128,-1,76
 2227 -574 2227 -574 2237.5 -598.5 c 128,-1,77
 2248 -623 2248 -623 2254 -649 c 0,78,79
 2259 -670 2259 -670 2259 -700 c 0,80,81
 2259 -830 2259 -830 2133 -964 c 0,82,83
 2132 -965 2132 -965 2130 -968 c 0,84,85
 2049 -1058 2049 -1058 2055 -1102 c 0,86,87
 2061 -1128 2061 -1128 2122 -1192 c 0,88,89
 2124 -1194 2124 -1194 2145 -1214.5 c 128,-1,90
 2166 -1235 2166 -1235 2173 -1243 c 128,-1,91
 2180 -1251 2180 -1251 2197 -1272.5 c 128,-1,92
 2214 -1294 2214 -1294 2223 -1310 c 128,-1,93
 2232 -1326 2232 -1326 2242 -1350.5 c 128,-1,94
 2252 -1375 2252 -1375 2258 -1401 c 0,95,96
 2263 -1422 2263 -1422 2263 -1452 c 0,97,98
 2263 -1591 2263 -1591 2125 -1729 c 0,99,100
 2115 -1740 2115 -1740 2094 -1753 c 1,101,102
 2036 -1825 2036 -1825 2042 -1859 c 0,103,104
 2046 -1885 2046 -1885 2108 -1949 c 0,105,106
 2167 -2008 2167 -2008 2192 -2044 c 1,107,-1
 2640 -1596 l 2,108,109
 2656 -1580 2656 -1580 2683 -1568.5 c 128,-1,110
 2710 -1557 2710 -1557 2732 -1557 c 0,111,112
 2785 -1557 2785 -1557 2823 -1594.5 c 128,-1,113
 2861 -1632 2861 -1632 2861 -1685 c 0,114,115
 2861 -1707 2861 -1707 2849.5 -1734 c 128,-1,116
 2838 -1761 2838 -1761 2821 -1777 c 2,117,-1
 2229 -2369 l 1,118,-1
 2821 -2962 l 2,119,120
 2837 -2977 2837 -2977 2848.5 -3004 c 128,-1,121
 2860 -3031 2860 -3031 2860 -3053 c 0,122,123
 2860 -3094 2860 -3094 2836.5 -3125.5 c 128,-1,124
 2813 -3157 2813 -3157 2779.5 -3170.5 c 128,-1,125
 2746 -3184 2746 -3184 2707.5 -3178 c 128,-1,126
 2669 -3172 2669 -3172 2640 -3143 c 2,127,-1
 2048 -2550 l 1,128,-1
 1456 -3143 l 2,129,130
 1427 -3172 1427 -3172 1388.5 -3178 c 128,-1,131
 1350 -3184 1350 -3184 1316.5 -3171 c 128,-1,132
 1283 -3158 1283 -3158 1259.5 -3126 c 128,-1,133
 1236 -3094 1236 -3094 1236 -3053 c 0,0,1
EndSplineSet
EndChar

StartChar: uF0050
Encoding: 983120 983120 85
Width: 4096
Flags: W
LayerCount: 2
Fore
SplineSet
2732 -3190 m 0,0,1
 2710 -3190 2710 -3190 2683 -3178.5 c 128,-1,2
 2656 -3167 2656 -3167 2640 -3151 c 2,3,-1
 2048 -2559 l 1,4,-1
 1456 -3151 l 2,5,6
 1441 -3166 1441 -3166 1415 -3177.5 c 128,-1,7
 1389 -3189 1389 -3189 1368 -3189 c 2,8,-1
 1364 -3189 l 2,9,10
 1311 -3189 1311 -3189 1273.5 -3151.5 c 128,-1,11
 1236 -3114 1236 -3114 1236 -3061 c 0,12,13
 1236 -3039 1236 -3039 1247.5 -3012.5 c 128,-1,14
 1259 -2986 1259 -2986 1275 -2970 c 2,15,-1
 1867 -2378 l 1,16,-1
 1850 -2360 l 1,17,18
 1700 -2284 1700 -2284 1630 -2140 c 1,19,-1
 1275 -1785 l 2,20,21
 1259 -1770 1259 -1770 1247 -1743 c 128,-1,22
 1235 -1716 1235 -1716 1235 -1693 c 0,23,24
 1235 -1640 1235 -1640 1273 -1602.5 c 128,-1,25
 1311 -1565 1311 -1565 1364 -1565 c 0,26,27
 1386 -1565 1386 -1565 1413 -1576.5 c 128,-1,28
 1440 -1588 1440 -1588 1456 -1604 c 2,29,-1
 1635 -1784 l 1,30,31
 1643 -1772 1643 -1772 1647 -1767 c 1,32,33
 1534 -1652 1534 -1652 1532 -1504 c 0,34,35
 1532 -1412 1532 -1412 1596 -1318 c 0,36,37
 1597 -1316 1597 -1316 1604 -1305 c 128,-1,38
 1611 -1294 1611 -1294 1616 -1289 c 0,39,40
 1637 -1257 1637 -1257 1666 -1230 c 1,41,42
 1546 -1107 1546 -1107 1546 -975 c 2,43,-1
 1546 -967 l 2,44,45
 1549 -830 1549 -830 1677 -697 c 1,46,47
 1549 -572 1549 -572 1549 -439 c 2,48,-1
 1549 -436 l 2,49,50
 1550 -350 1550 -350 1590 -269 c 128,-1,51
 1630 -188 1630 -188 1703 -128 c 1,52,-1
 0 -128 l 1,53,-1
 0 128 l 1,54,-1
 4096 128 l 1,55,-1
 4096 -128 l 1,56,-1
 2391 -128 l 2,57,58
 2391 -130 2391 -130 2391.5 -135.5 c 128,-1,59
 2392 -141 2392 -141 2392 -143 c 0,60,61
 2392 -196 2392 -196 2354 -233.5 c 128,-1,62
 2316 -271 2316 -271 2264 -271 c 0,63,64
 2260 -271 2260 -271 2239 -268 c 0,65,66
 2166 -256 2166 -256 2106 -256 c 0,67,68
 1973 -256 1973 -256 1892 -307 c 0,69,70
 1805 -361 1805 -361 1805 -438 c 0,71,72
 1805 -509 1805 -509 1880 -548 c 0,73,74
 1886 -551 1886 -551 1903.5 -554.5 c 128,-1,75
 1921 -558 1921 -558 1925 -559 c 0,76,77
 2028 -534 2028 -534 2123 -534 c 0,78,79
 2203 -534 2203 -534 2278 -549 c 0,80,81
 2321 -557 2321 -557 2352 -593.5 c 128,-1,82
 2383 -630 2383 -630 2383 -674 c 0,83,84
 2383 -714 2383 -714 2355 -750.5 c 128,-1,85
 2327 -787 2327 -787 2288 -798 c 0,86,87
 2171 -829 2171 -829 2061 -829 c 0,88,89
 1997 -829 1997 -829 1937 -820 c 0,90,91
 1932 -822 1932 -822 1914.5 -827 c 128,-1,92
 1897 -832 1897 -832 1891 -836 c 0,93,94
 1804 -890 1804 -890 1802 -973 c 0,95,96
 1799 -1047 1799 -1047 1874 -1088 c 0,97,98
 1881 -1092 1881 -1092 1911 -1097 c 1,99,100
 2026 -1069 2026 -1069 2161 -1078 c 0,101,102
 2165 -1078 2165 -1078 2172 -1079 c 128,-1,103
 2179 -1080 2179 -1080 2182 -1080 c 2,104,-1
 2212 -1083 l 2,105,106
 2214 -1083 2214 -1083 2235 -1085 c 128,-1,107
 2256 -1087 2256 -1087 2267 -1089 c 0,108,109
 2277 -1091 2277 -1091 2290 -1095 c 0,110,111
 2328 -1106 2328 -1106 2355 -1142 c 128,-1,112
 2382 -1178 2382 -1178 2382 -1218 c 0,113,114
 2382 -1271 2382 -1271 2344.5 -1308.5 c 128,-1,115
 2307 -1346 2307 -1346 2254 -1346 c 2,116,-1
 2248 -1346 l 1,117,118
 2148 -1370 2148 -1370 2050 -1370 c 0,119,120
 1988 -1370 1988 -1370 1931 -1361 c 0,121,122
 1930 -1362 1930 -1362 1927.5 -1362 c 128,-1,123
 1925 -1362 1925 -1362 1924 -1363 c 0,124,125
 1894 -1375 1894 -1375 1883 -1382 c 0,126,127
 1796 -1436 1796 -1436 1796 -1513 c 0,128,129
 1796 -1541 1796 -1541 1808 -1565 c 1,130,131
 1831 -1597 1831 -1597 1868 -1616 c 0,132,133
 1871 -1618 1871 -1618 1878 -1621 c 128,-1,134
 1885 -1624 1885 -1624 1887 -1625 c 0,135,136
 1977 -1604 1977 -1604 2072 -1604 c 0,137,138
 2165 -1604 2165 -1604 2269 -1624 c 0,139,140
 2312 -1632 2312 -1632 2342.5 -1669 c 128,-1,141
 2373 -1706 2373 -1706 2373 -1750 c 0,142,143
 2373 -1795 2373 -1795 2346 -1829 c 0,144,145
 2334 -1849 2334 -1849 2308.5 -1866 c 128,-1,146
 2283 -1883 2283 -1883 2260 -1887 c 0,147,148
 2150 -1912 2150 -1912 2047 -1912 c 0,149,150
 2004 -1912 2004 -1912 1972 -1908 c 0,151,152
 1924 -1904 1924 -1904 1876 -1891 c 1,153,154
 1855 -1903 1855 -1903 1847.5 -1914.5 c 128,-1,155
 1840 -1926 1840 -1926 1839 -1946 c 0,156,157
 1837 -1969 1837 -1969 1853 -2002 c 1,158,-1
 1993 -2142 l 1,159,160
 2031 -2160 2031 -2160 2060 -2165 c 0,161,162
 2064 -2165 2064 -2165 2076 -2168 c 1,163,-1
 2640 -1604 l 2,164,165
 2656 -1588 2656 -1588 2683 -1576.5 c 128,-1,166
 2710 -1565 2710 -1565 2732 -1565 c 0,167,168
 2785 -1565 2785 -1565 2823 -1602.5 c 128,-1,169
 2861 -1640 2861 -1640 2861 -1693 c 0,170,171
 2861 -1716 2861 -1716 2849 -1743 c 128,-1,172
 2837 -1770 2837 -1770 2821 -1785 c 2,173,-1
 2229 -2378 l 1,174,-1
 2821 -2970 l 2,175,176
 2837 -2986 2837 -2986 2848.5 -3012.5 c 128,-1,177
 2860 -3039 2860 -3039 2860 -3062 c 0,178,179
 2860 -3115 2860 -3115 2822.5 -3152.5 c 128,-1,180
 2785 -3190 2785 -3190 2732 -3190 c 0,0,1
EndSplineSet
EndChar

StartChar: uF0051
Encoding: 983121 983121 86
Width: 4096
Flags: W
LayerCount: 2
Fore
SplineSet
2627 -2994 m 2,0,-1
 1469 -2994 l 2,1,2
 1416 -2994 1416 -2994 1378.5 -2956 c 128,-1,3
 1341 -2918 1341 -2918 1341 -2866 c 2,4,-1
 1341 -1849 l 2,5,6
 1342 -1823 1342 -1823 1357 -1792.5 c 128,-1,7
 1372 -1762 1372 -1762 1394 -1746 c 2,8,-1
 1927 -1354 l 1,9,-1
 1927 -130 l 1,10,-1
 1927 -128 l 1,11,-1
 0 -128 l 1,12,-1
 0 128 l 1,13,-1
 4096 128 l 1,14,-1
 4096 -128 l 1,15,-1
 2183 -128 l 1,16,-1
 2183 -130 l 1,17,-1
 2183 -1362 l 1,18,-1
 2705 -1768 l 2,19,20
 2725 -1784 2725 -1784 2740 -1813.5 c 128,-1,21
 2755 -1843 2755 -1843 2755 -1869 c 2,22,-1
 2755 -2866 l 2,23,24
 2755 -2919 2755 -2919 2717.5 -2956.5 c 128,-1,25
 2680 -2994 2680 -2994 2627 -2994 c 2,0,-1
2499 -2738 m 1,26,-1
 2499 -1932 l 1,27,-1
 2055 -1587 l 1,28,-1
 2054 -1587 l 1,29,-1
 2043 -1587 l 1,30,-1
 1597 -1914 l 1,31,-1
 1597 -2738 l 1,32,-1
 2499 -2738 l 1,26,-1
EndSplineSet
EndChar

StartChar: uF0052
Encoding: 983122 983122 87
Width: 4096
Flags: W
LayerCount: 2
Fore
SplineSet
2626 -3026 m 1,0,-1
 2626 -3025 l 1,1,-1
 1470 -3025 l 2,2,3
 1417 -3025 1417 -3025 1379.5 -2987.5 c 128,-1,4
 1342 -2950 1342 -2950 1342 -2897 c 2,5,-1
 1342 -1881 l 2,6,7
 1342 -1854 1342 -1854 1357 -1824 c 128,-1,8
 1372 -1794 1372 -1794 1394 -1778 c 2,9,-1
 1975 -1350 l 2,10,11
 1990 -1339 1990 -1339 2004 -1334 c 1,12,13
 1980 -1306 1980 -1306 1947 -1275 c 0,14,15
 1882 -1216 1882 -1216 1856 -1181 c 0,16,17
 1817 -1126 1817 -1126 1805 -1061 c 0,18,19
 1789 -982 1789 -982 1828 -894 c 0,20,21
 1837 -873 1837 -873 1849 -852 c 0,22,23
 1882 -797 1882 -797 1936 -741 c 0,24,25
 1936 -740 1936 -740 1937 -740 c 0,26,27
 1938 -738 1938 -738 1943 -733 c 1,28,-1
 1944 -733 l 2,29,30
 1945 -731 1945 -731 1948 -728 c 2,31,-1
 1952 -724 l 1,32,-1
 1953 -724 l 1,33,34
 1996 -683 1996 -683 2009 -658 c 0,35,36
 2012 -649 2012 -649 1942 -583 c 0,37,38
 1878 -525 1878 -525 1855 -493 c 0,39,40
 1813 -436 1813 -436 1800 -370 c 0,41,42
 1778 -254 1778 -254 1865 -128 c 1,43,-1
 0 -128 l 1,44,-1
 0 128 l 1,45,-1
 4096 128 l 1,46,-1
 4096 -128 l 1,47,-1
 2156 -128 l 1,48,49
 2155 -149 2155 -149 2144.5 -174 c 128,-1,50
 2134 -199 2134 -199 2119 -213 c 0,51,52
 2039 -292 2039 -292 2045 -323 c 0,53,54
 2046 -327 2046 -327 2052 -336 c 128,-1,55
 2058 -345 2058 -345 2074 -363 c 128,-1,56
 2090 -381 2090 -381 2111 -400 c 0,57,58
 2116 -404 2116 -404 2135 -421 c 128,-1,59
 2154 -438 2154 -438 2163 -446.5 c 128,-1,60
 2172 -455 2172 -455 2189 -473.5 c 128,-1,61
 2206 -492 2206 -492 2216 -508 c 128,-1,62
 2226 -524 2226 -524 2237 -548 c 128,-1,63
 2248 -572 2248 -572 2254 -597 c 0,64,65
 2275 -682 2275 -682 2233 -767 c 0,66,67
 2205 -825 2205 -825 2133 -894 c 1,68,-1
 2133 -895 l 2,69,70
 2131 -898 2131 -898 2124 -905 c 0,71,72
 2044 -984 2044 -984 2050 -1015 c 0,73,74
 2051 -1018 2051 -1018 2057 -1027.5 c 128,-1,75
 2063 -1037 2063 -1037 2078.5 -1054.5 c 128,-1,76
 2094 -1072 2094 -1072 2115 -1091 c 0,77,78
 2119 -1095 2119 -1095 2139 -1112.5 c 128,-1,79
 2159 -1130 2159 -1130 2167.5 -1138 c 128,-1,80
 2176 -1146 2176 -1146 2193.5 -1165.5 c 128,-1,81
 2211 -1185 2211 -1185 2220.5 -1200.5 c 128,-1,82
 2230 -1216 2230 -1216 2241 -1240 c 128,-1,83
 2252 -1264 2252 -1264 2258 -1289 c 0,84,85
 2276 -1360 2276 -1360 2245 -1441 c 1,86,-1
 2705 -1799 l 2,87,88
 2725 -1815 2725 -1815 2739.5 -1844.5 c 128,-1,89
 2754 -1874 2754 -1874 2754 -1900 c 2,90,-1
 2754 -2898 l 2,91,92
 2754 -2951 2754 -2951 2716.5 -2988.5 c 128,-1,93
 2679 -3026 2679 -3026 2626 -3026 c 1,0,-1
2498 -2770 m 1,94,-1
 2498 -1963 l 1,95,-1
 2073 -1632 l 1,96,97
 2053 -1638 2053 -1638 2035 -1638 c 2,98,-1
 2031 -1638 l 2,99,100
 2030 -1638 2030 -1638 2025 -1637.5 c 128,-1,101
 2020 -1637 2020 -1637 2018 -1637 c 2,102,-1
 1598 -1946 l 1,103,-1
 1598 -2770 l 1,104,-1
 2498 -2770 l 1,94,-1
EndSplineSet
EndChar

StartChar: uF0053
Encoding: 983123 983123 88
Width: 4096
Flags: W
LayerCount: 2
Fore
SplineSet
1470 -3069 m 2,0,1
 1417 -3069 1417 -3069 1379.5 -3031.5 c 128,-1,2
 1342 -2994 1342 -2994 1342 -2941 c 2,3,-1
 1342 -1925 l 2,4,5
 1342 -1898 1342 -1898 1357 -1868 c 128,-1,6
 1372 -1838 1372 -1838 1394 -1822 c 2,7,-1
 1656 -1628 l 1,8,9
 1606 -1614 1606 -1614 1573 -1599 c 0,10,11
 1474 -1553 1474 -1553 1414 -1470 c 128,-1,12
 1354 -1387 1354 -1387 1354 -1291 c 0,13,14
 1353 -1179 1353 -1179 1462 -1068 c 1,15,16
 1364 -958 1364 -958 1367 -850 c 0,17,18
 1371 -738 1371 -738 1476 -626 c 1,19,20
 1370 -514 1370 -514 1371 -402 c 0,21,22
 1373 -242 1373 -242 1509 -128 c 1,23,-1
 0 -128 l 1,24,-1
 0 128 l 1,25,-1
 4096 128 l 1,26,-1
 4096 -128 l 1,27,-1
 2213 -128 l 2,28,29
 2213 -130 2213 -130 2213.5 -135.5 c 128,-1,30
 2214 -141 2214 -141 2214 -144 c 0,31,32
 2214 -197 2214 -197 2176.5 -234.5 c 128,-1,33
 2139 -272 2139 -272 2086 -272 c 0,34,35
 2070 -272 2070 -272 2060 -269 c 0,36,37
 1983 -256 1983 -256 1918 -256 c 0,38,39
 1789 -256 1789 -256 1708 -301 c 0,40,41
 1627 -345 1627 -345 1627 -404 c 0,42,43
 1625 -455 1625 -455 1695 -487 c 0,44,45
 1698 -488 1698 -488 1706.5 -489 c 128,-1,46
 1715 -490 1715 -490 1718 -491 c 0,47,48
 1827 -463 1827 -463 1933 -463 c 0,49,50
 2013 -463 2013 -463 2100 -479 c 0,51,52
 2143 -488 2143 -488 2173 -525 c 128,-1,53
 2203 -562 2203 -562 2203 -605 c 0,54,55
 2203 -646 2203 -646 2175.5 -682 c 128,-1,56
 2148 -718 2148 -718 2109 -728 c 0,57,58
 1986 -762 1986 -762 1872 -762 c 0,59,60
 1803 -762 1803 -762 1728 -749 c 0,61,62
 1724 -751 1724 -751 1715 -753.5 c 128,-1,63
 1706 -756 1706 -756 1705 -756 c 0,64,65
 1625 -799 1625 -799 1623 -857 c 0,66,67
 1622 -880 1622 -880 1634.5 -898 c 128,-1,68
 1647 -916 1647 -916 1686 -934 c 0,69,70
 1688 -935 1688 -935 1692 -936 c 128,-1,71
 1696 -937 1696 -937 1700.5 -937.5 c 128,-1,72
 1705 -938 1705 -938 1706 -938 c 0,73,74
 1819 -911 1819 -911 1926 -911 c 0,75,76
 2007 -911 2007 -911 2088 -925 c 0,77,78
 2133 -932 2133 -932 2164.5 -969 c 128,-1,79
 2196 -1006 2196 -1006 2196 -1051 c 0,80,81
 2196 -1092 2196 -1092 2168.5 -1128 c 128,-1,82
 2141 -1164 2141 -1164 2102 -1174 c 0,83,84
 1979 -1209 1979 -1209 1862 -1209 c 0,85,86
 1793 -1209 1793 -1209 1718 -1196 c 0,87,88
 1714 -1198 1714 -1198 1701 -1200.5 c 128,-1,89
 1688 -1203 1688 -1203 1684 -1206 c 0,90,91
 1610 -1244 1610 -1244 1610 -1290 c 0,92,93
 1610 -1334 1610 -1334 1681 -1367 c 0,94,95
 1742 -1396 1742 -1396 1848 -1396 c 0,96,97
 1918 -1396 1918 -1396 1995 -1382 c 1,98,99
 2023 -1369 2023 -1369 2052 -1369 c 0,100,101
 2097 -1369 2097 -1369 2130 -1395 c 2,102,-1
 2705 -1843 l 2,103,104
 2725 -1859 2725 -1859 2739.5 -1888.5 c 128,-1,105
 2754 -1918 2754 -1918 2754 -1944 c 2,106,-1
 2754 -2941 l 2,107,108
 2754 -2994 2754 -2994 2716.5 -3031.5 c 128,-1,109
 2679 -3069 2679 -3069 2626 -3069 c 2,110,-1
 1470 -3069 l 2,0,1
2498 -2813 m 1,111,-1
 2498 -2006 l 1,112,-1
 2049 -1657 l 1,113,-1
 1598 -1989 l 1,114,-1
 1598 -2813 l 1,115,-1
 2498 -2813 l 1,111,-1
EndSplineSet
EndChar

StartChar: uF0054
Encoding: 983124 983124 89
Width: 4096
Flags: W
LayerCount: 2
Fore
SplineSet
2040 1012 m 0,0,1
 2156 1012 2156 1012 2267 981.5 c 128,-1,2
 2378 951 2378 951 2471.5 895.5 c 128,-1,3
 2565 840 2565 840 2644 761 c 128,-1,4
 2723 682 2723 682 2778.5 588.5 c 128,-1,5
 2834 495 2834 495 2864.5 384 c 128,-1,6
 2895 273 2895 273 2895 157 c 0,7,8
 2895 61 2895 61 2871 -40 c 1,9,10
 2900 -4 2900 -4 2934 44 c 0,11,12
 2947 62 2947 62 2968.5 93.5 c 128,-1,13
 2990 125 2990 125 3003 143 c 128,-1,14
 3016 161 3016 161 3033.5 184 c 128,-1,15
 3051 207 3051 207 3066 224 c 0,16,17
 3148 316 3148 316 3232 305 c 0,18,19
 3280 299 3280 299 3322.5 266.5 c 128,-1,20
 3365 234 3365 234 3415 171 c 0,21,22
 3504 60 3504 60 3639 -183 c 0,23,24
 3648 -197 3648 -197 3648 -214 c 0,25,26
 3648 -239 3648 -239 3630 -256.5 c 128,-1,27
 3612 -274 3612 -274 3587 -274 c 0,28,29
 3572 -274 3572 -274 3556.5 -264.5 c 128,-1,30
 3541 -255 3541 -255 3534 -242 c 0,31,32
 3402 -7 3402 -7 3320 96 c 0,33,34
 3254 180 3254 180 3217 186 c 0,35,36
 3195 188 3195 188 3156 144 c 0,37,38
 3136 121 3136 121 3032 -26 c 0,39,40
 2945 -147 2945 -147 2898 -193 c 0,41,42
 2841 -251 2841 -251 2784 -262 c 1,43,44
 2672 -460 2672 -460 2473.5 -578.5 c 128,-1,45
 2275 -697 2275 -697 2040 -697 c 0,46,47
 1932 -697 1932 -697 1787 -651 c 1,48,49
 1759 -765 1759 -765 1668.5 -839.5 c 128,-1,50
 1578 -914 1578 -914 1461 -914 c 2,51,-1
 1459 -914 l 2,52,53
 1317 -914 1317 -914 1216.5 -813.5 c 128,-1,54
 1116 -713 1116 -713 1116 -571 c 0,55,56
 1116 -477 1116 -477 1169 -399 c 128,-1,57
 1222 -321 1222 -321 1310 -276 c 1,58,59
 1217 -119 1217 -119 1193 56 c 1,60,61
 1160 2 1160 2 1146 -28 c 0,62,63
 1086 -148 1086 -148 1023 -216 c 0,64,65
 935 -313 935 -313 837 -310 c 0,66,67
 725 -307 725 -307 630 -175 c 0,68,69
 535 -41 535 -41 451 222 c 0,70,71
 448 237 448 237 448 240 c 0,72,73
 448 266 448 266 466 283.5 c 128,-1,74
 484 301 484 301 509 301 c 0,75,76
 527 301 527 301 544 288.5 c 128,-1,77
 561 276 561 276 566 259 c 0,78,79
 646 10 646 10 728 -104 c 0,80,81
 788 -188 788 -188 840 -190 c 0,82,83
 884 -190 884 -190 934 -134 c 0,84,85
 986 -77 986 -77 1038 26 c 0,86,87
 1105 159 1105 159 1164 219 c 0,88,89
 1177 232 1177 232 1190 242 c 1,90,91
 1211 455 1211 455 1328.5 631.5 c 128,-1,92
 1446 808 1446 808 1634 910 c 128,-1,93
 1822 1012 1822 1012 2040 1012 c 0,0,1
2040 926 m 0,94,95
 1853 926 1853 926 1690.5 842.5 c 128,-1,96
 1528 759 1528 759 1421 613.5 c 128,-1,97
 1314 468 1314 468 1283 288 c 1,98,99
 1307 293 1307 293 1325 292 c 0,100,101
 1403 288 1403 288 1490 213 c 0,102,103
 1560 151 1560 151 1653 25 c 0,104,105
 1734 -85 1734 -85 1788 -132 c 0,106,107
 1827 -164 1827 -164 1846 -160 c 0,108,109
 1866 -158 1866 -158 1906 -113 c 0,110,111
 1937 -78 1937 -78 2017 43 c 0,112,113
 2095 158 2095 158 2150 209 c 0,114,115
 2224 278 2224 278 2298 281 c 0,116,117
 2375 284 2375 284 2452 215 c 0,118,119
 2514 160 2514 160 2591 42 c 0,120,121
 2662 -66 2662 -66 2705 -111 c 0,122,123
 2732 -139 2732 -139 2749 -143 c 1,124,125
 2809 -1 2809 -1 2809 157 c 2,126,-1
 2809 159 l 2,127,128
 2809 315 2809 315 2748 457 c 128,-1,129
 2687 599 2687 599 2584 702 c 128,-1,130
 2481 805 2481 805 2339 865.5 c 128,-1,131
 2197 926 2197 926 2040 926 c 0,94,95
1319 171 m 0,132,133
 1300 172 1300 172 1272 151 c 1,134,135
 1274 -75 1274 -75 1397 -264 c 2,136,-1
 1428 -310 l 1,137,-1
 1376 -328 l 2,138,139
 1297 -354 1297 -354 1249 -421 c 128,-1,140
 1201 -488 1201 -488 1201 -571 c 0,141,142
 1201 -678 1201 -678 1276.5 -753.5 c 128,-1,143
 1352 -829 1352 -829 1459 -829 c 0,144,145
 1558 -829 1558 -829 1631.5 -763 c 128,-1,146
 1705 -697 1705 -697 1715 -598 c 2,147,-1
 1721 -543 l 1,148,-1
 1772 -563 l 2,149,150
 1904 -612 1904 -612 2040 -612 c 0,151,152
 2243 -612 2243 -612 2415.5 -514 c 128,-1,153
 2588 -416 2588 -416 2692 -250 c 1,154,155
 2651 -230 2651 -230 2619 -196 c 0,156,157
 2572 -148 2572 -148 2490 -24 c 0,158,159
 2423 79 2423 79 2371 125 c 0,160,161
 2331 162 2331 162 2302 160 c 0,162,163
 2272 158 2272 158 2232 121 c 0,164,165
 2186 78 2186 78 2118 -24 c 0,166,167
 2039 -143 2039 -143 1997 -192 c 0,168,169
 1930 -269 1930 -269 1865 -279 c 0,170,171
 1791 -291 1791 -291 1710 -224 c 0,172,173
 1649 -171 1649 -171 1556 -47 c 0,174,175
 1471 69 1471 69 1410 122 c 0,176,177
 1356 169 1356 169 1319 171 c 0,132,133
EndSplineSet
EndChar

StartChar: uF0055
Encoding: 983125 983125 90
Width: 4096
Flags: W
LayerCount: 2
Fore
SplineSet
2041 1015 m 1,0,-1
 2041 1014 l 1,1,-1
 2043 1014 l 2,2,3
 2211 1014 2211 1014 2365 949.5 c 128,-1,4
 2519 885 2519 885 2632 776 c 128,-1,5
 2745 667 2745 667 2815.5 516 c 128,-1,6
 2886 365 2886 365 2893 198 c 1,7,-1
 2899 192 l 2,8,9
 2932 159 2932 159 2974 104 c 1,10,11
 3032 187 3032 187 3066 227 c 0,12,13
 3148 319 3148 319 3232 308 c 0,14,15
 3280 302 3280 302 3322.5 269.5 c 128,-1,16
 3365 237 3365 237 3415 174 c 0,17,18
 3440 142 3440 142 3459 114 c 1,19,20
 3464 123 3464 123 3491 167.5 c 128,-1,21
 3518 212 3518 212 3534 241 c 0,22,23
 3541 254 3541 254 3556.5 263.5 c 128,-1,24
 3572 273 3572 273 3587 273 c 0,25,26
 3612 273 3612 273 3630 255.5 c 128,-1,27
 3648 238 3648 238 3648 212 c 0,28,29
 3648 195 3648 195 3639 182 c 0,30,31
 3606 122 3606 122 3533 1 c 1,32,33
 3600 -110 3600 -110 3639 -180 c 0,34,35
 3648 -194 3648 -194 3648 -212 c 0,36,37
 3648 -237 3648 -237 3630.5 -254.5 c 128,-1,38
 3613 -272 3613 -272 3588 -272 c 0,39,40
 3572 -272 3572 -272 3556.5 -262.5 c 128,-1,41
 3541 -253 3541 -253 3534 -239 c 0,42,43
 3507 -190 3507 -190 3459 -112 c 1,44,45
 3440 -140 3440 -140 3415 -172 c 0,46,47
 3365 -235 3365 -235 3322.5 -267.5 c 128,-1,48
 3280 -300 3280 -300 3232 -306 c 0,49,50
 3148 -317 3148 -317 3066 -225 c 0,51,52
 3032 -185 3032 -185 2974 -102 c 1,53,54
 2929 -161 2929 -161 2899 -191 c 0,55,56
 2840 -249 2840 -249 2784 -259 c 1,57,58
 2672 -457 2672 -457 2474 -575.5 c 128,-1,59
 2276 -694 2276 -694 2041 -694 c 0,60,61
 1932 -694 1932 -694 1787 -648 c 1,62,63
 1759 -763 1759 -763 1668 -837.5 c 128,-1,64
 1577 -912 1577 -912 1459 -912 c 0,65,66
 1317 -912 1317 -912 1216.5 -811 c 128,-1,67
 1116 -710 1116 -710 1116 -569 c 0,68,69
 1116 -482 1116 -482 1161 -409 c 128,-1,70
 1206 -336 1206 -336 1282 -289 c 1,71,72
 1219 -276 1219 -276 1165 -220 c 0,73,74
 1130 -185 1130 -185 1092 -122 c 1,75,76
 1059 -173 1059 -173 1023 -214 c 0,77,78
 935 -310 935 -310 837 -307 c 0,79,80
 727 -306 727 -306 630 -172 c 0,81,82
 626 -166 626 -166 618.5 -154 c 128,-1,83
 611 -142 611 -142 609 -138 c 1,84,85
 589 -190 589 -190 566 -260 c 0,86,87
 562 -279 562 -279 545 -292 c 128,-1,88
 528 -305 528 -305 508 -305 c 0,89,90
 483 -305 483 -305 465.5 -287 c 128,-1,91
 448 -269 448 -269 448 -244 c 0,92,93
 448 -231 448 -231 452 -223 c 0,94,95
 490 -100 490 -100 535 1 c 1,96,97
 490 102 490 102 452 225 c 0,98,99
 448 233 448 233 448 246 c 0,100,101
 448 271 448 271 465.5 288.5 c 128,-1,102
 483 306 483 306 508 306 c 0,103,104
 527 306 527 306 544 293 c 128,-1,105
 561 280 561 280 566 262 c 0,106,107
 589 192 589 192 609 140 c 1,108,109
 611 144 611 144 618.5 156 c 128,-1,110
 626 168 626 168 630 174 c 0,111,112
 726 306 726 306 837 309 c 0,113,114
 934 312 934 312 1023 215 c 0,115,116
 1058 177 1058 177 1092 124 c 1,117,118
 1130 187 1130 187 1165 222 c 0,119,120
 1169 226 1169 226 1177.5 233.5 c 128,-1,121
 1186 241 1186 241 1190 245 c 0,122,123
 1206 404 1206 404 1279.5 546.5 c 128,-1,124
 1353 689 1353 689 1465 792 c 128,-1,125
 1577 895 1577 895 1727.5 955 c 128,-1,126
 1878 1015 1878 1015 2041 1015 c 1,0,-1
2041 929 m 0,127,128
 1854 929 1854 929 1691 845.5 c 128,-1,129
 1528 762 1528 762 1421.5 616.5 c 128,-1,130
 1315 471 1315 471 1284 291 c 1,131,132
 1307 296 1307 296 1325 295 c 0,133,134
 1403 291 1403 291 1490 216 c 0,135,136
 1536 176 1536 176 1598 98 c 1,137,138
 1665 184 1665 184 1711 223 c 0,139,140
 1792 290 1792 290 1865 278 c 0,141,142
 1932 268 1932 268 1997 191 c 0,143,144
 2026 158 2026 158 2062 107 c 1,145,146
 2110 174 2110 174 2150 212 c 0,147,148
 2225 282 2225 282 2298 283 c 0,149,150
 2376 286 2376 286 2452 218 c 0,151,152
 2491 184 2491 184 2548 106 c 1,153,154
 2588 163 2588 163 2619 195 c 0,155,156
 2689 266 2689 266 2759 265 c 0,157,158
 2781 265 2781 265 2803 257 c 1,159,160
 2785 397 2785 397 2718.5 521.5 c 128,-1,161
 2652 646 2652 646 2551.5 735.5 c 128,-1,162
 2451 825 2451 825 2318 877 c 128,-1,163
 2185 929 2185 929 2041 929 c 0,127,128
840 188 m 0,164,165
 788 188 788 188 728 103 c 0,166,167
 702 65 702 65 669 1 c 1,168,169
 702 -63 702 -63 728 -101 c 0,170,171
 788 -185 788 -185 840 -187 c 0,172,173
 884 -187 884 -187 934 -131 c 0,174,175
 974 -89 974 -89 1023 1 c 1,176,177
 974 91 974 91 934 133 c 0,178,179
 883 190 883 190 840 188 c 0,164,165
3217 188 m 0,180,181
 3196 191 3196 191 3157 147 c 0,182,183
 3139 126 3139 126 3049 1 c 1,184,185
 3139 -124 3139 -124 3157 -145 c 0,186,187
 3196 -189 3196 -189 3217 -187 c 0,188,189
 3254 -181 3254 -181 3321 -97 c 0,190,191
 3352 -56 3352 -56 3390 1 c 1,192,193
 3352 58 3352 58 3321 99 c 0,194,195
 3252 185 3252 185 3217 188 c 0,180,181
1320 174 m 0,196,197
 1296 176 1296 176 1272 157 c 1,198,199
 1272 -12 1272 -12 1345 -166 c 1,200,201
 1376 -153 1376 -153 1410 -123 c 0,202,203
 1453 -86 1453 -86 1521 1 c 1,204,205
 1453 88 1453 88 1410 125 c 0,206,207
 1358 172 1358 172 1320 174 c 0,196,197
2303 163 m 0,208,209
 2272 161 2272 161 2233 123 c 0,210,211
 2191 84 2191 84 2134 1 c 1,212,213
 2193 -84 2193 -84 2233 -122 c 0,214,215
 2271 -159 2271 -159 2303 -161 c 0,216,217
 2330 -163 2330 -163 2371 -126 c 0,218,219
 2413 -90 2413 -90 2474 1 c 1,220,221
 2413 92 2413 92 2371 128 c 0,222,223
 2330 165 2330 165 2303 163 c 0,208,209
1846 159 m 0,224,225
 1827 163 1827 163 1789 131 c 0,226,227
 1747 95 1747 95 1675 1 c 1,228,229
 1747 -93 1747 -93 1789 -129 c 0,230,231
 1828 -161 1828 -161 1846 -157 c 0,232,233
 1866 -155 1866 -155 1906 -110 c 0,234,235
 1932 -81 1932 -81 1987 1 c 1,236,237
 1934 80 1934 80 1906 112 c 0,238,239
 1866 157 1866 157 1846 159 c 0,224,225
2757 145 m 0,240,241
 2739 145 2739 145 2705 111 c 0,242,243
 2677 82 2677 82 2622 1 c 1,244,245
 2677 -80 2677 -80 2705 -109 c 0,246,247
 2732 -136 2732 -136 2749 -140 c 1,248,249
 2800 -21 2800 -21 2807 112 c 1,250,251
 2773 145 2773 145 2757 145 c 0,240,241
1193 58 m 1,252,253
 1180 37 1180 37 1161 1 c 1,254,255
 1206 -83 1206 -83 1240 -121 c 1,256,257
 1204 -26 1204 -26 1193 58 c 1,252,253
2883 23 m 1,258,259
 2878 -9 2878 -9 2871 -38 c 1,260,261
 2876 -32 2876 -32 2886 -18 c 128,-1,262
 2896 -4 2896 -4 2900 1 c 1,263,264
 2892 10 2892 10 2883 23 c 1,258,259
1598 -96 m 1,265,266
 1536 -174 1536 -174 1490 -214 c 0,267,268
 1445 -253 1445 -253 1405 -272 c 1,269,-1
 1428 -307 l 1,270,-1
 1376 -325 l 2,271,272
 1298 -352 1298 -352 1249.5 -419 c 128,-1,273
 1201 -486 1201 -486 1201 -569 c 0,274,275
 1201 -676 1201 -676 1276.5 -751 c 128,-1,276
 1352 -826 1352 -826 1459 -826 c 0,277,278
 1558 -826 1558 -826 1631.5 -760 c 128,-1,279
 1705 -694 1705 -694 1715 -595 c 2,280,-1
 1721 -540 l 1,281,-1
 1773 -560 l 2,282,283
 1903 -609 1903 -609 2041 -609 c 0,284,285
 2244 -609 2244 -609 2416 -511 c 128,-1,286
 2588 -413 2588 -413 2692 -247 c 1,287,288
 2654 -229 2654 -229 2619 -193 c 0,289,290
 2584 -156 2584 -156 2548 -104 c 1,291,292
 2491 -182 2491 -182 2452 -216 c 0,293,294
 2375 -285 2375 -285 2298 -282 c 0,295,296
 2224 -279 2224 -279 2150 -210 c 0,297,298
 2110 -172 2110 -172 2062 -105 c 1,299,300
 2026 -156 2026 -156 1997 -189 c 0,301,302
 1932 -266 1932 -266 1865 -276 c 0,303,304
 1789 -288 1789 -288 1711 -221 c 1,305,-1
 1598 -96 l 1,265,266
EndSplineSet
EndChar

StartChar: uF0056
Encoding: 983126 983126 91
Width: 4096
Flags: W
LayerCount: 2
Fore
SplineSet
1486 974 m 0,0,1
 1613 974 1613 974 1794.5 905 c 128,-1,2
 1976 836 1976 836 2084 729 c 1,3,4
 2205 847 2205 847 2358 910.5 c 128,-1,5
 2511 974 2511 974 2680 974 c 0,6,7
 2819 974 2819 974 2949.5 931 c 128,-1,8
 3080 888 3080 888 3185 809 c 128,-1,9
 3290 730 3290 730 3369.5 625 c 128,-1,10
 3449 520 3449 520 3492 389.5 c 128,-1,11
 3535 259 3535 259 3535 120 c 0,12,13
 3535 -54 3535 -54 3467.5 -212 c 128,-1,14
 3400 -370 3400 -370 3285.5 -484.5 c 128,-1,15
 3171 -599 3171 -599 3012.5 -666.5 c 128,-1,16
 2854 -734 2854 -734 2680 -734 c 0,17,18
 2572 -734 2572 -734 2427 -688 c 1,19,20
 2399 -803 2399 -803 2308 -877.5 c 128,-1,21
 2217 -952 2217 -952 2099 -952 c 0,22,23
 1979 -952 1979 -952 1886 -877 c 128,-1,24
 1793 -802 1793 -802 1766 -686 c 1,25,26
 1630 -734 1630 -734 1486 -734 c 0,27,28
 1379 -734 1379 -734 1232 -688 c 1,29,30
 1204 -803 1204 -803 1113 -877.5 c 128,-1,31
 1022 -952 1022 -952 904 -952 c 0,32,33
 762 -952 762 -952 661.5 -851.5 c 128,-1,34
 561 -751 561 -751 561 -609 c 0,35,36
 561 -514 561 -514 614 -436 c 128,-1,37
 667 -358 667 -358 755 -313 c 1,38,39
 631 -105 631 -105 631 120 c 0,40,41
 631 295 631 295 698 453.5 c 128,-1,42
 765 612 765 612 879.5 726 c 128,-1,43
 994 840 994 840 1152.5 907 c 128,-1,44
 1311 974 1311 974 1486 974 c 0,0,1
716 120 m 2,45,46
 718 -112 718 -112 843 -301 c 2,47,-1
 873 -347 l 1,48,-1
 821 -365 l 2,49,50
 742 -392 742 -392 694 -459 c 128,-1,51
 646 -526 646 -526 646 -609 c 0,52,53
 646 -716 646 -716 721.5 -791 c 128,-1,54
 797 -866 797 -866 904 -866 c 0,55,56
 1003 -866 1003 -866 1076.5 -800 c 128,-1,57
 1150 -734 1150 -734 1160 -635 c 2,58,-1
 1166 -581 l 1,59,-1
 1218 -600 l 2,60,61
 1350 -649 1350 -649 1486 -649 c 0,62,63
 1653 -649 1653 -649 1815 -574 c 0,64,65
 1842 -562 1842 -562 1868 -546 c 128,-1,66
 1894 -530 1894 -530 1929 -505.5 c 128,-1,67
 1964 -481 1964 -481 1977 -472 c 2,68,-1
 2064 -387 l 1,69,-1
 2128 -303 l 1,70,-1
 2184 -201 l 1,71,-1
 2221 -105 l 1,72,-1
 2243 -10 l 1,73,-1
 2251 47 l 2,74,75
 2255 95 2255 95 2255 120 c 128,-1,76
 2255 145 2255 145 2251 195 c 2,77,-1
 2240 267 l 1,78,79
 2215 394 2215 394 2146.5 508 c 128,-1,80
 2078 622 2078 622 1980.5 706 c 128,-1,81
 1883 790 1883 790 1754.5 839.5 c 128,-1,82
 1626 889 1626 889 1486 889 c 0,83,84
 1360 889 1360 889 1242.5 851 c 128,-1,85
 1125 813 1125 813 1030 742.5 c 128,-1,86
 935 672 935 672 864 578.5 c 128,-1,87
 793 485 793 485 754.5 368 c 128,-1,88
 716 251 716 251 716 126 c 2,89,-1
 716 120 l 2,45,46
2680 889 m 0,90,91
 2531 889 2531 889 2393 829.5 c 128,-1,92
 2255 770 2255 770 2145 663 c 1,93,94
 2340 426 2340 426 2340 120 c 0,95,96
 2337 19 2337 19 2319 -68 c 0,97,98
 2275 -260 2275 -260 2152 -413 c 128,-1,99
 2029 -566 2029 -566 1853 -651 c 1,100,101
 1869 -743 1869 -743 1937.5 -804.5 c 128,-1,102
 2006 -866 2006 -866 2099 -866 c 0,103,104
 2198 -866 2198 -866 2271.5 -800 c 128,-1,105
 2345 -734 2345 -734 2355 -635 c 2,106,-1
 2361 -581 l 1,107,-1
 2413 -600 l 2,108,109
 2543 -649 2543 -649 2681 -649 c 0,110,111
 2890 -649 2890 -649 3067 -546 c 128,-1,112
 3244 -443 3244 -443 3347 -266 c 128,-1,113
 3450 -89 3450 -89 3450 120 c 128,-1,114
 3450 329 3450 329 3347 506 c 128,-1,115
 3244 683 3244 683 3067 786 c 128,-1,116
 2890 889 2890 889 2680 889 c 0,90,91
EndSplineSet
EndChar

StartChar: uF0057
Encoding: 983127 983127 92
Width: 4096
Flags: W
LayerCount: 2
Fore
SplineSet
1555 -987 m 0,0,1
 1413 -987 1413 -987 1312.5 -886 c 128,-1,2
 1212 -785 1212 -785 1212 -644 c 0,3,4
 1212 -549 1212 -549 1265 -471 c 128,-1,5
 1318 -393 1318 -393 1406 -348 c 1,6,7
 1283 -141 1283 -141 1282 85 c 0,8,9
 1282 178 1282 178 1308 284 c 1,10,11
 1216 325 1216 325 1160 409 c 128,-1,12
 1104 493 1104 493 1104 596 c 0,13,14
 1104 738 1104 738 1205 838.5 c 128,-1,15
 1306 939 1306 939 1448 939 c 0,16,17
 1602 939 1602 939 1705 821 c 1,18,19
 1906 939 1906 939 2137 939 c 0,20,21
 2310 939 2310 939 2468.5 871.5 c 128,-1,22
 2627 804 2627 804 2741.5 689.5 c 128,-1,23
 2856 575 2856 575 2924 416.5 c 128,-1,24
 2992 258 2992 258 2992 85 c 0,25,26
 2992 -54 2992 -54 2948.5 -184.5 c 128,-1,27
 2905 -315 2905 -315 2826 -420 c 128,-1,28
 2747 -525 2747 -525 2642 -604 c 128,-1,29
 2537 -683 2537 -683 2406.5 -726 c 128,-1,30
 2276 -769 2276 -769 2137 -769 c 0,31,32
 2029 -769 2029 -769 1884 -723 c 1,33,34
 1856 -838 1856 -838 1765 -912.5 c 128,-1,35
 1674 -987 1674 -987 1555 -987 c 0,0,1
1812 -670 m 2,36,-1
 1817 -615 l 1,37,-1
 1869 -635 l 2,38,39
 2001 -684 2001 -684 2137 -684 c 0,40,41
 2346 -684 2346 -684 2523 -581 c 128,-1,42
 2700 -478 2700 -478 2803 -301 c 128,-1,43
 2906 -124 2906 -124 2906 85 c 128,-1,44
 2906 294 2906 294 2803 471 c 128,-1,45
 2700 648 2700 648 2523 751 c 128,-1,46
 2346 854 2346 854 2137 854 c 0,47,48
 1941 854 1941 854 1754 747 c 1,49,50
 1791 673 1791 673 1791 596 c 0,51,52
 1791 565 1791 565 1784 528 c 0,53,54
 1760 410 1760 410 1666 331 c 128,-1,55
 1572 252 1572 252 1450 252 c 2,56,-1
 1448 252 l 1,57,-1
 1400 258 l 2,58,59
 1395 258 1395 258 1393 259 c 1,60,61
 1368 157 1368 157 1368 85 c 0,62,63
 1368 -144 1368 -144 1494 -336 c 2,64,-1
 1525 -382 l 1,65,-1
 1473 -400 l 2,66,67
 1394 -426 1394 -426 1346 -493 c 128,-1,68
 1298 -560 1298 -560 1298 -643 c 0,69,70
 1298 -761 1298 -761 1374.5 -827.5 c 128,-1,71
 1451 -894 1451 -894 1556 -894 c 0,72,73
 1618 -894 1618 -894 1672 -870 c 128,-1,74
 1726 -846 1726 -846 1765 -794 c 128,-1,75
 1804 -742 1804 -742 1812 -670 c 2,36,-1
1448 339 m 1,76,77
 1541 339 1541 339 1611.5 397 c 128,-1,78
 1682 455 1682 455 1700 544 c 0,79,80
 1706 574 1706 574 1702 636 c 1,81,82
 1687 698 1687 698 1660 739 c 2,83,-1
 1646 759 l 1,84,85
 1567 853 1567 853 1448 853 c 0,86,87
 1341 853 1341 853 1265.5 777.5 c 128,-1,88
 1190 702 1190 702 1190 595 c 128,-1,89
 1190 488 1190 488 1265.5 413 c 128,-1,90
 1341 338 1341 338 1448 338 c 1,91,-1
 1448 339 l 1,76,77
EndSplineSet
EndChar

StartChar: uF0058
Encoding: 983128 983128 93
Width: 4096
Flags: W
LayerCount: 2
Fore
SplineSet
975 643 m 1,0,-1
 3056 643 l 1,1,-1
 3121 643 l 1,2,-1
 3446 318 l 1,3,-1
 3446 -300 l 1,4,-1
 3121 -625 l 1,5,-1
 975 -625 l 1,6,-1
 650 -300 l 1,7,-1
 650 318 l 1,8,-1
 963 631 l 1,9,-1
 975 643 l 1,0,-1
1011 558 m 1,10,-1
 736 283 l 1,11,-1
 736 -264 l 1,12,-1
 1011 -539 l 1,13,-1
 3085 -539 l 1,14,-1
 3360 -264 l 1,15,-1
 3360 283 l 1,16,-1
 3085 558 l 1,17,-1
 1011 558 l 1,10,-1
EndSplineSet
EndChar

StartChar: uF0059
Encoding: 983129 983129 94
Width: 4096
Flags: W
LayerCount: 2
Fore
SplineSet
2083 1000 m 2,0,-1
 2085 1000 l 2,1,2
 2258 1000 2258 1000 2416 932 c 128,-1,3
 2574 864 2574 864 2688.5 749.5 c 128,-1,4
 2803 635 2803 635 2870.5 477 c 128,-1,5
 2938 319 2938 319 2938 146 c 128,-1,6
 2938 -27 2938 -27 2870 -185 c 128,-1,7
 2802 -343 2802 -343 2688 -457.5 c 128,-1,8
 2574 -572 2574 -572 2416 -640 c 128,-1,9
 2258 -708 2258 -708 2085 -708 c 2,10,-1
 2083 -708 l 2,11,12
 1975 -708 1975 -708 1830 -662 c 1,13,14
 1802 -777 1802 -777 1710.5 -851.5 c 128,-1,15
 1619 -926 1619 -926 1501 -926 c 0,16,17
 1360 -926 1360 -926 1259.5 -825.5 c 128,-1,18
 1159 -725 1159 -725 1158 -583 c 0,19,20
 1159 -488 1159 -488 1212 -410 c 128,-1,21
 1265 -332 1265 -332 1352 -287 c 1,22,23
 1229 -76 1229 -76 1229 146 c 0,24,25
 1229 285 1229 285 1272 415.5 c 128,-1,26
 1315 546 1315 546 1394 651 c 128,-1,27
 1473 756 1473 756 1578 835 c 128,-1,28
 1683 914 1683 914 1813.5 957 c 128,-1,29
 1944 1000 1944 1000 2083 1000 c 2,0,-1
2083 915 m 0,30,31
 1874 915 1874 915 1697 812 c 128,-1,32
 1520 709 1520 709 1417 532 c 128,-1,33
 1314 355 1314 355 1314 146 c 0,34,35
 1314 -83 1314 -83 1440 -275 c 2,36,-1
 1471 -321 l 1,37,-1
 1418 -339 l 2,38,39
 1340 -366 1340 -366 1292 -433 c 128,-1,40
 1244 -500 1244 -500 1244 -583 c 0,41,42
 1244 -690 1244 -690 1319.5 -765.5 c 128,-1,43
 1395 -841 1395 -841 1502 -841 c 0,44,45
 1601 -841 1601 -841 1674 -774.5 c 128,-1,46
 1747 -708 1747 -708 1758 -610 c 2,47,-1
 1764 -555 l 1,48,-1
 1815 -574 l 2,49,50
 1947 -623 1947 -623 2083 -623 c 0,51,52
 2292 -623 2292 -623 2469 -520 c 128,-1,53
 2646 -417 2646 -417 2749 -240 c 128,-1,54
 2852 -63 2852 -63 2852 146 c 0,55,56
 2852 357 2852 357 2750 533.5 c 128,-1,57
 2648 710 2648 710 2471 812.5 c 128,-1,58
 2294 915 2294 915 2083 915 c 0,30,31
EndSplineSet
EndChar

StartChar: uF005A
Encoding: 983130 983130 95
Width: 4096
Flags: W
LayerCount: 2
Fore
SplineSet
1035 634 m 2,0,-1
 3061 634 l 2,1,2
 3221 634 3221 634 3333.5 521.5 c 128,-1,3
 3446 409 3446 409 3446 249 c 2,4,-1
 3446 -249 l 2,5,6
 3446 -409 3446 -409 3333.5 -521.5 c 128,-1,7
 3221 -634 3221 -634 3061 -634 c 2,8,-1
 1035 -634 l 2,9,10
 876 -634 876 -634 763 -521.5 c 128,-1,11
 650 -409 650 -409 650 -249 c 2,12,-1
 650 249 l 2,13,14
 650 409 650 409 763 521.5 c 128,-1,15
 876 634 876 634 1035 634 c 2,0,-1
1035 549 m 2,16,17
 910 549 910 549 823 461.5 c 128,-1,18
 736 374 736 374 736 249 c 2,19,-1
 736 -249 l 2,20,21
 736 -374 736 -374 823 -461 c 128,-1,22
 910 -548 910 -548 1035 -548 c 2,23,-1
 3061 -548 l 2,24,25
 3186 -548 3186 -548 3273 -461 c 128,-1,26
 3360 -374 3360 -374 3360 -249 c 2,27,-1
 3360 249 l 2,28,29
 3360 374 3360 374 3273 461.5 c 128,-1,30
 3186 549 3186 549 3061 549 c 2,31,-1
 1035 549 l 2,16,17
EndSplineSet
EndChar

StartChar: uF005B
Encoding: 983131 983131 96
Width: 4096
Flags: W
LayerCount: 2
Fore
SplineSet
1364 783 m 1,0,-1
 1779 783 l 1,1,-1
 1779 599 l 1,2,-1
 1586 599 l 1,3,-1
 1586 -599 l 1,4,-1
 1779 -599 l 1,5,-1
 1779 -783 l 1,6,-1
 1364 -783 l 1,7,-1
 1364 783 l 1,0,-1
2317 783 m 1,8,-1
 2732 783 l 1,9,-1
 2732 -783 l 1,10,-1
 2317 -783 l 1,11,-1
 2317 -599 l 1,12,-1
 2510 -599 l 1,13,-1
 2510 601 l 1,14,-1
 2317 601 l 1,15,-1
 2317 783 l 1,8,-1
EndSplineSet
EndChar

StartChar: uF005C
Encoding: 983132 983132 97
Width: 4096
Flags: W
LayerCount: 2
Fore
SplineSet
321 992 m 2,0,-1
 3767 992 l 2,1,2
 3802 992 3802 992 3827.5 967 c 128,-1,3
 3853 942 3853 942 3853 907 c 2,4,-1
 3853 -377 l 2,5,6
 3853 -392 3853 -392 3857 -437.5 c 128,-1,7
 3861 -483 3861 -483 3861 -512 c 0,8,9
 3861 -627 3861 -627 3804 -709 c 0,10,11
 3740 -802 3740 -802 3596.5 -848 c 128,-1,12
 3453 -894 3453 -894 3198 -898 c 0,13,14
 2878 -901 2878 -901 2280 -901 c 0,15,16
 2141 -901 2141 -901 1885 -900.5 c 128,-1,17
 1629 -900 1629 -900 1526 -900 c 0,18,19
 1437 -900 1437 -900 1310.5 -900.5 c 128,-1,20
 1184 -901 1184 -901 1151 -901 c 2,21,-1
 1101 -901 l 2,22,23
 806 -901 806 -901 643.5 -877.5 c 128,-1,24
 481 -854 481 -854 384 -791 c 0,25,26
 285 -726 285 -726 254 -604 c 0,27,28
 236 -532 236 -532 236 -377 c 2,29,-1
 236 907 l 2,30,31
 236 942 236 942 261 967 c 128,-1,32
 286 992 286 992 321 992 c 2,0,-1
406 821 m 1,33,-1
 406 -377 l 2,34,35
 406 -512 406 -512 419 -562 c 0,36,37
 427 -594 427 -594 439.5 -612 c 128,-1,38
 452 -630 452 -630 478 -648 c 0,39,40
 603 -730 603 -730 1120 -730 c 2,41,-1
 1151 -730 l 2,42,43
 1179 -730 1179 -730 1273.5 -729.5 c 128,-1,44
 1368 -729 1368 -729 1433 -729 c 0,45,46
 1548 -729 1548 -729 1860 -729.5 c 128,-1,47
 2172 -730 2172 -730 2344 -730 c 0,48,49
 2899 -730 2899 -730 3196 -727 c 0,50,51
 3415 -724 3415 -724 3523.5 -690.5 c 128,-1,52
 3632 -657 3632 -657 3664 -612 c 0,53,54
 3676 -595 3676 -595 3681 -568 c 128,-1,55
 3686 -541 3686 -541 3685.5 -518.5 c 128,-1,56
 3685 -496 3685 -496 3683.5 -450.5 c 128,-1,57
 3682 -405 3682 -405 3682 -377 c 2,58,-1
 3682 821 l 1,59,-1
 406 821 l 1,33,-1
EndSplineSet
EndChar

StartChar: uF005D
Encoding: 983133 983133 98
Width: 4096
Flags: W
LayerCount: 2
Fore
SplineSet
3232 324 m 1,0,-1
 3233 324 l 1,1,2
 3318 313 3318 313 3416 189 c 0,3,4
 3504 77 3504 77 3640 -164 c 0,5,6
 3648 -180 3648 -180 3648 -194 c 0,7,8
 3648 -219 3648 -219 3630 -236.5 c 128,-1,9
 3612 -254 3612 -254 3587 -254 c 0,10,11
 3572 -254 3572 -254 3557 -245 c 128,-1,12
 3542 -236 3542 -236 3535 -223 c 0,13,14
 3402 12 3402 12 3321 114 c 0,15,16
 3254 198 3254 198 3218 204 c 0,17,18
 3195 206 3195 206 3157 162 c 0,19,20
 3145 149 3145 149 3130 128.5 c 128,-1,21
 3115 108 3115 108 3103 91 c 128,-1,22
 3091 74 3091 74 3068.5 42 c 128,-1,23
 3046 10 3046 10 3033 -8 c 0,24,25
 2949 -125 2949 -125 2899 -175 c 0,26,27
 2827 -247 2827 -247 2760 -248 c 0,28,29
 2690 -249 2690 -249 2619 -177 c 0,30,31
 2568 -125 2568 -125 2491 -6 c 0,32,33
 2421 99 2421 99 2372 144 c 0,34,35
 2333 178 2333 178 2303 178 c 0,36,37
 2275 178 2275 178 2233 139 c 0,38,39
 2188 97 2188 97 2118 -6 c 0,40,41
 2039 -125 2039 -125 1998 -174 c 0,42,43
 1931 -250 1931 -250 1865 -261 c 0,44,45
 1790 -272 1790 -272 1711 -205 c 0,46,47
 1652 -156 1652 -156 1557 -29 c 0,48,49
 1469 89 1469 89 1410 140 c 0,50,51
 1357 188 1357 188 1320 190 c 0,52,53
 1288 192 1288 192 1251 153 c 0,54,55
 1202 103 1202 103 1146 -10 c 0,56,57
 1086 -130 1086 -130 1023 -198 c 0,58,59
 934 -295 934 -295 837 -292 c 0,60,61
 726 -289 726 -289 630 -156 c 0,62,63
 538 -27 538 -27 452 241 c 0,64,65
 448 251 448 251 448 260 c 0,66,67
 448 285 448 285 466 302.5 c 128,-1,68
 484 320 484 320 509 320 c 0,69,70
 528 320 528 320 545 307.5 c 128,-1,71
 562 295 562 295 567 277 c 0,72,73
 645 31 645 31 728 -86 c 0,74,75
 790 -171 790 -171 840 -171 c 0,76,77
 883 -173 883 -173 934 -116 c 0,78,79
 985 -63 985 -63 1038 44 c 0,80,81
 1104 175 1104 175 1165 238 c 0,82,83
 1240 314 1240 314 1325 310 c 0,84,85
 1404 307 1404 307 1490 231 c 0,86,87
 1563 166 1563 166 1654 43 c 0,88,89
 1740 -71 1740 -71 1789 -113 c 0,90,91
 1827 -146 1827 -146 1846 -142 c 0,92,93
 1870 -137 1870 -137 1906 -95 c 0,94,95
 1944 -50 1944 -50 2018 61 c 0,96,97
 2091 172 2091 172 2150 227 c 0,98,99
 2224 296 2224 296 2299 299 c 0,100,101
 2376 302 2376 302 2452 234 c 0,102,103
 2513 180 2513 180 2592 61 c 0,104,105
 2667 -54 2667 -54 2706 -93 c 0,106,107
 2739 -127 2739 -127 2757 -127 c 0,108,109
 2777 -127 2777 -127 2814 -90 c 0,110,111
 2857 -47 2857 -47 2934 63 c 0,112,113
 2947 81 2947 81 2977.5 124.5 c 128,-1,114
 3008 168 3008 168 3028 194 c 128,-1,115
 3048 220 3048 220 3067 242 c 0,116,117
 3146 334 3146 334 3232 324 c 1,0,-1
EndSplineSet
EndChar

StartChar: uF005E
Encoding: 983134 983134 99
Width: 4096
Flags: W
LayerCount: 2
Fore
SplineSet
1491 576 m 0,0,1
 1549 573 1549 573 1609 554 c 0,2,3
 1731 515 1731 515 1820.5 431 c 128,-1,4
 1910 347 1910 347 1992 222 c 0,5,6
 2034 165 2034 165 2067 116 c 1,7,8
 2147 227 2147 227 2218 307 c 128,-1,9
 2289 387 2289 387 2375 448 c 0,10,11
 2379 451 2379 451 2389.5 460 c 128,-1,12
 2400 469 2400 469 2406 474 c 0,13,14
 2500 542 2500 542 2602 562 c 0,15,16
 2713 585 2713 585 2831 549 c 0,17,18
 2904 526 2904 526 2966.5 485.5 c 128,-1,19
 3029 445 3029 445 3081 388.5 c 128,-1,20
 3133 332 3133 332 3171 280 c 128,-1,21
 3209 228 3209 228 3253 155 c 1,22,23
 3307 229 3307 229 3351 282 c 128,-1,24
 3395 335 3395 335 3456 394 c 128,-1,25
 3517 453 3517 453 3587.5 496.5 c 128,-1,26
 3658 540 3658 540 3738 567 c 0,27,28
 3750 571 3750 571 3761 571 c 2,29,-1
 3763 571 l 2,30,31
 3791 570 3791 570 3811.5 549.5 c 128,-1,32
 3832 529 3832 529 3832 500 c 0,33,34
 3832 479 3832 479 3817.5 459 c 128,-1,35
 3803 439 3803 439 3783 433 c 0,36,37
 3713 409 3713 409 3651 369 c 128,-1,38
 3589 329 3589 329 3531 268 c 128,-1,39
 3473 207 3473 207 3433 156.5 c 128,-1,40
 3393 106 3393 106 3333 23 c 1,41,42
 3384 -63 3384 -63 3422 -118 c 128,-1,43
 3460 -173 3460 -173 3513.5 -234 c 128,-1,44
 3567 -295 3567 -295 3628.5 -334 c 128,-1,45
 3690 -373 3690 -373 3763 -394 c 0,46,47
 3785 -400 3785 -400 3800 -420 c 128,-1,48
 3815 -440 3815 -440 3815 -463 c 0,49,50
 3815 -492 3815 -492 3794 -513 c 128,-1,51
 3773 -534 3773 -534 3744 -534 c 0,52,53
 3733 -534 3733 -534 3724 -531 c 0,54,55
 3639 -507 3639 -507 3566.5 -463 c 128,-1,56
 3494 -419 3494 -419 3435 -357 c 128,-1,57
 3376 -295 3376 -295 3333.5 -237.5 c 128,-1,58
 3291 -180 3291 -180 3243 -101 c 1,59,60
 3173 -195 3173 -195 3116 -259 c 128,-1,61
 3059 -323 3059 -323 2970 -389 c 128,-1,62
 2881 -455 2881 -455 2783 -489 c 0,63,64
 2670 -529 2670 -529 2559 -518 c 1,65,66
 2542 -528 2542 -528 2522 -528 c 0,67,68
 2514 -528 2514 -528 2502 -526 c 0,69,70
 2404 -498 2404 -498 2319 -439 c 128,-1,71
 2234 -380 2234 -380 2178 -316 c 128,-1,72
 2122 -252 2122 -252 2063 -164 c 1,73,74
 1991 -261 1991 -261 1938 -319 c 0,75,76
 1755 -519 1755 -519 1567 -546 c 0,77,78
 1564 -547 1564 -547 1555 -547 c 0,79,80
 1531 -547 1531 -547 1514 -535 c 1,81,82
 1467 -542 1467 -542 1434 -542 c 0,83,84
 1304 -542 1304 -542 1188 -471 c 0,85,86
 1110 -423 1110 -423 1043 -349.5 c 128,-1,87
 976 -276 976 -276 901 -170 c 2,88,-1
 868 -122 l 1,89,90
 787 -235 787 -235 716 -314 c 0,91,92
 533 -514 533 -514 345 -541 c 0,93,94
 344 -541 344 -541 340 -541.5 c 128,-1,95
 336 -542 336 -542 335 -542 c 0,96,97
 306 -542 306 -542 285 -521 c 128,-1,98
 264 -500 264 -500 264 -470 c 0,99,100
 264 -444 264 -444 282 -424 c 128,-1,101
 300 -404 300 -404 325 -400 c 0,102,103
 462 -381 462 -381 611 -218 c 0,104,105
 671 -152 671 -152 782 2 c 1,106,107
 728 80 728 80 687 133 c 128,-1,108
 646 186 646 186 594 243.5 c 128,-1,109
 542 301 542 301 488.5 338.5 c 128,-1,110
 435 376 435 376 380 395 c 0,111,112
 359 401 359 401 344 421 c 128,-1,113
 329 441 329 441 329 463 c 0,114,115
 329 492 329 492 350 513 c 128,-1,116
 371 534 371 534 400 534 c 0,117,118
 414 534 414 534 426 529 c 0,119,120
 559 483 559 483 661.5 382.5 c 128,-1,121
 764 282 764 282 870 128 c 1,122,123
 872 130 872 130 875.5 135 c 128,-1,124
 879 140 879 140 881 143 c 0,125,126
 964 259 964 259 1034.5 340 c 128,-1,127
 1105 421 1105 421 1184 479 c 0,128,129
 1274 546 1274 546 1380 568 c 0,130,131
 1436 579 1436 579 1491 576 c 0,0,1
1443 436 m 0,132,133
 1357 429 1357 429 1267 364 c 0,134,135
 1156 283 1156 283 997 60 c 0,136,137
 979 35 979 35 956 2 c 1,138,139
 987 -45 987 -45 1017 -88 c 0,140,141
 1154 -282 1154 -282 1263 -351 c 0,142,143
 1346 -402 1346 -402 1429 -402 c 0,144,145
 1488 -402 1488 -402 1562 -377 c 0,146,147
 1644 -348 1644 -348 1720.5 -289 c 128,-1,148
 1797 -230 1797 -230 1850 -169 c 128,-1,149
 1903 -108 1903 -108 1971 -15 c 1,150,151
 1946 26 1946 26 1898 104 c 1,152,153
 1808 227 1808 227 1726 306 c 128,-1,154
 1644 385 1644 385 1553 416 c 0,155,156
 1540 420 1540 420 1531 428 c 1,157,158
 1482 437 1482 437 1443 436 c 0,132,133
2665 430 m 0,159,160
 2655 430 2655 430 2635 426 c 1,161,162
 2627 418 2627 418 2609 411 c 0,163,164
 2536 387 2536 387 2461 335 c 1,165,166
 2360 251 2360 251 2219 54 c 0,167,168
 2192 18 2192 18 2163 -25 c 1,169,170
 2167 -30 2167 -30 2176.5 -44.5 c 128,-1,171
 2186 -59 2186 -59 2191 -67 c 0,172,173
 2332 -264 2332 -264 2437 -329 c 0,174,175
 2522 -381 2522 -381 2602 -381 c 0,176,177
 2663 -381 2663 -381 2735 -355 c 0,178,179
 2801 -332 2801 -332 2860 -294 c 128,-1,180
 2919 -256 2919 -256 2973 -200.5 c 128,-1,181
 3027 -145 3027 -145 3067.5 -95 c 128,-1,182
 3108 -45 3108 -45 3162 30 c 1,183,184
 3115 109 3115 109 3080 160 c 128,-1,185
 3045 211 3045 211 2998 266.5 c 128,-1,186
 2951 322 2951 322 2899 358 c 128,-1,187
 2847 394 2847 394 2788 413 c 0,188,189
 2720 434 2720 434 2665 430 c 0,159,160
EndSplineSet
EndChar

StartChar: uF005F
Encoding: 983135 983135 100
Width: 4096
Flags: W
LayerCount: 2
Fore
SplineSet
1284 634 m 2,0,-1
 2812 634 l 2,1,2
 2984 634 2984 634 3130 549 c 128,-1,3
 3276 464 3276 464 3361 318 c 128,-1,4
 3446 172 3446 172 3446 0 c 128,-1,5
 3446 -172 3446 -172 3361 -318 c 128,-1,6
 3276 -464 3276 -464 3130 -549 c 128,-1,7
 2984 -634 2984 -634 2812 -634 c 2,8,-1
 1284 -634 l 2,9,10
 1112 -634 1112 -634 966 -549 c 128,-1,11
 820 -464 820 -464 735 -318 c 128,-1,12
 650 -172 650 -172 650 0 c 128,-1,13
 650 172 650 172 735 318 c 128,-1,14
 820 464 820 464 966 549 c 128,-1,15
 1112 634 1112 634 1284 634 c 2,0,-1
1284 549 m 2,16,17
 1172 549 1172 549 1070 506 c 128,-1,18
 968 463 968 463 894.5 389.5 c 128,-1,19
 821 316 821 316 778 214 c 128,-1,20
 735 112 735 112 735 0 c 128,-1,21
 735 -112 735 -112 778 -214 c 128,-1,22
 821 -316 821 -316 894.5 -389.5 c 128,-1,23
 968 -463 968 -463 1070 -506 c 128,-1,24
 1172 -549 1172 -549 1284 -549 c 2,25,-1
 2812 -549 l 2,26,27
 2924 -549 2924 -549 3025.5 -506 c 128,-1,28
 3127 -463 3127 -463 3200.5 -389.5 c 128,-1,29
 3274 -316 3274 -316 3317 -214 c 128,-1,30
 3360 -112 3360 -112 3360 0 c 128,-1,31
 3360 112 3360 112 3317 214 c 128,-1,32
 3274 316 3274 316 3200.5 389.5 c 128,-1,33
 3127 463 3127 463 3025.5 506 c 128,-1,34
 2924 549 2924 549 2812 549 c 2,35,-1
 1284 549 l 2,16,17
EndSplineSet
EndChar

StartChar: uF0060
Encoding: 983136 983136 101
Width: 4096
Flags: W
LayerCount: 2
Fore
SplineSet
2048 1209 m 1,0,-1
 3257 0 l 1,1,-1
 2048 -1209 l 1,2,-1
 839 0 l 1,3,-1
 1996 1157 l 1,4,-1
 2048 1209 l 1,0,-1
2048 1001 m 1,5,-1
 1047 0 l 1,6,-1
 2048 -1001 l 1,7,-1
 3049 0 l 1,8,-1
 2048 1001 l 1,5,-1
2029 681 m 0,9,10
 2231 681 2231 681 2350 575 c 0,11,12
 2469 470 2469 470 2469 330 c 0,13,14
 2469 254 2469 254 2425 184 c 128,-1,15
 2381 114 2381 114 2238 -5 c 0,16,17
 2164 -67 2164 -67 2146 -104 c 0,18,19
 2128 -140 2128 -140 2130 -238 c 1,20,-1
 1917 -238 l 1,21,22
 1917 -220 1917 -220 1916 -201 c 2,23,-1
 1916 -182 l 2,24,25
 1916 -80 1916 -80 1951 -12 c 0,26,27
 1983 53 1983 53 2087 138 c 0,28,29
 2184 215 2184 215 2210 247 c 0,30,31
 2241 289 2241 289 2241 337 c 0,32,33
 2241 405 2241 405 2186 454 c 0,34,35
 2133 503 2133 503 2039 503 c 0,36,37
 1950 503 1950 503 1890 452 c 0,38,39
 1829 400 1829 400 1807 297 c 1,40,-1
 1592 324 l 1,41,42
 1601 473 1601 473 1719 577 c 0,43,44
 1836 681 1836 681 2029 681 c 0,9,10
1917 -319 m 1,45,-1
 2151 -319 l 1,46,-1
 2151 -553 l 1,47,-1
 1917 -553 l 1,48,-1
 1917 -319 l 1,45,-1
EndSplineSet
EndChar

StartChar: uF0061
Encoding: 983137 983137 102
Width: 4096
Flags: W
LayerCount: 2
Fore
SplineSet
2048 832 m 128,-1,1
 2337 832 2337 832 2596.5 770 c 128,-1,2
 2856 708 2856 708 3054 595 c 0,3,4
 3255 482 3255 482 3369.5 328 c 128,-1,5
 3484 174 3484 174 3484 0 c 128,-1,6
 3484 -174 3484 -174 3369.5 -328 c 128,-1,7
 3255 -482 3255 -482 3054 -595 c 0,8,9
 2856 -708 2856 -708 2596.5 -770 c 128,-1,10
 2337 -832 2337 -832 2048 -832 c 128,-1,11
 1759 -832 1759 -832 1499.5 -770 c 128,-1,12
 1240 -708 1240 -708 1042 -595 c 0,13,14
 841 -482 841 -482 726.5 -328 c 128,-1,15
 612 -174 612 -174 612 0 c 128,-1,16
 612 174 612 174 726.5 328 c 128,-1,17
 841 482 841 482 1042 595 c 0,18,19
 1240 708 1240 708 1499.5 770 c 128,-1,0
 1759 832 1759 832 2048 832 c 128,-1,1
2048 747 m 128,-1,21
 1771 747 1771 747 1521 687 c 128,-1,22
 1271 627 1271 627 1084 521 c 0,23,24
 899 416 899 416 798 281.5 c 128,-1,25
 697 147 697 147 697 0 c 128,-1,26
 697 -147 697 -147 798 -281.5 c 128,-1,27
 899 -416 899 -416 1084 -521 c 0,28,29
 1271 -627 1271 -627 1521 -687 c 128,-1,30
 1771 -747 1771 -747 2048 -747 c 128,-1,31
 2325 -747 2325 -747 2575 -687 c 128,-1,32
 2825 -627 2825 -627 3012 -521 c 0,33,34
 3197 -416 3197 -416 3298 -281.5 c 128,-1,35
 3399 -147 3399 -147 3399 0 c 128,-1,36
 3399 147 3399 147 3298 281.5 c 128,-1,37
 3197 416 3197 416 3012 521 c 0,38,39
 2825 627 2825 627 2575 687 c 128,-1,20
 2325 747 2325 747 2048 747 c 128,-1,21
EndSplineSet
EndChar

StartChar: uF0062
Encoding: 983138 983138 103
Width: 8192
Flags: W
LayerCount: 2
Fore
SplineSet
6662 1528 m 2,0,-1
 6664 1528 l 2,1,2
 6686 1528 6686 1528 6712.5 1517 c 128,-1,3
 6739 1506 6739 1506 6754 1490 c 2,4,-1
 8155 90 l 2,5,6
 8170 75 8170 75 8181 48.5 c 128,-1,7
 8192 22 8192 22 8192 0 c 128,-1,8
 8192 -22 8192 -22 8181 -48.5 c 128,-1,9
 8170 -75 8170 -75 8155 -91 c 2,10,-1
 6755 -1490 l 2,11,12
 6739 -1506 6739 -1506 6712.5 -1517 c 128,-1,13
 6686 -1528 6686 -1528 6664 -1528 c 128,-1,14
 6642 -1528 6642 -1528 6615.5 -1517 c 128,-1,15
 6589 -1506 6589 -1506 6574 -1490 c 2,16,-1
 5211 -128 l 1,17,-1
 4422 -128 l 1,18,-1
 4086 -128 l 1,19,-1
 0 -128 l 1,20,-1
 0 128 l 1,21,-1
 4086 128 l 1,22,-1
 4422 128 l 1,23,-1
 5211 128 l 1,24,-1
 6573 1490 l 2,25,26
 6589 1506 6589 1506 6614.5 1517 c 128,-1,27
 6640 1528 6640 1528 6662 1528 c 2,0,-1
6664 1219 m 1,28,-1
 5445 0 l 1,29,-1
 6664 -1219 l 1,30,-1
 7883 0 l 1,31,-1
 6664 1219 l 1,28,-1
EndSplineSet
EndChar

StartChar: uF0063
Encoding: 983139 983139 104
Width: 8192
Flags: W
LayerCount: 2
Fore
SplineSet
1619 1490 m 2,0,-1
 2981 128 l 1,1,-1
 3770 128 l 1,2,-1
 4106 128 l 1,3,-1
 8192 128 l 1,4,-1
 8192 -128 l 1,5,-1
 4106 -128 l 1,6,-1
 3770 -128 l 1,7,-1
 2981 -128 l 1,8,-1
 1618 -1490 l 2,9,10
 1603 -1506 1603 -1506 1576.5 -1517 c 128,-1,11
 1550 -1528 1550 -1528 1528 -1528 c 128,-1,12
 1506 -1528 1506 -1528 1479.5 -1517 c 128,-1,13
 1453 -1506 1453 -1506 1437 -1490 c 2,14,-1
 37 -91 l 2,15,16
 22 -75 22 -75 11 -48.5 c 128,-1,17
 0 -22 0 -22 0 0 c 128,-1,18
 0 22 0 22 11 48.5 c 128,-1,19
 22 75 22 75 37 90 c 2,20,-1
 1438 1490 l 2,21,22
 1453 1506 1453 1506 1479.5 1517 c 128,-1,23
 1506 1528 1506 1528 1528 1528 c 0,24,25
 1581 1528 1581 1528 1619 1490 c 2,0,-1
1528 1219 m 1,26,-1
 309 0 l 1,27,-1
 1528 -1219 l 1,28,-1
 2747 0 l 1,29,-1
 1528 1219 l 1,26,-1
EndSplineSet
EndChar

StartChar: uF0064
Encoding: 983140 983140 105
Width: 4096
Flags: W
LayerCount: 2
Fore
SplineSet
2046 4096 m 2,0,-1
 2048 4096 l 2,1,2
 2070 4096 2070 4096 2096.5 4085 c 128,-1,3
 2123 4074 2123 4074 2138 4059 c 2,4,-1
 3538 2659 l 2,5,6
 3554 2643 3554 2643 3565 2616.5 c 128,-1,7
 3576 2590 3576 2590 3576 2568 c 128,-1,8
 3576 2546 3576 2546 3565 2520 c 128,-1,9
 3554 2494 3554 2494 3538 2478 c 2,10,-1
 2176 1116 l 1,11,-1
 2176 -4096 l 1,12,-1
 1920 -4096 l 1,13,-1
 1920 1116 l 1,14,-1
 558 2478 l 2,15,16
 542 2494 542 2494 531 2520 c 128,-1,17
 520 2546 520 2546 520 2568 c 128,-1,18
 520 2590 520 2590 531 2616.5 c 128,-1,19
 542 2643 542 2643 558 2659 c 2,20,-1
 1957 4059 l 2,21,22
 1973 4074 1973 4074 1999 4085 c 128,-1,23
 2025 4096 2025 4096 2046 4096 c 2,0,-1
2048 3787 m 1,24,-1
 829 2568 l 1,25,-1
 2048 1350 l 1,26,-1
 3267 2568 l 1,27,-1
 2048 3787 l 1,24,-1
EndSplineSet
EndChar

StartChar: uF0065
Encoding: 983141 983141 106
Width: 4096
Flags: W
LayerCount: 2
Fore
SplineSet
2046 -4096 m 2,0,1
 2025 -4096 2025 -4096 1999 -4085 c 128,-1,2
 1973 -4074 1973 -4074 1957 -4059 c 2,3,-1
 558 -2659 l 2,4,5
 542 -2643 542 -2643 531 -2616.5 c 128,-1,6
 520 -2590 520 -2590 520 -2568 c 128,-1,7
 520 -2546 520 -2546 531 -2520 c 128,-1,8
 542 -2494 542 -2494 558 -2478 c 2,9,-1
 1920 -1116 l 1,10,-1
 1920 4096 l 1,11,-1
 2176 4096 l 1,12,-1
 2176 -1116 l 1,13,-1
 3538 -2478 l 2,14,15
 3554 -2494 3554 -2494 3565 -2520 c 128,-1,16
 3576 -2546 3576 -2546 3576 -2568 c 128,-1,17
 3576 -2590 3576 -2590 3565 -2616.5 c 128,-1,18
 3554 -2643 3554 -2643 3538 -2659 c 2,19,-1
 2138 -4059 l 2,20,21
 2123 -4074 2123 -4074 2096.5 -4085 c 128,-1,22
 2070 -4096 2070 -4096 2048 -4096 c 2,23,-1
 2046 -4096 l 2,0,1
2048 -3787 m 1,24,-1
 3267 -2568 l 1,25,-1
 2048 -1350 l 1,26,-1
 829 -2568 l 1,27,-1
 2048 -3787 l 1,24,-1
EndSplineSet
EndChar

StartChar: uF0066
Encoding: 983142 983142 107
Width: 8192
Flags: W
LayerCount: 2
Fore
SplineSet
9725 1333 m 128,-1,1
 9906 1333 9906 1333 10079 1285 c 128,-1,2
 10252 1237 10252 1237 10398 1151 c 128,-1,3
 10544 1065 10544 1065 10667.5 942 c 128,-1,4
 10791 819 10791 819 10877 672.5 c 128,-1,5
 10963 526 10963 526 11011 353.5 c 128,-1,6
 11059 181 11059 181 11059 0 c 128,-1,7
 11059 -181 11059 -181 11011 -353.5 c 128,-1,8
 10963 -526 10963 -526 10877 -672.5 c 128,-1,9
 10791 -819 10791 -819 10667.5 -942 c 128,-1,10
 10544 -1065 10544 -1065 10398 -1151 c 128,-1,11
 10252 -1237 10252 -1237 10079 -1285 c 128,-1,12
 9906 -1333 9906 -1333 9725 -1333 c 128,-1,13
 9544 -1333 9544 -1333 9371.5 -1285 c 128,-1,14
 9199 -1237 9199 -1237 9053 -1151 c 128,-1,15
 8907 -1065 8907 -1065 8783.5 -942 c 128,-1,16
 8660 -819 8660 -819 8574 -672.5 c 128,-1,17
 8488 -526 8488 -526 8440 -353.5 c 128,-1,18
 8392 -181 8392 -181 8392 0 c 128,-1,19
 8392 181 8392 181 8440 353.5 c 128,-1,20
 8488 526 8488 526 8574 672.5 c 128,-1,21
 8660 819 8660 819 8783.5 942 c 128,-1,22
 8907 1065 8907 1065 9053 1151 c 128,-1,23
 9199 1237 9199 1237 9371.5 1285 c 128,-1,0
 9544 1333 9544 1333 9725 1333 c 128,-1,1
6084 1273 m 2,24,25
 6114 1273 6114 1273 6145 1256 c 2,26,-1
 8128 111 l 2,27,28
 8156 96 8156 96 8173 68 c 0,29,30
 8202 22 8202 22 8188.5 -31 c 128,-1,31
 8175 -84 8175 -84 8128 -111 c 2,32,-1
 6145 -1256 l 2,33,34
 6100 -1278 6100 -1278 6057.5 -1271 c 128,-1,35
 6015 -1264 6015 -1264 5984 -1228.5 c 128,-1,36
 5953 -1193 5953 -1193 5953 -1145 c 2,37,-1
 5953 -128 l 1,38,-1
 4422 -128 l 1,39,-1
 0 -128 l 1,40,-1
 0 128 l 1,41,-1
 4086 128 l 1,42,-1
 4422 128 l 1,43,-1
 5953 128 l 1,44,-1
 5953 1145 l 2,45,46
 5953 1199 5953 1199 5990.5 1235.5 c 128,-1,47
 6028 1272 6028 1272 6079 1273 c 2,48,-1
 6084 1273 l 2,24,25
9725 1077 m 0,49,50
 9578 1077 9578 1077 9438.5 1038.5 c 128,-1,51
 9299 1000 9299 1000 9181 930.5 c 128,-1,52
 9063 861 9063 861 8963.5 762 c 128,-1,53
 8864 663 8864 663 8794.5 545 c 128,-1,54
 8725 427 8725 427 8686.5 287 c 128,-1,55
 8648 147 8648 147 8648 0 c 0,56,57
 8648 -202 8648 -202 8720.5 -385 c 128,-1,58
 8793 -568 8793 -568 8923 -714 c 1,59,-1
 10289 915 l 1,60,61
 10026 1077 10026 1077 9725 1077 c 0,49,50
10491 759 m 1,62,-1
 9114 -886 l 1,63,64
 9389 -1077 9389 -1077 9725 -1077 c 0,65,66
 9872 -1077 9872 -1077 10012 -1038.5 c 128,-1,67
 10152 -1000 10152 -1000 10270 -930.5 c 128,-1,68
 10388 -861 10388 -861 10487.5 -761.5 c 128,-1,69
 10587 -662 10587 -662 10656.5 -544 c 128,-1,70
 10726 -426 10726 -426 10764.5 -286.5 c 128,-1,71
 10803 -147 10803 -147 10803 0 c 0,72,73
 10803 219 10803 219 10721 414.5 c 128,-1,74
 10639 610 10639 610 10491 759 c 1,62,-1
EndSplineSet
EndChar

StartChar: uF0067
Encoding: 983143 983143 108
Width: 8192
Flags: W
LayerCount: 2
Fore
SplineSet
-1533 1333 m 128,-1,1
 -1352 1333 -1352 1333 -1179.5 1285 c 128,-1,2
 -1007 1237 -1007 1237 -861 1151 c 128,-1,3
 -715 1065 -715 1065 -591.5 942 c 128,-1,4
 -468 819 -468 819 -382 672.5 c 128,-1,5
 -296 526 -296 526 -248 353.5 c 128,-1,6
 -200 181 -200 181 -200 0 c 128,-1,7
 -200 -181 -200 -181 -248 -353.5 c 128,-1,8
 -296 -526 -296 -526 -382 -672.5 c 128,-1,9
 -468 -819 -468 -819 -591.5 -942 c 128,-1,10
 -715 -1065 -715 -1065 -861 -1151 c 128,-1,11
 -1007 -1237 -1007 -1237 -1179.5 -1285 c 128,-1,12
 -1352 -1333 -1352 -1333 -1533 -1333 c 128,-1,13
 -1714 -1333 -1714 -1333 -1887 -1285 c 128,-1,14
 -2060 -1237 -2060 -1237 -2206 -1151 c 128,-1,15
 -2352 -1065 -2352 -1065 -2475.5 -942 c 128,-1,16
 -2599 -819 -2599 -819 -2685 -672.5 c 128,-1,17
 -2771 -526 -2771 -526 -2819 -353.5 c 128,-1,18
 -2867 -181 -2867 -181 -2867 0 c 128,-1,19
 -2867 181 -2867 181 -2819 353.5 c 128,-1,20
 -2771 526 -2771 526 -2685 672.5 c 128,-1,21
 -2599 819 -2599 819 -2475.5 942 c 128,-1,22
 -2352 1065 -2352 1065 -2206 1151 c 128,-1,23
 -2060 1237 -2060 1237 -1887 1285 c 128,-1,0
 -1714 1333 -1714 1333 -1533 1333 c 128,-1,1
2113 1273 m 0,24,25
 2164 1272 2164 1272 2201.5 1235.5 c 128,-1,26
 2239 1199 2239 1199 2239 1145 c 2,27,-1
 2239 128 l 1,28,-1
 3770 128 l 1,29,-1
 4106 128 l 1,30,-1
 8192 128 l 1,31,-1
 8192 -128 l 1,32,-1
 3770 -128 l 1,33,-1
 2239 -128 l 1,34,-1
 2239 -1145 l 2,35,36
 2239 -1193 2239 -1193 2208 -1228.5 c 128,-1,37
 2177 -1264 2177 -1264 2134.5 -1271 c 128,-1,38
 2092 -1278 2092 -1278 2047 -1256 c 2,39,-1
 64 -111 l 2,40,41
 17 -84 17 -84 3.5 -31 c 128,-1,42
 -10 22 -10 22 19 68 c 0,43,44
 36 96 36 96 64 111 c 2,45,-1
 2047 1256 l 2,46,47
 2078 1273 2078 1273 2113 1273 c 0,24,25
-1533 1077 m 0,48,49
 -1834 1077 -1834 1077 -2097 915 c 1,50,-1
 -731 -714 l 1,51,52
 -601 -568 -601 -568 -528.5 -385 c 128,-1,53
 -456 -202 -456 -202 -456 0 c 0,54,55
 -456 147 -456 147 -494.5 287 c 128,-1,56
 -533 427 -533 427 -602.5 545 c 128,-1,57
 -672 663 -672 663 -771.5 762 c 128,-1,58
 -871 861 -871 861 -989 930.5 c 128,-1,59
 -1107 1000 -1107 1000 -1246.5 1038.5 c 128,-1,60
 -1386 1077 -1386 1077 -1533 1077 c 0,48,49
-2299 759 m 1,61,62
 -2447 610 -2447 610 -2529 414.5 c 128,-1,63
 -2611 219 -2611 219 -2611 0 c 0,64,65
 -2611 -147 -2611 -147 -2572.5 -286.5 c 128,-1,66
 -2534 -426 -2534 -426 -2464.5 -544 c 128,-1,67
 -2395 -662 -2395 -662 -2295.5 -761.5 c 128,-1,68
 -2196 -861 -2196 -861 -2078 -930.5 c 128,-1,69
 -1960 -1000 -1960 -1000 -1820 -1038.5 c 128,-1,70
 -1680 -1077 -1680 -1077 -1533 -1077 c 0,71,72
 -1197 -1077 -1197 -1077 -922 -886 c 1,73,-1
 -2299 759 l 1,61,62
EndSplineSet
EndChar

StartChar: uF0068
Encoding: 983144 983144 109
Width: 4096
Flags: W
LayerCount: 2
Fore
SplineSet
2048 6963 m 128,-1,1
 2229 6963 2229 6963 2401.5 6915 c 128,-1,2
 2574 6867 2574 6867 2720.5 6781 c 128,-1,3
 2867 6695 2867 6695 2990 6571.5 c 128,-1,4
 3113 6448 3113 6448 3199 6302 c 128,-1,5
 3285 6156 3285 6156 3333 5983 c 128,-1,6
 3381 5810 3381 5810 3381 5629 c 128,-1,7
 3381 5448 3381 5448 3333 5275.5 c 128,-1,8
 3285 5103 3285 5103 3199 4956.5 c 128,-1,9
 3113 4810 3113 4810 2990 4687 c 128,-1,10
 2867 4564 2867 4564 2720.5 4478 c 128,-1,11
 2574 4392 2574 4392 2401.5 4344 c 128,-1,12
 2229 4296 2229 4296 2048 4296 c 128,-1,13
 1867 4296 1867 4296 1694.5 4344 c 128,-1,14
 1522 4392 1522 4392 1375.5 4478 c 128,-1,15
 1229 4564 1229 4564 1106 4687 c 128,-1,16
 983 4810 983 4810 897 4956.5 c 128,-1,17
 811 5103 811 5103 763 5275.5 c 128,-1,18
 715 5448 715 5448 715 5629 c 128,-1,19
 715 5810 715 5810 763 5983 c 128,-1,20
 811 6156 811 6156 897 6302 c 128,-1,21
 983 6448 983 6448 1106 6571.5 c 128,-1,22
 1229 6695 1229 6695 1375.5 6781 c 128,-1,23
 1522 6867 1522 6867 1694.5 6915 c 128,-1,0
 1867 6963 1867 6963 2048 6963 c 128,-1,1
2048 6707 m 0,24,25
 1829 6707 1829 6707 1633.5 6625 c 128,-1,26
 1438 6543 1438 6543 1289 6395 c 1,27,-1
 2934 5017 l 1,28,29
 3125 5294 3125 5294 3125 5629 c 0,30,31
 3125 5776 3125 5776 3086.5 5916 c 128,-1,32
 3048 6056 3048 6056 2978.5 6174 c 128,-1,33
 2909 6292 2909 6292 2809.5 6391.5 c 128,-1,34
 2710 6491 2710 6491 2592 6560.5 c 128,-1,35
 2474 6630 2474 6630 2334.5 6668.5 c 128,-1,36
 2195 6707 2195 6707 2048 6707 c 0,24,25
1133 6193 m 1,37,38
 971 5930 971 5930 971 5629 c 0,39,40
 971 5482 971 5482 1009.5 5342.5 c 128,-1,41
 1048 5203 1048 5203 1117.5 5085 c 128,-1,42
 1187 4967 1187 4967 1286 4867.5 c 128,-1,43
 1385 4768 1385 4768 1503 4698.5 c 128,-1,44
 1621 4629 1621 4629 1761 4590.5 c 128,-1,45
 1901 4552 1901 4552 2048 4552 c 0,46,47
 2250 4552 2250 4552 2433 4624.5 c 128,-1,48
 2616 4697 2616 4697 2762 4827 c 1,49,-1
 1133 6193 l 1,37,38
2048 4096 m 0,50,51
 2082 4096 2082 4096 2111.5 4079 c 128,-1,52
 2141 4062 2141 4062 2159 4032 c 2,53,-1
 3084 2429 l 1,54,-1
 3304 2049 l 2,55,56
 3326 2004 3326 2004 3319 1961.5 c 128,-1,57
 3312 1919 3312 1919 3276.5 1888 c 128,-1,58
 3241 1857 3241 1857 3193 1857 c 2,59,-1
 2176 1857 l 1,60,-1
 2176 -1239 l 1,61,-1
 2176 -4096 l 1,62,-1
 1920 -4096 l 1,63,-1
 1920 -1239 l 1,64,-1
 1920 1857 l 1,65,-1
 903 1857 l 2,66,67
 849 1857 849 1857 812.5 1894.5 c 128,-1,68
 776 1932 776 1932 775 1983 c 0,69,70
 773 2017 773 2017 792 2049 c 2,71,-1
 1937 4032 l 2,72,73
 1952 4060 1952 4060 1980 4077 c 0,74,75
 2011 4096 2011 4096 2048 4096 c 0,50,51
EndSplineSet
EndChar

StartChar: uF0069
Encoding: 983145 983145 110
Width: 4096
Flags: W
LayerCount: 2
Fore
SplineSet
1920 4096 m 1,0,-1
 2176 4096 l 1,1,-1
 2176 1239 l 1,2,-1
 2176 -1857 l 1,3,-1
 3193 -1857 l 2,4,5
 3202 -1857 3202 -1857 3218 -1859 c 2,6,-1
 3229 -1862 l 1,7,8
 3306 -1888 3306 -1888 3319 -1964 c 1,9,10
 3319 -1964 3319 -1964 3320 -1965 c 2,11,-1
 3320 -1966 l 1,12,-1
 3320 -1967 l 2,13,14
 3321 -1972 3321 -1972 3321 -1983 c 0,15,16
 3323 -2017 3323 -2017 3304 -2049 c 2,17,-1
 2159 -4032 l 2,18,19
 2144 -4060 2144 -4060 2116 -4077 c 0,20,21
 2070 -4105 2070 -4105 2018 -4092 c 0,22,23
 1982 -4084 1982 -4084 1956 -4058 c 0,24,25
 1956 -4057 1956 -4057 1955 -4057 c 2,26,-1
 1955 -4056 l 1,27,28
 1944 -4046 1944 -4046 1937 -4032 c 2,29,-1
 792 -2049 l 2,30,31
 771 -2012 771 -2012 776 -1971 c 0,32,33
 781 -1924 781 -1924 817 -1890.5 c 128,-1,34
 853 -1857 853 -1857 903 -1857 c 2,35,-1
 1920 -1857 l 1,36,-1
 1920 1239 l 1,37,-1
 1920 4096 l 1,0,-1
2048 -4296 m 128,-1,39
 2229 -4296 2229 -4296 2401.5 -4344 c 128,-1,40
 2574 -4392 2574 -4392 2720.5 -4478 c 128,-1,41
 2867 -4564 2867 -4564 2990 -4687 c 128,-1,42
 3113 -4810 3113 -4810 3199 -4956.5 c 128,-1,43
 3285 -5103 3285 -5103 3333 -5275.5 c 128,-1,44
 3381 -5448 3381 -5448 3381 -5629 c 128,-1,45
 3381 -5810 3381 -5810 3333 -5983 c 128,-1,46
 3285 -6156 3285 -6156 3199 -6302 c 128,-1,47
 3113 -6448 3113 -6448 2990 -6571.5 c 128,-1,48
 2867 -6695 2867 -6695 2720.5 -6781 c 128,-1,49
 2574 -6867 2574 -6867 2401.5 -6915 c 128,-1,50
 2229 -6963 2229 -6963 2048 -6963 c 128,-1,51
 1867 -6963 1867 -6963 1694.5 -6915 c 128,-1,52
 1522 -6867 1522 -6867 1375.5 -6781 c 128,-1,53
 1229 -6695 1229 -6695 1106 -6571.5 c 128,-1,54
 983 -6448 983 -6448 897 -6302 c 128,-1,55
 811 -6156 811 -6156 763 -5983 c 128,-1,56
 715 -5810 715 -5810 715 -5629 c 128,-1,57
 715 -5448 715 -5448 763 -5275.5 c 128,-1,58
 811 -5103 811 -5103 897 -4956.5 c 128,-1,59
 983 -4810 983 -4810 1106 -4687 c 128,-1,60
 1229 -4564 1229 -4564 1375.5 -4478 c 128,-1,61
 1522 -4392 1522 -4392 1694.5 -4344 c 128,-1,38
 1867 -4296 1867 -4296 2048 -4296 c 128,-1,39
2048 -4552 m 0,62,63
 1846 -4552 1846 -4552 1663 -4624.5 c 128,-1,64
 1480 -4697 1480 -4697 1334 -4827 c 1,65,-1
 2963 -6193 l 1,66,67
 3125 -5930 3125 -5930 3125 -5629 c 0,68,69
 3125 -5482 3125 -5482 3086.5 -5342.5 c 128,-1,70
 3048 -5203 3048 -5203 2978.5 -5085 c 128,-1,71
 2909 -4967 2909 -4967 2810 -4867.5 c 128,-1,72
 2711 -4768 2711 -4768 2593 -4698.5 c 128,-1,73
 2475 -4629 2475 -4629 2335 -4590.5 c 128,-1,74
 2195 -4552 2195 -4552 2048 -4552 c 0,62,63
1162 -5017 m 1,75,76
 971 -5294 971 -5294 971 -5629 c 0,77,78
 971 -5776 971 -5776 1009.5 -5916 c 128,-1,79
 1048 -6056 1048 -6056 1117.5 -6174 c 128,-1,80
 1187 -6292 1187 -6292 1286.5 -6391.5 c 128,-1,81
 1386 -6491 1386 -6491 1504 -6560.5 c 128,-1,82
 1622 -6630 1622 -6630 1761.5 -6668.5 c 128,-1,83
 1901 -6707 1901 -6707 2048 -6707 c 0,84,85
 2267 -6707 2267 -6707 2462.5 -6625 c 128,-1,86
 2658 -6543 2658 -6543 2807 -6395 c 1,87,-1
 1162 -5017 l 1,75,76
EndSplineSet
EndChar

StartChar: uF006A
Encoding: 983146 983146 111
Width: 8192
Flags: W
LayerCount: 2
Fore
SplineSet
7936 1030 m 1,0,-1
 8192 1030 l 1,1,-1
 8192 127 l 1,2,-1
 8192 -128 l 1,3,-1
 8192 -1030 l 1,4,-1
 7936 -1030 l 1,5,-1
 7936 -128 l 1,6,-1
 4422 -128 l 1,7,-1
 4086 -128 l 1,8,-1
 0 -128 l 1,9,-1
 0 128 l 1,10,-1
 4422 128 l 1,11,-1
 4422 127 l 1,12,-1
 7936 127 l 1,13,-1
 7936 1030 l 1,0,-1
EndSplineSet
EndChar

StartChar: uF006B
Encoding: 983147 983147 112
Width: 8192
Flags: W
LayerCount: 2
Fore
SplineSet
0 1030 m 1,0,-1
 256 1030 l 1,1,-1
 256 127 l 1,2,-1
 3770 127 l 1,3,-1
 3770 128 l 1,4,-1
 8192 128 l 1,5,-1
 8192 -128 l 1,6,-1
 4106 -128 l 1,7,-1
 3770 -128 l 1,8,-1
 256 -128 l 1,9,-1
 256 -1030 l 1,10,-1
 0 -1030 l 1,11,-1
 0 -128 l 1,12,-1
 0 127 l 1,13,-1
 0 1030 l 1,0,-1
EndSplineSet
EndChar

StartChar: uF006C
Encoding: 983148 983148 113
Width: 4096
Flags: W
LayerCount: 2
Fore
SplineSet
1018 4096 m 1,0,-1
 1920 4096 l 1,1,-1
 2176 4096 l 1,2,-1
 3078 4096 l 1,3,-1
 3078 3840 l 1,4,-1
 2176 3840 l 1,5,-1
 2176 -4096 l 1,6,-1
 1920 -4096 l 1,7,-1
 1920 3840 l 1,8,-1
 1018 3840 l 1,9,-1
 1018 4096 l 1,0,-1
EndSplineSet
EndChar

StartChar: uF006D
Encoding: 983149 983149 114
Width: 4096
Flags: W
LayerCount: 2
Fore
SplineSet
1018 -4096 m 1,0,-1
 1018 -3840 l 1,1,-1
 1920 -3840 l 1,2,-1
 1920 4096 l 1,3,-1
 2176 4096 l 1,4,-1
 2176 -3840 l 1,5,-1
 3078 -3840 l 1,6,-1
 3078 -4096 l 1,7,-1
 2176 -4096 l 1,8,-1
 1920 -4096 l 1,9,-1
 1018 -4096 l 1,0,-1
EndSplineSet
EndChar

StartChar: uF006E
Encoding: 983150 983150 115
Width: 8192
Flags: W
LayerCount: 2
Fore
SplineSet
6080 1273 m 0,0,1
 6115 1273 6115 1273 6145 1256 c 2,2,-1
 8128 111 l 2,3,4
 8157 93 8157 93 8173 67 c 0,5,6
 8202 21 8202 21 8188.5 -31.5 c 128,-1,7
 8175 -84 8175 -84 8128 -111 c 2,8,-1
 6145 -1256 l 2,9,10
 6100 -1278 6100 -1278 6057.5 -1271 c 128,-1,11
 6015 -1264 6015 -1264 5984 -1228.5 c 128,-1,12
 5953 -1193 5953 -1193 5953 -1145 c 2,13,-1
 5953 -128 l 1,14,-1
 4422 -128 l 1,15,-1
 4086 -128 l 1,16,-1
 0 -128 l 1,17,-1
 0 128 l 1,18,-1
 4086 128 l 1,19,-1
 4422 128 l 1,20,-1
 5953 128 l 1,21,-1
 5953 1145 l 2,22,23
 5953 1199 5953 1199 5991 1235.5 c 128,-1,24
 6029 1272 6029 1272 6080 1273 c 0,0,1
EndSplineSet
EndChar

StartChar: uF006F
Encoding: 983151 983151 116
Width: 8192
Flags: W
LayerCount: 2
Fore
SplineSet
2112 1273 m 2,0,1
 2163 1272 2163 1272 2201 1235.5 c 128,-1,2
 2239 1199 2239 1199 2239 1145 c 2,3,-1
 2239 128 l 1,4,-1
 3770 128 l 1,5,-1
 4106 128 l 1,6,-1
 8192 128 l 1,7,-1
 8192 -128 l 1,8,-1
 4106 -128 l 1,9,-1
 3770 -128 l 1,10,-1
 2239 -128 l 1,11,-1
 2239 -1145 l 2,12,13
 2239 -1193 2239 -1193 2208 -1228.5 c 128,-1,14
 2177 -1264 2177 -1264 2134.5 -1271 c 128,-1,15
 2092 -1278 2092 -1278 2047 -1256 c 2,16,-1
 64 -111 l 2,17,18
 17 -84 17 -84 3.5 -31.5 c 128,-1,19
 -10 21 -10 21 19 67 c 0,20,21
 35 93 35 93 64 111 c 2,22,-1
 2047 1256 l 2,23,24
 2078 1273 2078 1273 2109 1273 c 2,25,-1
 2112 1273 l 2,0,1
EndSplineSet
EndChar

StartChar: uF0070
Encoding: 983152 983152 117
Width: 4096
Flags: W
LayerCount: 2
Fore
SplineSet
2048 4096 m 0,0,1
 2082 4096 2082 4096 2111.5 4079 c 128,-1,2
 2141 4062 2141 4062 2159 4032 c 2,3,-1
 3304 2049 l 2,4,5
 3326 2004 3326 2004 3319 1961.5 c 128,-1,6
 3312 1919 3312 1919 3276.5 1888 c 128,-1,7
 3241 1857 3241 1857 3193 1857 c 2,8,-1
 2176 1857 l 1,9,-1
 2176 -4096 l 1,10,-1
 1920 -4096 l 1,11,-1
 1920 1857 l 1,12,-1
 903 1857 l 2,13,14
 855 1857 855 1857 819.5 1888 c 128,-1,15
 784 1919 784 1919 777 1961.5 c 128,-1,16
 770 2004 770 2004 792 2049 c 2,17,-1
 1937 4032 l 2,18,19
 1955 4061 1955 4061 1981 4077 c 0,20,21
 2012 4096 2012 4096 2048 4096 c 0,0,1
EndSplineSet
EndChar

StartChar: uF0071
Encoding: 983153 983153 118
Width: 4096
Flags: W
LayerCount: 2
Fore
SplineSet
2048 -4096 m 0,0,1
 2012 -4096 2012 -4096 1981 -4077 c 0,2,3
 1955 -4061 1955 -4061 1937 -4032 c 2,4,-1
 792 -2049 l 2,5,6
 770 -2004 770 -2004 777 -1961.5 c 128,-1,7
 784 -1919 784 -1919 819.5 -1888 c 128,-1,8
 855 -1857 855 -1857 903 -1857 c 2,9,-1
 1920 -1857 l 1,10,-1
 1920 4096 l 1,11,-1
 2176 4096 l 1,12,-1
 2176 -1857 l 1,13,-1
 3193 -1857 l 2,14,15
 3241 -1857 3241 -1857 3276.5 -1888 c 128,-1,16
 3312 -1919 3312 -1919 3319 -1961.5 c 128,-1,17
 3326 -2004 3326 -2004 3304 -2049 c 2,18,-1
 2159 -4032 l 2,19,20
 2141 -4062 2141 -4062 2111.5 -4079 c 128,-1,21
 2082 -4096 2082 -4096 2048 -4096 c 0,0,1
EndSplineSet
EndChar

StartChar: uF0072
Encoding: 983154 983154 119
Width: 8192
Flags: W
LayerCount: 2
Fore
SplineSet
6145 1256 m 2,0,-1
 8128 111 l 2,1,2
 8156 94 8156 94 8173 67 c 0,3,4
 8192 35 8192 35 8192 0 c 0,5,6
 8192 -31 8192 -31 8173 -63 c 128,-1,7
 8154 -95 8154 -95 8128 -111 c 2,8,-1
 6145 -1256 l 2,9,10
 6113 -1273 6113 -1273 6081 -1273 c 0,11,12
 6028 -1273 6028 -1273 5990.5 -1235.5 c 128,-1,13
 5953 -1198 5953 -1198 5953 -1145 c 2,14,-1
 5953 -128 l 1,15,-1
 4422 -128 l 1,16,-1
 4086 -128 l 1,17,-1
 0 -128 l 1,18,-1
 0 128 l 1,19,-1
 4086 128 l 1,20,-1
 4422 128 l 1,21,-1
 5953 128 l 1,22,-1
 5953 1145 l 2,23,24
 5953 1198 5953 1198 5990.5 1235.5 c 128,-1,25
 6028 1273 6028 1273 6081 1273 c 0,26,27
 6115 1273 6115 1273 6145 1256 c 2,0,-1
6209 923 m 1,28,-1
 6209 -923 l 1,29,-1
 7808 0 l 1,30,-1
 6209 923 l 1,28,-1
EndSplineSet
EndChar

StartChar: uF0073
Encoding: 983155 983155 120
Width: 8192
Flags: W
LayerCount: 2
Fore
SplineSet
2111 1273 m 0,0,1
 2164 1273 2164 1273 2201.5 1236 c 128,-1,2
 2239 1199 2239 1199 2239 1146 c 2,3,-1
 2239 128 l 1,4,-1
 3770 128 l 1,5,-1
 4106 128 l 1,6,-1
 8192 128 l 1,7,-1
 8192 -128 l 1,8,-1
 4106 -128 l 1,9,-1
 3770 -128 l 1,10,-1
 2239 -128 l 1,11,-1
 2239 -1145 l 2,12,13
 2239 -1198 2239 -1198 2201.5 -1235.5 c 128,-1,14
 2164 -1273 2164 -1273 2111 -1273 c 0,15,16
 2079 -1273 2079 -1273 2047 -1256 c 2,17,-1
 64 -111 l 2,18,19
 38 -95 38 -95 19 -63 c 128,-1,20
 0 -31 0 -31 0 0 c 0,21,22
 0 35 0 35 19 67 c 0,23,24
 36 94 36 94 64 111 c 2,25,-1
 2047 1256 l 2,26,27
 2077 1273 2077 1273 2111 1273 c 0,0,1
1983 923 m 1,28,-1
 384 0 l 1,29,-1
 1983 -923 l 1,30,-1
 1983 923 l 1,28,-1
EndSplineSet
EndChar

StartChar: uF0074
Encoding: 983156 983156 121
Width: 4096
Flags: W
LayerCount: 2
Fore
SplineSet
2054 4096 m 2,0,1
 2083 4095 2083 4095 2114 4076 c 128,-1,2
 2145 4057 2145 4057 2159 4032 c 2,3,-1
 3304 2049 l 2,4,5
 3321 2017 3321 2017 3321 1985 c 0,6,7
 3321 1932 3321 1932 3283.5 1894.5 c 128,-1,8
 3246 1857 3246 1857 3193 1857 c 2,9,-1
 2176 1857 l 1,10,-1
 2176 -4096 l 1,11,-1
 1920 -4096 l 1,12,-1
 1920 1857 l 1,13,-1
 903 1857 l 2,14,15
 850 1857 850 1857 812.5 1894.5 c 128,-1,16
 775 1932 775 1932 775 1985 c 0,17,18
 775 2017 775 2017 792 2049 c 2,19,-1
 1937 4032 l 2,20,21
 1954 4060 1954 4060 1981 4077 c 0,22,23
 2013 4096 2013 4096 2048 4096 c 2,24,-1
 2054 4096 l 2,0,1
2048 3712 m 1,25,-1
 1125 2113 l 1,26,-1
 2971 2113 l 1,27,-1
 2048 3712 l 1,25,-1
EndSplineSet
EndChar

StartChar: uF0075
Encoding: 983157 983157 122
Width: 4096
Flags: W
LayerCount: 2
Fore
SplineSet
2054 -4096 m 2,0,-1
 2048 -4096 l 2,1,2
 2013 -4096 2013 -4096 1981 -4077 c 0,3,4
 1954 -4060 1954 -4060 1937 -4032 c 2,5,-1
 792 -2049 l 2,6,7
 775 -2017 775 -2017 775 -1985 c 0,8,9
 775 -1932 775 -1932 812.5 -1894.5 c 128,-1,10
 850 -1857 850 -1857 903 -1857 c 2,11,-1
 1920 -1857 l 1,12,-1
 1920 4096 l 1,13,-1
 2176 4096 l 1,14,-1
 2176 -1857 l 1,15,-1
 3193 -1857 l 2,16,17
 3246 -1857 3246 -1857 3283.5 -1894.5 c 128,-1,18
 3321 -1932 3321 -1932 3321 -1985 c 0,19,20
 3321 -2017 3321 -2017 3304 -2049 c 2,21,-1
 2159 -4032 l 2,22,23
 2145 -4057 2145 -4057 2114 -4076 c 128,-1,24
 2083 -4095 2083 -4095 2054 -4096 c 2,0,-1
2048 -3712 m 1,25,-1
 2971 -2113 l 1,26,-1
 1125 -2113 l 1,27,-1
 2048 -3712 l 1,25,-1
EndSplineSet
EndChar

StartChar: uF0076
Encoding: 983158 983158 123
Width: 4096
Flags: W
LayerCount: 2
Fore
SplineSet
0 128 m 1,0,-1
 4096 128 l 1,1,-1
 4096 -128 l 1,2,-1
 0 -128 l 1,3,-1
 0 128 l 1,0,-1
1920 -4096 m 1,4,-1
 1920 -384 l 1,5,-1
 2176 -384 l 1,6,-1
 2176 -4096 l 1,7,-1
 1920 -4096 l 1,4,-1
1920 384 m 1,8,-1
 1920 4096 l 1,9,-1
 2176 4096 l 1,10,-1
 2176 384 l 1,11,-1
 1920 384 l 1,8,-1
EndSplineSet
EndChar

StartChar: uF0077
Encoding: 983159 983159 124
Width: 4096
Flags: W
LayerCount: 2
Fore
SplineSet
0 128 m 1,0,-1
 4096 128 l 1,1,-1
 4096 -128 l 1,2,-1
 2176 -128 l 1,3,-1
 2176 -4096 l 1,4,-1
 1920 -4096 l 1,5,-1
 1920 -128 l 1,6,-1
 0 -128 l 1,7,-1
 0 128 l 1,0,-1
EndSplineSet
EndChar

StartChar: uF0078
Encoding: 983160 983160 125
Width: 4096
Flags: W
LayerCount: 2
Fore
SplineSet
1920 4096 m 1,0,-1
 2176 4096 l 1,1,-1
 2176 128 l 1,2,-1
 4096 128 l 1,3,-1
 4096 -128 l 1,4,-1
 0 -128 l 1,5,-1
 0 128 l 1,6,-1
 1920 128 l 1,7,-1
 1920 4096 l 1,0,-1
EndSplineSet
EndChar

StartChar: uF0079
Encoding: 983161 983161 126
Width: 4096
Flags: W
LayerCount: 2
Fore
SplineSet
1920 4096 m 1,0,-1
 2176 4096 l 1,1,-1
 2176 128 l 1,2,-1
 4096 128 l 1,3,-1
 4096 -128 l 1,4,-1
 2176 -128 l 1,5,-1
 2176 -4096 l 1,6,-1
 1920 -4096 l 1,7,-1
 1920 4096 l 1,0,-1
EndSplineSet
EndChar

StartChar: uF007A
Encoding: 983162 983162 127
Width: 4096
Flags: W
LayerCount: 2
Fore
SplineSet
2176 4096 m 1,0,-1
 2176 -4096 l 1,1,-1
 1920 -4096 l 1,2,-1
 1920 -128 l 1,3,-1
 0 -128 l 1,4,-1
 0 128 l 1,5,-1
 1920 128 l 1,6,-1
 1920 4096 l 1,7,-1
 2176 4096 l 1,0,-1
EndSplineSet
EndChar

StartChar: uF007B
Encoding: 983163 983163 128
Width: 4096
Flags: W
LayerCount: 2
Fore
SplineSet
1920 4096 m 1,0,-1
 2176 4096 l 1,1,-1
 2176 128 l 1,2,-1
 2176 -128 l 1,3,-1
 1920 -128 l 1,4,-1
 0 -128 l 1,5,-1
 0 128 l 1,6,-1
 1920 128 l 1,7,-1
 1920 4096 l 1,0,-1
EndSplineSet
EndChar

StartChar: uF007C
Encoding: 983164 983164 129
Width: 4096
Flags: W
LayerCount: 2
Fore
SplineSet
1920 -4096 m 1,0,-1
 1920 -128 l 1,1,-1
 0 -128 l 1,2,-1
 0 128 l 1,3,-1
 1920 128 l 1,4,-1
 2176 128 l 1,5,-1
 2176 -128 l 1,6,-1
 2176 -4096 l 1,7,-1
 1920 -4096 l 1,0,-1
EndSplineSet
EndChar

StartChar: uF007D
Encoding: 983165 983165 130
Width: 4096
Flags: W
LayerCount: 2
Fore
SplineSet
2176 4096 m 1,0,-1
 2176 128 l 1,1,-1
 4096 128 l 1,2,-1
 4096 -128 l 1,3,-1
 2176 -128 l 1,4,-1
 1920 -128 l 1,5,-1
 1920 128 l 1,6,-1
 1920 4096 l 1,7,-1
 2176 4096 l 1,0,-1
EndSplineSet
EndChar

StartChar: uF007E
Encoding: 983166 983166 131
Width: 4096
Flags: W
LayerCount: 2
Fore
SplineSet
2176 -4096 m 1,0,-1
 1920 -4096 l 1,1,-1
 1920 -128 l 1,2,-1
 1920 128 l 1,3,-1
 2176 128 l 1,4,-1
 4096 128 l 1,5,-1
 4096 -128 l 1,6,-1
 2176 -128 l 1,7,-1
 2176 -4096 l 1,0,-1
EndSplineSet
EndChar

StartChar: uF007F
Encoding: 983167 983167 132
Width: 4096
Flags: W
LayerCount: 2
Fore
SplineSet
2048 2987 m 128,-1,1
 2244 2987 2244 2987 2411 2889.5 c 128,-1,2
 2578 2792 2578 2792 2675.5 2625 c 128,-1,3
 2773 2458 2773 2458 2773 2262 c 0,4,5
 2773 2086 2773 2086 2693 1931.5 c 128,-1,6
 2613 1777 2613 1777 2474 1676.5 c 128,-1,7
 2335 1576 2335 1576 2165 1548 c 1,8,9
 2176 1522 2176 1522 2176 1496 c 2,10,-1
 2176 1495 l 1,11,-1
 2176 130 l 1,12,-1
 2176 128 l 1,13,-1
 4096 128 l 1,14,-1
 4096 -128 l 1,15,-1
 0 -128 l 1,16,-1
 0 128 l 1,17,-1
 1920 128 l 1,18,-1
 1920 130 l 1,19,-1
 1920 1495 l 1,20,-1
 1920 1496 l 2,21,22
 1920 1522 1920 1522 1931 1548 c 1,23,24
 1761 1576 1761 1576 1622 1676.5 c 128,-1,25
 1483 1777 1483 1777 1403 1931.5 c 128,-1,26
 1323 2086 1323 2086 1323 2262 c 0,27,28
 1323 2458 1323 2458 1420.5 2625 c 128,-1,29
 1518 2792 1518 2792 1685 2889.5 c 128,-1,0
 1852 2987 1852 2987 2048 2987 c 128,-1,1
2048 2731 m 128,-1,31
 1920 2731 1920 2731 1812 2668.5 c 128,-1,32
 1704 2606 1704 2606 1641.5 2498 c 128,-1,33
 1579 2390 1579 2390 1579 2262 c 128,-1,34
 1579 2134 1579 2134 1641.5 2026 c 128,-1,35
 1704 1918 1704 1918 1812 1855.5 c 128,-1,36
 1920 1793 1920 1793 2048 1793 c 128,-1,37
 2176 1793 2176 1793 2284 1855.5 c 128,-1,38
 2392 1918 2392 1918 2454.5 2026 c 128,-1,39
 2517 2134 2517 2134 2517 2262 c 128,-1,40
 2517 2390 2517 2390 2454.5 2498 c 128,-1,41
 2392 2606 2392 2606 2284 2668.5 c 128,-1,30
 2176 2731 2176 2731 2048 2731 c 128,-1,31
2134 2265 m 1,42,43
 2200 2294 2200 2294 2330 2352 c 1,44,45
 2368 2242 2368 2242 2387 2188 c 1,46,47
 2352 2179 2352 2179 2282.5 2162 c 128,-1,48
 2213 2145 2213 2145 2178 2137 c 1,49,50
 2237 2070 2237 2070 2333 1959 c 1,51,52
 2282 1926 2282 1926 2180 1858 c 1,53,54
 2140 1928 2140 1928 2058 2068 c 1,55,56
 1976 1928 1976 1928 1934 1858 c 1,57,58
 1883 1893 1883 1893 1779 1961 c 1,59,60
 1805 1990 1805 1990 1858 2048.5 c 128,-1,61
 1911 2107 1911 2107 1938 2137 c 1,62,63
 1903 2145 1903 2145 1833.5 2162 c 128,-1,64
 1764 2179 1764 2179 1729 2188 c 1,65,66
 1748 2242 1748 2242 1786 2352 c 1,67,68
 1819 2338 1819 2338 1885.5 2309 c 128,-1,69
 1952 2280 1952 2280 1985 2265 c 1,70,-1
 1970 2493 l 1,71,-1
 2149 2493 l 1,72,-1
 2134 2265 l 1,42,43
EndSplineSet
EndChar

